<svg width="880" height="1121" viewBox="0 0 880 1121" fill="none" xmlns="http://www.w3.org/2000/svg">
<path d="M851.263 1025.71V1025.99L797.696 1056.92C784.656 1064.45 776.628 1078.37 776.628 1093.42L744.641 1111.89L743.607 1112.49C724.458 1123.54 700.851 1123.54 681.702 1112.49L648.681 1093.42C641.569 1089.32 638.019 1082.14 638.019 1074.97C638.019 1073.15 638.244 1071.33 638.702 1069.57C638.702 1069.57 648.681 1019.55 712.654 982.619C776.627 945.685 851.263 1025.71 851.263 1025.71Z" fill="url(#paint0_linear_22_35)"/>
<path d="M784.598 978.015L776.627 982.616L793.216 992.194L808.615 991.882C808.615 979.556 795.273 971.853 784.598 978.015Z" fill="#7AFFF5"/>
<path d="M851.263 1025.99V1038.02C851.263 1038.49 851.252 1038.95 851.22 1039.42C851.209 1039.49 851.21 1039.56 851.199 1039.63C851.167 1040.04 851.134 1040.44 851.081 1040.84C851.081 1040.86 851.071 1040.87 851.071 1040.88C850.666 1043.97 849.578 1046.99 847.84 1049.66C846.091 1052.35 843.681 1054.71 840.6 1056.49L776.627 1093.42C776.627 1078.37 784.656 1064.45 797.696 1056.92L851.263 1025.99Z" fill="url(#paint1_linear_22_35)"/>
<path d="M851.265 1026L797.699 1056.92C784.66 1064.45 776.628 1078.36 776.629 1093.42" stroke="#2600B1" stroke-linecap="round" stroke-linejoin="round"/>
<path d="M783.668 738.7C783.668 738.7 783.669 812.565 687.717 831.037C591.765 849.509 528.812 739.293 463.801 701.759C398.79 664.225 367.848 757.761 367.848 757.761" stroke="#2600B1" stroke-width="3" stroke-linecap="round" stroke-linejoin="round"/>
<path d="M496.826 997.242L672.75 895.673L208.945 627.896L33.02 729.465L496.826 997.242Z" fill="url(#paint2_linear_22_35)"/>
<path d="M33.021 729.464L0 766.399L463.801 1034.18L496.826 997.242L33.021 729.464Z" fill="url(#paint3_linear_22_35)"/>
<path d="M463.801 1034.18L496.825 997.241L672.749 895.673V914.139L463.801 1034.18Z" fill="url(#paint4_linear_22_35)"/>
<path d="M160.966 655.594L192.953 637.127L224.94 655.594L192.953 674.061L160.966 655.594Z" stroke="#2600B1" stroke-linecap="round" stroke-linejoin="round"/>
<path d="M192.953 674.062L224.939 692.529L256.925 674.062L224.939 655.595L192.953 674.062Z" stroke="#2600B1" stroke-linecap="round" stroke-linejoin="round"/>
<path d="M176.96 701.763L208.946 720.23L240.932 701.763L208.946 683.296L176.96 701.763Z" stroke="#2600B1" stroke-linecap="round" stroke-linejoin="round"/>
<path d="M160.967 729.464L192.953 747.931L224.939 729.464L192.953 710.997L160.967 729.464Z" stroke="#2600B1" stroke-linecap="round" stroke-linejoin="round"/>
<path d="M144.974 757.166L176.96 775.633L208.946 757.166L176.96 738.699L144.974 757.166Z" stroke="#2600B1" stroke-linecap="round" stroke-linejoin="round"/>
<path d="M33.021 729.464L65.007 747.931L96.993 729.464L65.007 710.997L33.021 729.464Z" stroke="#2600B1" stroke-linecap="round" stroke-linejoin="round"/>
<path d="M65.0071 747.932L96.9931 766.399L128.979 747.932L96.9931 729.465L65.0071 747.932Z" stroke="#2600B1" stroke-linecap="round" stroke-linejoin="round"/>
<path d="M96.9941 766.399L128.98 784.866L160.966 766.399L128.98 747.932L96.9941 766.399Z" stroke="#2600B1" stroke-linecap="round" stroke-linejoin="round"/>
<path d="M128.98 784.867L160.966 803.334L192.952 784.867L160.966 766.4L128.98 784.867Z" stroke="#2600B1" stroke-linecap="round" stroke-linejoin="round"/>
<path d="M160.966 803.335L336.893 904.905L368.88 886.437L192.952 784.867L160.966 803.335Z" stroke="#2600B1" stroke-linecap="round" stroke-linejoin="round"/>
<path d="M176.96 775.633L208.946 794.1L240.932 775.633L208.946 757.166L176.96 775.633Z" stroke="#2600B1" stroke-linecap="round" stroke-linejoin="round"/>
<path d="M208.946 794.1L240.932 812.567L272.918 794.1L240.932 775.633L208.946 794.1Z" stroke="#2600B1" stroke-linecap="round" stroke-linejoin="round"/>
<path d="M240.933 812.568L272.919 831.035L304.905 812.568L272.919 794.101L240.933 812.568Z" stroke="#2600B1" stroke-linecap="round" stroke-linejoin="round"/>
<path d="M272.919 831.035L304.905 849.502L336.891 831.035L304.905 812.568L272.919 831.035Z" stroke="#2600B1" stroke-linecap="round" stroke-linejoin="round"/>
<path d="M304.906 849.503L336.892 867.97L368.878 849.503L336.892 831.036L304.906 849.503Z" stroke="#2600B1" stroke-linecap="round" stroke-linejoin="round"/>
<path d="M336.892 867.97L368.878 886.437L400.864 867.97L368.878 849.503L336.892 867.97Z" stroke="#2600B1" stroke-linecap="round" stroke-linejoin="round"/>
<path d="M368.879 886.438L400.865 904.905L432.851 886.438L400.865 867.971L368.879 886.438Z" stroke="#2600B1" stroke-linecap="round" stroke-linejoin="round"/>
<path d="M336.894 904.905L368.88 923.372L400.866 904.905L368.88 886.438L336.894 904.905Z" stroke="#2600B1" stroke-linecap="round" stroke-linejoin="round"/>
<path d="M368.88 923.372L400.866 941.839L432.852 923.372L400.866 904.905L368.88 923.372Z" stroke="#2600B1" stroke-linecap="round" stroke-linejoin="round"/>
<path d="M400.866 941.839L432.852 960.306L448.846 951.073L416.859 932.606L400.866 941.839Z" stroke="#2600B1" stroke-linecap="round" stroke-linejoin="round"/>
<path d="M432.853 960.307L464.839 978.774L480.831 969.541L448.845 951.074L432.853 960.307Z" stroke="#2600B1" stroke-linecap="round" stroke-linejoin="round"/>
<path d="M448.845 951.073L480.831 969.54L496.823 960.307L464.837 941.84L448.845 951.073Z" stroke="#2600B1" stroke-linecap="round" stroke-linejoin="round"/>
<path d="M464.839 978.774L496.825 997.241L512.817 988.01L480.831 969.543L464.839 978.774Z" stroke="#2600B1" stroke-linecap="round" stroke-linejoin="round"/>
<path d="M192.953 637.127L224.939 655.594L240.931 646.363L208.945 627.896L192.953 637.127Z" stroke="#2600B1" stroke-linecap="round" stroke-linejoin="round"/>
<path d="M224.94 655.594L256.926 674.061L272.918 664.83L240.932 646.363L224.94 655.594Z" stroke="#2600B1" stroke-linecap="round" stroke-linejoin="round"/>
<path d="M256.927 674.062L288.913 692.529L304.905 683.298L272.919 664.831L256.927 674.062Z" stroke="#2600B1" stroke-linecap="round" stroke-linejoin="round"/>
<path d="M288.913 692.529L320.899 710.996L336.891 701.765L304.905 683.298L288.913 692.529Z" stroke="#2600B1" stroke-linecap="round" stroke-linejoin="round"/>
<path d="M320.9 710.997L352.886 729.464L368.878 720.233L336.892 701.766L320.9 710.997Z" stroke="#2600B1" stroke-linecap="round" stroke-linejoin="round"/>
<path d="M352.887 729.464L384.873 747.931L400.865 738.7L368.879 720.233L352.887 729.464Z" stroke="#2600B1" stroke-linecap="round" stroke-linejoin="round"/>
<path d="M384.873 747.931L416.859 766.398L432.851 757.167L400.865 738.7L384.873 747.931Z" stroke="#2600B1" stroke-linecap="round" stroke-linejoin="round"/>
<path d="M416.86 766.399L448.846 784.866L464.838 775.635L432.852 757.168L416.86 766.399Z" stroke="#2600B1" stroke-linecap="round" stroke-linejoin="round"/>
<path d="M448.847 784.866L480.833 803.333L496.825 794.102L464.839 775.635L448.847 784.866Z" stroke="#2600B1" stroke-linecap="round" stroke-linejoin="round"/>
<path d="M480.833 803.334L512.819 821.801L528.811 812.57L496.825 794.103L480.833 803.334Z" stroke="#2600B1" stroke-linecap="round" stroke-linejoin="round"/>
<path d="M512.82 821.801L544.806 840.268L560.798 831.037L528.812 812.57L512.82 821.801Z" stroke="#2600B1" stroke-linecap="round" stroke-linejoin="round"/>
<path d="M544.807 840.269L576.793 858.736L592.785 849.505L560.799 831.038L544.807 840.269Z" stroke="#2600B1" stroke-linecap="round" stroke-linejoin="round"/>
<path d="M576.794 858.736L608.78 877.203L624.772 867.972L592.786 849.505L576.794 858.736Z" stroke="#2600B1" stroke-linecap="round" stroke-linejoin="round"/>
<path d="M608.78 877.203L656.758 904.904L672.75 895.673L624.772 867.972L608.78 877.203Z" stroke="#2600B1" stroke-linecap="round" stroke-linejoin="round"/>
<path d="M400.865 904.905L432.851 923.372L464.837 904.905L432.851 886.438L400.865 904.905Z" stroke="#2600B1" stroke-linecap="round" stroke-linejoin="round"/>
<path d="M432.852 923.372L464.838 941.839L496.824 923.372L464.838 904.905L432.852 923.372Z" stroke="#2600B1" stroke-linecap="round" stroke-linejoin="round"/>
<path d="M464.838 941.84L528.812 978.776L560.798 960.308L496.824 923.372L464.838 941.84Z" stroke="#2600B1" stroke-linecap="round" stroke-linejoin="round"/>
<path d="M192.953 747.932L224.939 766.399L256.925 747.932L224.939 729.465L192.953 747.932Z" stroke="#2600B1" stroke-linecap="round" stroke-linejoin="round"/>
<path d="M224.94 766.399L256.926 784.866L288.912 766.399L256.926 747.932L224.94 766.399Z" stroke="#2600B1" stroke-linecap="round" stroke-linejoin="round"/>
<path d="M256.927 784.867L288.913 803.334L320.899 784.867L288.913 766.4L256.927 784.867Z" stroke="#2600B1" stroke-linecap="round" stroke-linejoin="round"/>
<path d="M288.914 803.334L320.9 821.801L352.886 803.334L320.9 784.867L288.914 803.334Z" stroke="#2600B1" stroke-linecap="round" stroke-linejoin="round"/>
<path d="M320.9 821.802L352.886 840.269L384.872 821.802L352.886 803.335L320.9 821.802Z" stroke="#2600B1" stroke-linecap="round" stroke-linejoin="round"/>
<path d="M352.887 840.269L384.873 858.736L416.859 840.269L384.873 821.802L352.887 840.269Z" stroke="#2600B1" stroke-linecap="round" stroke-linejoin="round"/>
<path d="M384.874 858.737L416.86 877.204L448.846 858.737L416.86 840.27L384.874 858.737Z" stroke="#2600B1" stroke-linecap="round" stroke-linejoin="round"/>
<path d="M416.86 877.204L448.846 895.671L480.832 877.204L448.846 858.737L416.86 877.204Z" stroke="#2600B1" stroke-linecap="round" stroke-linejoin="round"/>
<path d="M448.847 895.672L480.833 914.139L512.819 895.672L480.833 877.205L448.847 895.672Z" stroke="#2600B1" stroke-linecap="round" stroke-linejoin="round"/>
<path d="M480.834 914.139L512.82 932.606L544.806 914.139L512.82 895.672L480.834 914.139Z" stroke="#2600B1" stroke-linecap="round" stroke-linejoin="round"/>
<path d="M480.834 914.139L560.798 960.308L592.784 941.841L512.82 895.672" stroke="#2600B1" stroke-linecap="round" stroke-linejoin="round"/>
<path d="M208.946 720.23L240.932 738.697L272.918 720.23L240.932 701.763L208.946 720.23Z" stroke="#2600B1" stroke-linecap="round" stroke-linejoin="round"/>
<path d="M240.933 738.698L272.919 757.165L304.905 738.698L272.919 720.231L240.933 738.698Z" stroke="#2600B1" stroke-linecap="round" stroke-linejoin="round"/>
<path d="M272.919 757.165L304.905 775.632L336.891 757.165L304.905 738.698L272.919 757.165Z" stroke="#2600B1" stroke-linecap="round" stroke-linejoin="round"/>
<path d="M304.906 775.633L336.892 794.1L368.878 775.633L336.892 757.166L304.906 775.633Z" stroke="#2600B1" stroke-linecap="round" stroke-linejoin="round"/>
<path d="M336.892 794.1L368.878 812.567L400.864 794.1L368.878 775.633L336.892 794.1Z" stroke="#2600B1" stroke-linecap="round" stroke-linejoin="round"/>
<path d="M368.879 812.568L400.865 831.035L432.851 812.568L400.865 794.101L368.879 812.568Z" stroke="#2600B1" stroke-linecap="round" stroke-linejoin="round"/>
<path d="M400.865 831.035L432.851 849.502L464.837 831.035L432.851 812.568L400.865 831.035Z" stroke="#2600B1" stroke-linecap="round" stroke-linejoin="round"/>
<path d="M432.852 849.502L464.838 867.969L496.824 849.502L464.838 831.035L432.852 849.502Z" stroke="#2600B1" stroke-linecap="round" stroke-linejoin="round"/>
<path d="M464.838 867.97L496.824 886.437L528.81 867.97L496.824 849.503L464.838 867.97Z" stroke="#2600B1" stroke-linecap="round" stroke-linejoin="round"/>
<path d="M496.824 886.437L528.81 904.904L560.796 886.437L528.81 867.97L496.824 886.437Z" stroke="#2600B1" stroke-linecap="round" stroke-linejoin="round"/>
<path d="M528.811 904.905L560.797 923.372L592.783 904.905L560.797 886.438L528.811 904.905Z" stroke="#2600B1" stroke-linecap="round" stroke-linejoin="round"/>
<path d="M560.797 923.372L592.783 941.839L624.769 923.372L592.783 904.905L560.797 923.372Z" stroke="#2600B1" stroke-linecap="round" stroke-linejoin="round"/>
<path d="M224.94 692.529L256.926 710.996L288.912 692.529L256.926 674.062L224.94 692.529Z" stroke="#2600B1" stroke-linecap="round" stroke-linejoin="round"/>
<path d="M256.926 710.997L288.912 729.464L320.898 710.997L288.912 692.53L256.926 710.997Z" stroke="#2600B1" stroke-linecap="round" stroke-linejoin="round"/>
<path d="M288.913 729.464L320.899 747.931L352.885 729.464L320.899 710.997L288.913 729.464Z" stroke="#2600B1" stroke-linecap="round" stroke-linejoin="round"/>
<path d="M320.899 747.932L352.885 766.399L384.871 747.932L352.885 729.465L320.899 747.932Z" stroke="#2600B1" stroke-linecap="round" stroke-linejoin="round"/>
<path d="M352.886 766.399L384.872 784.866L416.858 766.399L384.872 747.932L352.886 766.399Z" stroke="#2600B1" stroke-linecap="round" stroke-linejoin="round"/>
<path d="M384.873 784.867L416.859 803.334L448.845 784.867L416.859 766.4L384.873 784.867Z" stroke="#2600B1" stroke-linecap="round" stroke-linejoin="round"/>
<path d="M416.859 803.334L448.845 821.801L480.831 803.334L448.845 784.867L416.859 803.334Z" stroke="#2600B1" stroke-linecap="round" stroke-linejoin="round"/>
<path d="M448.846 821.802L480.832 840.269L512.818 821.802L480.832 803.335L448.846 821.802Z" stroke="#2600B1" stroke-linecap="round" stroke-linejoin="round"/>
<path d="M480.832 840.269L512.818 858.736L544.804 840.269L512.818 821.802L480.832 840.269Z" stroke="#2600B1" stroke-linecap="round" stroke-linejoin="round"/>
<path d="M512.819 858.737L544.805 877.204L576.791 858.737L544.805 840.27L512.819 858.737Z" stroke="#2600B1" stroke-linecap="round" stroke-linejoin="round"/>
<path d="M544.805 877.204L576.791 895.671L608.777 877.204L576.791 858.737L544.805 877.204Z" stroke="#2600B1" stroke-linecap="round" stroke-linejoin="round"/>
<path d="M576.792 895.672L624.772 923.373L656.758 904.906L608.778 877.205L576.792 895.672Z" stroke="#2600B1" stroke-linecap="round" stroke-linejoin="round"/>
<path d="M128.98 674.062L176.96 701.763L208.946 683.296L160.966 655.595L128.98 674.062Z" stroke="#2600B1" stroke-linecap="round" stroke-linejoin="round"/>
<path d="M96.9932 692.529L160.966 729.464L192.953 710.997L128.98 674.062L96.9932 692.529Z" stroke="#2600B1" stroke-linecap="round" stroke-linejoin="round"/>
<path d="M65.0071 710.996L144.973 757.165L176.959 738.698L96.9931 692.529L65.0071 710.996Z" stroke="#2600B1" stroke-linecap="round" stroke-linejoin="round"/>
<path d="M480.831 969.543L512.817 988.011L528.811 978.776L496.823 960.307L480.831 969.543Z" fill="#2600B1"/>
<path d="M416.859 932.606L448.845 951.072L464.837 941.839L432.851 923.372L416.859 932.606Z" fill="#2600B1"/>
<path d="M399.832 627.895L591.752 738.699L719.702 664.829L528.818 553.425L399.832 627.895Z" fill="url(#paint5_linear_22_35)"/>
<path d="M399.832 627.895V646.362L591.754 757.167L591.752 738.7L399.832 627.895Z" fill="#73A3FF"/>
<path d="M591.754 757.167L719.702 683.294V664.829L591.752 738.699L591.754 757.167Z" fill="#2600B1"/>
<path d="M463.808 590.956L463.805 627.894L591.752 701.762L623.738 683.297L623.743 646.359L592.79 664.229L463.808 590.956Z" fill="#2600B1"/>
<path d="M239.902 461.684L239.905 18.468L847.646 369.349L847.648 812.568L239.902 461.684Z" fill="url(#paint6_linear_22_35)"/>
<path d="M239.902 461.684L239.905 18.468L847.646 369.349L847.648 812.568L239.902 461.684Z" fill="url(#paint7_linear_22_35)" fill-opacity="0.0422511"/>
<path d="M239.905 18.467L271.889 0L879.633 350.881L847.646 369.348L239.905 18.467Z" fill="url(#paint8_linear_22_35)"/>
<path d="M847.648 812.566L847.646 369.347L879.632 350.88L879.634 794.099L847.648 812.566Z" fill="url(#paint9_linear_22_35)"/>
<defs>
<linearGradient id="paint0_linear_22_35" x1="803.252" y1="977.777" x2="667.548" y2="1113.48" gradientUnits="userSpaceOnUse">
<stop stop-color="#80FFF5"/>
<stop offset="0.5" stop-color="#5380D2"/>
<stop offset="1" stop-color="#2700AF"/>
</linearGradient>
<linearGradient id="paint1_linear_22_35" x1="776.252" y1="1058.78" x2="850.887" y2="1058.78" gradientUnits="userSpaceOnUse">
<stop stop-color="#80FFF5"/>
<stop offset="0.5" stop-color="#5380D2"/>
<stop offset="1" stop-color="#2700AF"/>
</linearGradient>
<linearGradient id="paint2_linear_22_35" x1="32.311" y1="812" x2="672.04" y2="812" gradientUnits="userSpaceOnUse">
<stop stop-color="white"/>
<stop offset="0.5" stop-color="#C0FFFA"/>
<stop offset="1" stop-color="#80FFF5"/>
</linearGradient>
<linearGradient id="paint3_linear_22_35" x1="-0.689011" y1="881" x2="496.137" y2="881" gradientUnits="userSpaceOnUse">
<stop stop-color="#CDBBFF"/>
<stop offset="0.5" stop-color="#795ED7"/>
<stop offset="1" stop-color="#2600AF"/>
</linearGradient>
<linearGradient id="paint4_linear_22_35" x1="463.311" y1="964" x2="672.259" y2="964" gradientUnits="userSpaceOnUse">
<stop stop-color="#80FFF5"/>
<stop offset="0.5" stop-color="#5380D2"/>
<stop offset="1" stop-color="#2700AF"/>
</linearGradient>
<linearGradient id="paint5_linear_22_35" x1="399.311" y1="646" x2="719.18" y2="646" gradientUnits="userSpaceOnUse">
<stop stop-color="#CDBBFF"/>
<stop offset="0.5" stop-color="#795ED7"/>
<stop offset="1" stop-color="#2600AF"/>
</linearGradient>
<linearGradient id="paint6_linear_22_35" x1="239.311" y1="415" x2="847.057" y2="415" gradientUnits="userSpaceOnUse">
<stop stop-color="#80FFF5"/>
<stop offset="0.8" stop-color="#7AD2FA"/>
<stop offset="1" stop-color="#75A6FF"/>
</linearGradient>
<linearGradient id="paint7_linear_22_35" x1="239.311" y1="415" x2="847.057" y2="415" gradientUnits="userSpaceOnUse">
<stop stop-color="#2600B1"/>
<stop offset="0.8" stop-color="#2600B1"/>
<stop offset="1" stop-color="#2600B1"/>
</linearGradient>
<linearGradient id="paint8_linear_22_35" x1="239.311" y1="184" x2="879.039" y2="184" gradientUnits="userSpaceOnUse">
<stop stop-color="white"/>
<stop offset="0.5" stop-color="#C0FFFA"/>
<stop offset="1" stop-color="#80FFF5"/>
</linearGradient>
<linearGradient id="paint9_linear_22_35" x1="863.311" y1="812" x2="863.311" y2="350.313" gradientUnits="userSpaceOnUse">
<stop stop-color="#CDBBFF"/>
<stop offset="0.5" stop-color="#795ED7"/>
<stop offset="1" stop-color="#2600AF"/>
</linearGradient>
</defs>
</svg>
