<svg xmlns="http://www.w3.org/2000/svg" viewBox="0 0 1040 1256" width="1040" height="1256" preserveAspectRatio="xMidYMid meet" style="width: 100%; height: 100%; transform: translate3d(0px, 0px, 0px);"><defs><clipPath id="__lottie_element_2"><rect width="1040" height="1256" x="0" y="0"></rect></clipPath><linearGradient id="__lottie_element_5" spreadMethod="pad" gradientUnits="userSpaceOnUse" x1="-0.32899999618530273" y1="230.27699279785156" x2="-0.32899999618530273" y2="-231.41000366210938"><stop offset="0%" stop-color="rgb(205,187,255)"></stop><stop offset="50%" stop-color="rgb(121,94,215)"></stop><stop offset="100%" stop-color="rgb(38,0,175)"></stop></linearGradient><linearGradient id="__lottie_element_8" spreadMethod="pad" gradientUnits="userSpaceOnUse" x1="-320.4580078125" y1="-0.6740000247955322" x2="319.2699890136719" y2="-0.6740000247955322"><stop offset="0%" stop-color="rgb(255,255,255)"></stop><stop offset="50%" stop-color="rgb(192,255,250)"></stop><stop offset="100%" stop-color="rgb(128,255,245)"></stop></linearGradient><linearGradient id="__lottie_element_11" spreadMethod="pad" gradientUnits="userSpaceOnUse" x1="-304.4639892578125" y1="-0.5180000066757202" x2="303.2820129394531" y2="-0.5180000066757202"><stop offset="0%" stop-color="rgb(38,0,177)"></stop><stop offset="80%" stop-color="rgb(38,0,177)"></stop><stop offset="100%" stop-color="rgb(38,0,177)"></stop></linearGradient><linearGradient id="__lottie_element_14" spreadMethod="pad" gradientUnits="userSpaceOnUse" x1="-304.4639892578125" y1="-0.5180000066757202" x2="303.2820129394531" y2="-0.5180000066757202"><stop offset="0%" stop-color="rgb(128,255,245)"></stop><stop offset="80%" stop-color="rgb(122,210,250)"></stop><stop offset="100%" stop-color="rgb(117,166,255)"></stop></linearGradient><linearGradient id="__lottie_element_23" spreadMethod="pad" gradientUnits="userSpaceOnUse" x1="-160.45599365234375" y1="-0.06199999898672104" x2="159.41299438476562" y2="-0.06199999898672104"><stop offset="0%" stop-color="rgb(205,187,255)"></stop><stop offset="50%" stop-color="rgb(121,94,215)"></stop><stop offset="100%" stop-color="rgb(38,0,175)"></stop></linearGradient><linearGradient id="__lottie_element_28" spreadMethod="pad" gradientUnits="userSpaceOnUse" x1="-104.96399688720703" y1="-0.925000011920929" x2="103.98400115966797" y2="-0.925000011920929"><stop offset="0%" stop-color="rgb(128,255,245)"></stop><stop offset="50%" stop-color="rgb(83,128,210)"></stop><stop offset="100%" stop-color="rgb(39,0,175)"></stop></linearGradient><linearGradient id="__lottie_element_31" spreadMethod="pad" gradientUnits="userSpaceOnUse" x1="-249.1020050048828" y1="-0.8209999799728394" x2="247.7239990234375" y2="-0.8209999799728394"><stop offset="0%" stop-color="rgb(205,187,255)"></stop><stop offset="50%" stop-color="rgb(121,94,215)"></stop><stop offset="100%" stop-color="rgb(38,0,175)"></stop></linearGradient><linearGradient id="__lottie_element_34" spreadMethod="pad" gradientUnits="userSpaceOnUse" x1="-320.5740051269531" y1="-0.5690000057220459" x2="319.1549987792969" y2="-0.5690000057220459"><stop offset="0%" stop-color="rgb(255,255,255)"></stop><stop offset="50%" stop-color="rgb(192,255,250)"></stop><stop offset="100%" stop-color="rgb(128,255,245)"></stop></linearGradient><linearGradient id="__lottie_element_40" spreadMethod="pad" gradientUnits="userSpaceOnUse" x1="58.611000061035156" y1="-69.052001953125" x2="-77.09300231933594" y2="66.6520004272461"><stop offset="0%" stop-color="rgb(128,255,245)"></stop><stop offset="50%" stop-color="rgb(83,128,210)"></stop><stop offset="100%" stop-color="rgb(39,0,175)"></stop></linearGradient><linearGradient id="__lottie_element_44" spreadMethod="pad" gradientUnits="userSpaceOnUse" x1="-37.69300079345703" y1="-0.9300000071525574" x2="36.94200134277344" y2="-0.9300000071525574"><stop offset="0%" stop-color="rgb(128,255,245)"></stop><stop offset="50%" stop-color="rgb(83,128,210)"></stop><stop offset="100%" stop-color="rgb(39,0,175)"></stop></linearGradient></defs><g clip-path="url(#__lottie_element_2)"><g transform="matrix(1,0,0,1,804.8236694335938,1122.8292236328125)" opacity="1" style="display: block;"><g opacity="1" transform="matrix(1,0,0,1,0,0)"><path fill="url(#__lottie_element_40)" fill-opacity="1" d=" M106.62200164794922,-21.124000549316406 C106.62200164794922,-21.124000549316406 106.62200164794922,-20.836000442504883 106.62200164794922,-20.836000442504883 C106.62200164794922,-20.836000442504883 53.05500030517578,10.095000267028809 53.05500030517578,10.095000267028809 C40.01499938964844,17.621999740600586 31.98699951171875,31.53700065612793 31.98699951171875,46.59199905395508 C31.98699951171875,46.59199905395508 0,65.05899810791016 0,65.05899810791016 C0,65.05899810791016 -1.034000039100647,65.65599822998047 -1.034000039100647,65.65599822998047 C-20.183000564575195,76.71299743652344 -43.790000915527344,76.71299743652344 -62.93899917602539,65.65599822998047 C-62.93899917602539,65.65599822998047 -95.95999908447266,46.59199905395508 -95.95999908447266,46.59199905395508 C-103.0719985961914,42.48699951171875 -106.62200164794922,35.3120002746582 -106.62200164794922,28.13599967956543 C-106.62200164794922,26.322999954223633 -106.39700317382812,24.5 -105.93900299072266,22.740999221801758 C-105.93900299072266,22.740999221801758 -95.95999908447266,-27.275999069213867 -31.98699951171875,-64.20999908447266 C31.986000061035156,-101.14399719238281 106.62200164794922,-21.124000549316406 106.62200164794922,-21.124000549316406z"></path></g></g><g transform="matrix(1,0,0,1,852.8036499023438,1060.020263671875)" opacity="1" style="display: block;"><g opacity="1" transform="matrix(1,0,0,1,0,0)"><path fill="rgb(122,255,245)" fill-opacity="1" d=" M-8.02299976348877,-6.005000114440918 C-8.02299976348877,-6.005000114440918 -15.994000434875488,-1.4040000438690186 -15.994000434875488,-1.4040000438690186 C-15.994000434875488,-1.4040000438690186 0.5950000286102295,8.173999786376953 0.5950000286102295,8.173999786376953 C0.5950000286102295,8.173999786376953 15.994000434875488,7.861999988555908 15.994000434875488,7.861999988555908 C15.994000434875488,7.861999988555908 15.994000434875488,7.861999988555908 15.994000434875488,7.861999988555908 C15.994000434875488,-4.464000225067139 2.6519999504089355,-12.166999816894531 -8.02299976348877,-6.005000114440918z"></path></g></g><g transform="matrix(1,0,0,1,874.127685546875,1135.707275390625)" opacity="1" style="display: block;"><g opacity="1" transform="matrix(1,0,0,1,0,0)"><path fill="url(#__lottie_element_44)" fill-opacity="1" d=" M37.31800079345703,-33.7140007019043 C37.31800079345703,-33.7140007019043 37.31800079345703,-21.687000274658203 37.31800079345703,-21.687000274658203 C37.31800079345703,-21.218000411987305 37.30699920654297,-20.759000778198242 37.275001525878906,-20.290000915527344 C37.263999938964844,-20.21500015258789 37.26499938964844,-20.152000427246094 37.25400161743164,-20.07699966430664 C37.22200012207031,-19.672000885009766 37.18899917602539,-19.267000198364258 37.13600158691406,-18.871999740600586 C37.13600158691406,-18.85099983215332 37.125999450683594,-18.84000015258789 37.125999450683594,-18.82900047302246 C36.72100067138672,-15.737000465393066 35.632999420166016,-12.720000267028809 33.89500045776367,-10.043999671936035 C32.145999908447266,-7.35699987411499 29.736000061035156,-5.000999927520752 26.655000686645508,-3.2200000286102295 C26.655000686645508,-3.2200000286102295 -37.31800079345703,33.7140007019043 -37.31800079345703,33.7140007019043 C-37.31800079345703,18.659000396728516 -29.288999557495117,4.74399995803833 -16.249000549316406,-2.7829999923706055 C-16.249000549316406,-2.7829999923706055 37.31800079345703,-33.7140007019043 37.31800079345703,-33.7140007019043z"></path></g></g><g transform="matrix(1,0,0,1,874.129638671875,1135.709228515625)" opacity="1" style="display: block;"><g opacity="1" transform="matrix(1,0,0,1,0,0)"><path stroke-linecap="round" stroke-linejoin="round" fill-opacity="0" stroke="rgb(38,0,177)" stroke-opacity="1" stroke-width="1" d=" M37.31800079345703,-33.71200180053711 C37.31800079345703,-33.71200180053711 -16.24799919128418,-2.7860000133514404 -16.24799919128418,-2.7860000133514404 C-29.28700065612793,4.742000102996826 -37.319000244140625,18.655000686645508 -37.31800079345703,33.71200180053711 C-37.31800079345703,33.71200180053711 -37.31800079345703,33.71200180053711 -37.31800079345703,33.71200180053711"></path></g></g><g transform="matrix(1,0,0,1,635.9409790039062,838.9910278320312)" opacity="1" style="display: block;"><g opacity="1" transform="matrix(1,0,0,1,0,0)"><path stroke-linecap="round" stroke-linejoin="round" fill-opacity="0" stroke="rgb(38,0,177)" stroke-opacity="1" stroke-width="3" d=" M207.91000366210938,-24.291000366210938 C207.91000366210938,-24.291000366210938 207.91099548339844,49.57400131225586 111.95899963378906,68.0459976196289 C16.006999969482422,86.51799774169922 -46.94599914550781,-23.697999954223633 -111.95700073242188,-61.231998443603516 C-176.96800231933594,-98.76599884033203 -207.91000366210938,-5.230000019073486 -207.91000366210938,-5.230000019073486"></path></g></g><g transform="matrix(1,0,0,1,413.0679931640625,888.5689697265625)" opacity="1" style="display: block;"><g opacity="1" transform="matrix(1,0,0,1,0,0)"><path fill="url(#__lottie_element_34)" fill-opacity="1" d=" M143.9409942626953,184.67300415039062 C143.9409942626953,184.67300415039062 319.864990234375,83.10399627685547 319.864990234375,83.10399627685547 C319.864990234375,83.10399627685547 -143.94000244140625,-184.67300415039062 -143.94000244140625,-184.67300415039062 C-143.94000244140625,-184.67300415039062 -319.864990234375,-83.10399627685547 -319.864990234375,-83.10399627685547 C-319.864990234375,-83.10399627685547 143.9409942626953,184.67300415039062 143.9409942626953,184.67300415039062z"></path></g></g><g transform="matrix(1,0,0,1,308.59600830078125,957.8209838867188)" opacity="1" style="display: block;"><g opacity="1" transform="matrix(1,0,0,1,0,0)"><path fill="url(#__lottie_element_31)" fill-opacity="1" d=" M-215.39199829101562,-152.35699462890625 C-215.39199829101562,-152.35699462890625 -248.41299438476562,-115.4219970703125 -248.41299438476562,-115.4219970703125 C-248.41299438476562,-115.4219970703125 215.38800048828125,152.35699462890625 215.38800048828125,152.35699462890625 C215.38800048828125,152.35699462890625 248.41299438476562,115.4209976196289 248.41299438476562,115.4209976196289 C248.41299438476562,115.4209976196289 -215.39199829101562,-152.35699462890625 -215.39199829101562,-152.35699462890625z"></path></g></g><g transform="matrix(1,0,0,1,628.4580078125,1040.925048828125)" opacity="1" style="display: block;"><g opacity="1" transform="matrix(1,0,0,1,0,0)"><path fill="url(#__lottie_element_28)" fill-opacity="1" d=" M-104.4739990234375,69.25199890136719 C-104.4739990234375,69.25199890136719 -71.44999694824219,32.316001892089844 -71.44999694824219,32.316001892089844 C-71.44999694824219,32.316001892089844 104.4739990234375,-69.25199890136719 104.4739990234375,-69.25199890136719 C104.4739990234375,-69.25199890136719 104.4739990234375,-50.7859992980957 104.4739990234375,-50.7859992980957 C104.4739990234375,-50.7859992980957 -104.4739990234375,69.25199890136719 -104.4739990234375,69.25199890136719z"></path></g></g><g transform="matrix(1,0,0,1,-1500,-384)" opacity="1" style="display: block;"><g opacity="1" transform="matrix(1,0,0,1,1753.135986328125,1115.593994140625)"><path stroke-linecap="round" stroke-linejoin="round" fill-opacity="0" stroke="rgb(38,0,177)" stroke-opacity="1" stroke-width="1" d=" M-31.98699951171875,0 C-31.98699951171875,0 0,-18.466999053955078 0,-18.466999053955078 C0,-18.466999053955078 31.98699951171875,0 31.98699951171875,0 C31.98699951171875,0 0,18.466999053955078 0,18.466999053955078 C0,18.466999053955078 -31.98699951171875,0 -31.98699951171875,0z"></path></g><g opacity="1" transform="matrix(1,0,0,1,1785.1219482421875,1134.06201171875)"><path stroke-linecap="round" stroke-linejoin="round" fill-opacity="0" stroke="rgb(38,0,177)" stroke-opacity="1" stroke-width="1" d=" M-31.986000061035156,0 C-31.986000061035156,0 0,18.466999053955078 0,18.466999053955078 C0,18.466999053955078 31.986000061035156,0 31.986000061035156,0 C31.986000061035156,0 0,-18.466999053955078 0,-18.466999053955078 C0,-18.466999053955078 -31.986000061035156,0 -31.986000061035156,0z"></path></g><g opacity="1" transform="matrix(1,0,0,1,1769.1290283203125,1161.762939453125)"><path stroke-linecap="round" stroke-linejoin="round" fill-opacity="0" stroke="rgb(38,0,177)" stroke-opacity="1" stroke-width="1" d=" M-31.986000061035156,0 C-31.986000061035156,0 0,18.466999053955078 0,18.466999053955078 C0,18.466999053955078 31.986000061035156,0 31.986000061035156,0 C31.986000061035156,0 0,-18.466999053955078 0,-18.466999053955078 C0,-18.466999053955078 -31.986000061035156,0 -31.986000061035156,0z"></path></g><g opacity="1" transform="matrix(1,0,0,1,1753.135986328125,1189.4639892578125)"><path stroke-linecap="round" stroke-linejoin="round" fill-opacity="0" stroke="rgb(38,0,177)" stroke-opacity="1" stroke-width="1" d=" M-31.986000061035156,0 C-31.986000061035156,0 0,18.466999053955078 0,18.466999053955078 C0,18.466999053955078 31.986000061035156,0 31.986000061035156,0 C31.986000061035156,0 0,-18.466999053955078 0,-18.466999053955078 C0,-18.466999053955078 -31.986000061035156,0 -31.986000061035156,0z"></path></g><g opacity="1" transform="matrix(1,0,0,1,1737.1429443359375,1217.166015625)"><path stroke-linecap="round" stroke-linejoin="round" fill-opacity="0" stroke="rgb(38,0,177)" stroke-opacity="1" stroke-width="1" d=" M-31.986000061035156,0 C-31.986000061035156,0 0,18.466999053955078 0,18.466999053955078 C0,18.466999053955078 31.986000061035156,0 31.986000061035156,0 C31.986000061035156,0 0,-18.466999053955078 0,-18.466999053955078 C0,-18.466999053955078 -31.986000061035156,0 -31.986000061035156,0z"></path></g><g opacity="1" transform="matrix(1,0,0,1,1625.18994140625,1189.4639892578125)"><path stroke-linecap="round" stroke-linejoin="round" fill-opacity="0" stroke="rgb(38,0,177)" stroke-opacity="1" stroke-width="1" d=" M-31.986000061035156,0 C-31.986000061035156,0 0,18.466999053955078 0,18.466999053955078 C0,18.466999053955078 31.986000061035156,0 31.986000061035156,0 C31.986000061035156,0 0,-18.466999053955078 0,-18.466999053955078 C0,-18.466999053955078 -31.986000061035156,0 -31.986000061035156,0z"></path></g><g opacity="1" transform="matrix(1,0,0,1,1657.176025390625,1207.9320068359375)"><path stroke-linecap="round" stroke-linejoin="round" fill-opacity="0" stroke="rgb(38,0,177)" stroke-opacity="1" stroke-width="1" d=" M-31.986000061035156,0 C-31.986000061035156,0 0,18.466999053955078 0,18.466999053955078 C0,18.466999053955078 31.986000061035156,0 31.986000061035156,0 C31.986000061035156,0 0,-18.466999053955078 0,-18.466999053955078 C0,-18.466999053955078 -31.986000061035156,0 -31.986000061035156,0z"></path></g><g opacity="1" transform="matrix(1,0,0,1,1689.1629638671875,1226.3990478515625)"><path stroke-linecap="round" stroke-linejoin="round" fill-opacity="0" stroke="rgb(38,0,177)" stroke-opacity="1" stroke-width="1" d=" M-31.986000061035156,0 C-31.986000061035156,0 0,18.466999053955078 0,18.466999053955078 C0,18.466999053955078 31.986000061035156,0 31.986000061035156,0 C31.986000061035156,0 0,-18.466999053955078 0,-18.466999053955078 C0,-18.466999053955078 -31.986000061035156,0 -31.986000061035156,0z"></path></g><g opacity="1" transform="matrix(1,0,0,1,1721.1490478515625,1244.866943359375)"><path stroke-linecap="round" stroke-linejoin="round" fill-opacity="0" stroke="rgb(38,0,177)" stroke-opacity="1" stroke-width="1" d=" M-31.986000061035156,0 C-31.986000061035156,0 0,18.466999053955078 0,18.466999053955078 C0,18.466999053955078 31.986000061035156,0 31.986000061035156,0 C31.986000061035156,0 0,-18.466999053955078 0,-18.466999053955078 C0,-18.466999053955078 -31.986000061035156,0 -31.986000061035156,0z"></path></g><g opacity="1" transform="matrix(1,0,0,1,1825.10595703125,1304.885986328125)"><path stroke-linecap="round" stroke-linejoin="round" fill-opacity="0" stroke="rgb(38,0,177)" stroke-opacity="1" stroke-width="1" d=" M-103.95700073242188,-41.55099868774414 C-103.95700073242188,-41.55099868774414 71.97000122070312,60.01900100708008 71.97000122070312,60.01900100708008 C71.97000122070312,60.01900100708008 103.95700073242188,41.55099868774414 103.95700073242188,41.55099868774414 C103.95700073242188,41.55099868774414 -71.97100067138672,-60.01900100708008 -71.97100067138672,-60.01900100708008 C-71.97100067138672,-60.01900100708008 -103.95700073242188,-41.55099868774414 -103.95700073242188,-41.55099868774414z"></path></g><g opacity="1" transform="matrix(1,0,0,1,1769.1290283203125,1235.633056640625)"><path stroke-linecap="round" stroke-linejoin="round" fill-opacity="0" stroke="rgb(38,0,177)" stroke-opacity="1" stroke-width="1" d=" M-31.986000061035156,0 C-31.986000061035156,0 0,18.466999053955078 0,18.466999053955078 C0,18.466999053955078 31.986000061035156,0 31.986000061035156,0 C31.986000061035156,0 0,-18.466999053955078 0,-18.466999053955078 C0,-18.466999053955078 -31.986000061035156,0 -31.986000061035156,0z"></path></g><g opacity="1" transform="matrix(1,0,0,1,1801.114990234375,1254.0999755859375)"><path stroke-linecap="round" stroke-linejoin="round" fill-opacity="0" stroke="rgb(38,0,177)" stroke-opacity="1" stroke-width="1" d=" M-31.986000061035156,0 C-31.986000061035156,0 0,18.466999053955078 0,18.466999053955078 C0,18.466999053955078 31.986000061035156,0 31.986000061035156,0 C31.986000061035156,0 0,-18.466999053955078 0,-18.466999053955078 C0,-18.466999053955078 -31.986000061035156,0 -31.986000061035156,0z"></path></g><g opacity="1" transform="matrix(1,0,0,1,1833.10205078125,1272.5679931640625)"><path stroke-linecap="round" stroke-linejoin="round" fill-opacity="0" stroke="rgb(38,0,177)" stroke-opacity="1" stroke-width="1" d=" M-31.986000061035156,0 C-31.986000061035156,0 0,18.466999053955078 0,18.466999053955078 C0,18.466999053955078 31.986000061035156,0 31.986000061035156,0 C31.986000061035156,0 0,-18.466999053955078 0,-18.466999053955078 C0,-18.466999053955078 -31.986000061035156,0 -31.986000061035156,0z"></path></g><g opacity="1" transform="matrix(1,0,0,1,1865.0880126953125,1291.0350341796875)"><path stroke-linecap="round" stroke-linejoin="round" fill-opacity="0" stroke="rgb(38,0,177)" stroke-opacity="1" stroke-width="1" d=" M-31.986000061035156,0 C-31.986000061035156,0 0,18.466999053955078 0,18.466999053955078 C0,18.466999053955078 31.986000061035156,0 31.986000061035156,0 C31.986000061035156,0 0,-18.466999053955078 0,-18.466999053955078 C0,-18.466999053955078 -31.986000061035156,0 -31.986000061035156,0z"></path></g><g opacity="1" transform="matrix(1,0,0,1,1897.074951171875,1309.5030517578125)"><path stroke-linecap="round" stroke-linejoin="round" fill-opacity="0" stroke="rgb(38,0,177)" stroke-opacity="1" stroke-width="1" d=" M-31.986000061035156,0 C-31.986000061035156,0 0,18.466999053955078 0,18.466999053955078 C0,18.466999053955078 31.986000061035156,0 31.986000061035156,0 C31.986000061035156,0 0,-18.466999053955078 0,-18.466999053955078 C0,-18.466999053955078 -31.986000061035156,0 -31.986000061035156,0z"></path></g><g opacity="1" transform="matrix(1,0,0,1,1929.06103515625,1327.969970703125)"><path stroke-linecap="round" stroke-linejoin="round" fill-opacity="0" stroke="rgb(38,0,177)" stroke-opacity="1" stroke-width="1" d=" M-31.986000061035156,0 C-31.986000061035156,0 0,18.466999053955078 0,18.466999053955078 C0,18.466999053955078 31.986000061035156,0 31.986000061035156,0 C31.986000061035156,0 0,-18.466999053955078 0,-18.466999053955078 C0,-18.466999053955078 -31.986000061035156,0 -31.986000061035156,0z"></path></g><g opacity="1" transform="matrix(1,0,0,1,1961.0479736328125,1346.43798828125)"><path stroke-linecap="round" stroke-linejoin="round" fill-opacity="0" stroke="rgb(38,0,177)" stroke-opacity="1" stroke-width="1" d=" M-31.986000061035156,0 C-31.986000061035156,0 0,18.466999053955078 0,18.466999053955078 C0,18.466999053955078 31.986000061035156,0 31.986000061035156,0 C31.986000061035156,0 0,-18.466999053955078 0,-18.466999053955078 C0,-18.466999053955078 -31.986000061035156,0 -31.986000061035156,0z"></path></g><g opacity="1" transform="matrix(1,0,0,1,1929.06298828125,1364.905029296875)"><path stroke-linecap="round" stroke-linejoin="round" fill-opacity="0" stroke="rgb(38,0,177)" stroke-opacity="1" stroke-width="1" d=" M-31.986000061035156,0 C-31.986000061035156,0 0,18.466999053955078 0,18.466999053955078 C0,18.466999053955078 31.986000061035156,0 31.986000061035156,0 C31.986000061035156,0 0,-18.466999053955078 0,-18.466999053955078 C0,-18.466999053955078 -31.986000061035156,0 -31.986000061035156,0z"></path></g><g opacity="1" transform="matrix(1,0,0,1,1961.0489501953125,1383.3719482421875)"><path stroke-linecap="round" stroke-linejoin="round" fill-opacity="0" stroke="rgb(38,0,177)" stroke-opacity="1" stroke-width="1" d=" M-31.986000061035156,0 C-31.986000061035156,0 0,18.466999053955078 0,18.466999053955078 C0,18.466999053955078 31.986000061035156,0 31.986000061035156,0 C31.986000061035156,0 0,-18.466999053955078 0,-18.466999053955078 C0,-18.466999053955078 -31.986000061035156,0 -31.986000061035156,0z"></path></g><g opacity="1" transform="matrix(1,0,0,1,1985.0389404296875,1406.4560546875)"><path stroke-linecap="round" stroke-linejoin="round" fill-opacity="0" stroke="rgb(38,0,177)" stroke-opacity="1" stroke-width="1" d=" M-23.989999771118164,-4.617000102996826 C-23.989999771118164,-4.617000102996826 7.995999813079834,13.850000381469727 7.995999813079834,13.850000381469727 C7.995999813079834,13.850000381469727 23.989999771118164,4.617000102996826 23.989999771118164,4.617000102996826 C23.989999771118164,4.617000102996826 -7.997000217437744,-13.850000381469727 -7.997000217437744,-13.850000381469727 C-7.997000217437744,-13.850000381469727 -23.989999771118164,-4.617000102996826 -23.989999771118164,-4.617000102996826z"></path></g><g opacity="1" transform="matrix(1,0,0,1,2017.0250244140625,1424.9239501953125)"><path stroke-linecap="round" stroke-linejoin="round" fill-opacity="0" stroke="rgb(38,0,177)" stroke-opacity="1" stroke-width="1" d=" M-23.98900032043457,-4.617000102996826 C-23.98900032043457,-4.617000102996826 7.997000217437744,13.850000381469727 7.997000217437744,13.850000381469727 C7.997000217437744,13.850000381469727 23.98900032043457,4.617000102996826 23.98900032043457,4.617000102996826 C23.98900032043457,4.617000102996826 -7.997000217437744,-13.850000381469727 -7.997000217437744,-13.850000381469727 C-7.997000217437744,-13.850000381469727 -23.98900032043457,-4.617000102996826 -23.98900032043457,-4.617000102996826z"></path></g><g opacity="1" transform="matrix(1,0,0,1,2033.0169677734375,1415.68994140625)"><path stroke-linecap="round" stroke-linejoin="round" fill-opacity="0" stroke="rgb(38,0,177)" stroke-opacity="1" stroke-width="1" d=" M-23.98900032043457,-4.617000102996826 C-23.98900032043457,-4.617000102996826 7.997000217437744,13.850000381469727 7.997000217437744,13.850000381469727 C7.997000217437744,13.850000381469727 23.98900032043457,4.617000102996826 23.98900032043457,4.617000102996826 C23.98900032043457,4.617000102996826 -7.997000217437744,-13.850000381469727 -7.997000217437744,-13.850000381469727 C-7.997000217437744,-13.850000381469727 -23.98900032043457,-4.617000102996826 -23.98900032043457,-4.617000102996826z"></path></g><g opacity="1" transform="matrix(1,0,0,1,2049.010986328125,1443.3919677734375)"><path stroke-linecap="round" stroke-linejoin="round" fill-opacity="0" stroke="rgb(38,0,177)" stroke-opacity="1" stroke-width="1" d=" M-23.98900032043457,-4.618000030517578 C-23.98900032043457,-4.618000030517578 7.997000217437744,13.848999977111816 7.997000217437744,13.848999977111816 C7.997000217437744,13.848999977111816 23.98900032043457,4.618000030517578 23.98900032043457,4.618000030517578 C23.98900032043457,4.618000030517578 -7.997000217437744,-13.848999977111816 -7.997000217437744,-13.848999977111816 C-7.997000217437744,-13.848999977111816 -23.98900032043457,-4.618000030517578 -23.98900032043457,-4.618000030517578z"></path></g><g opacity="1" transform="matrix(1,0,0,1,1777.125,1101.7449951171875)"><path stroke-linecap="round" stroke-linejoin="round" fill-opacity="0" stroke="rgb(38,0,177)" stroke-opacity="1" stroke-width="1" d=" M-23.98900032043457,-4.618000030517578 C-23.98900032043457,-4.618000030517578 7.997000217437744,13.848999977111816 7.997000217437744,13.848999977111816 C7.997000217437744,13.848999977111816 23.98900032043457,4.618000030517578 23.98900032043457,4.618000030517578 C23.98900032043457,4.618000030517578 -7.997000217437744,-13.848999977111816 -7.997000217437744,-13.848999977111816 C-7.997000217437744,-13.848999977111816 -23.98900032043457,-4.618000030517578 -23.98900032043457,-4.618000030517578z"></path></g><g opacity="1" transform="matrix(1,0,0,1,1809.112060546875,1120.2120361328125)"><path stroke-linecap="round" stroke-linejoin="round" fill-opacity="0" stroke="rgb(38,0,177)" stroke-opacity="1" stroke-width="1" d=" M-23.98900032043457,-4.618000030517578 C-23.98900032043457,-4.618000030517578 7.997000217437744,13.848999977111816 7.997000217437744,13.848999977111816 C7.997000217437744,13.848999977111816 23.98900032043457,4.618000030517578 23.98900032043457,4.618000030517578 C23.98900032043457,4.618000030517578 -7.997000217437744,-13.848999977111816 -7.997000217437744,-13.848999977111816 C-7.997000217437744,-13.848999977111816 -23.98900032043457,-4.618000030517578 -23.98900032043457,-4.618000030517578z"></path></g><g opacity="1" transform="matrix(1,0,0,1,1841.0989990234375,1138.6800537109375)"><path stroke-linecap="round" stroke-linejoin="round" fill-opacity="0" stroke="rgb(38,0,177)" stroke-opacity="1" stroke-width="1" d=" M-23.98900032043457,-4.618000030517578 C-23.98900032043457,-4.618000030517578 7.997000217437744,13.848999977111816 7.997000217437744,13.848999977111816 C7.997000217437744,13.848999977111816 23.98900032043457,4.618000030517578 23.98900032043457,4.618000030517578 C23.98900032043457,4.618000030517578 -7.997000217437744,-13.848999977111816 -7.997000217437744,-13.848999977111816 C-7.997000217437744,-13.848999977111816 -23.98900032043457,-4.618000030517578 -23.98900032043457,-4.618000030517578z"></path></g><g opacity="1" transform="matrix(1,0,0,1,1873.0849609375,1157.14697265625)"><path stroke-linecap="round" stroke-linejoin="round" fill-opacity="0" stroke="rgb(38,0,177)" stroke-opacity="1" stroke-width="1" d=" M-23.98900032043457,-4.618000030517578 C-23.98900032043457,-4.618000030517578 7.997000217437744,13.848999977111816 7.997000217437744,13.848999977111816 C7.997000217437744,13.848999977111816 23.98900032043457,4.618000030517578 23.98900032043457,4.618000030517578 C23.98900032043457,4.618000030517578 -7.997000217437744,-13.848999977111816 -7.997000217437744,-13.848999977111816 C-7.997000217437744,-13.848999977111816 -23.98900032043457,-4.618000030517578 -23.98900032043457,-4.618000030517578z"></path></g><g opacity="1" transform="matrix(1,0,0,1,1905.072021484375,1175.614990234375)"><path stroke-linecap="round" stroke-linejoin="round" fill-opacity="0" stroke="rgb(38,0,177)" stroke-opacity="1" stroke-width="1" d=" M-23.98900032043457,-4.618000030517578 C-23.98900032043457,-4.618000030517578 7.997000217437744,13.848999977111816 7.997000217437744,13.848999977111816 C7.997000217437744,13.848999977111816 23.98900032043457,4.618000030517578 23.98900032043457,4.618000030517578 C23.98900032043457,4.618000030517578 -7.997000217437744,-13.848999977111816 -7.997000217437744,-13.848999977111816 C-7.997000217437744,-13.848999977111816 -23.98900032043457,-4.618000030517578 -23.98900032043457,-4.618000030517578z"></path></g><g opacity="1" transform="matrix(1,0,0,1,1937.0589599609375,1194.08203125)"><path stroke-linecap="round" stroke-linejoin="round" fill-opacity="0" stroke="rgb(38,0,177)" stroke-opacity="1" stroke-width="1" d=" M-23.98900032043457,-4.618000030517578 C-23.98900032043457,-4.618000030517578 7.997000217437744,13.848999977111816 7.997000217437744,13.848999977111816 C7.997000217437744,13.848999977111816 23.98900032043457,4.618000030517578 23.98900032043457,4.618000030517578 C23.98900032043457,4.618000030517578 -7.997000217437744,-13.848999977111816 -7.997000217437744,-13.848999977111816 C-7.997000217437744,-13.848999977111816 -23.98900032043457,-4.618000030517578 -23.98900032043457,-4.618000030517578z"></path></g><g opacity="1" transform="matrix(1,0,0,1,1969.0450439453125,1212.5489501953125)"><path stroke-linecap="round" stroke-linejoin="round" fill-opacity="0" stroke="rgb(38,0,177)" stroke-opacity="1" stroke-width="1" d=" M-23.98900032043457,-4.618000030517578 C-23.98900032043457,-4.618000030517578 7.997000217437744,13.848999977111816 7.997000217437744,13.848999977111816 C7.997000217437744,13.848999977111816 23.98900032043457,4.618000030517578 23.98900032043457,4.618000030517578 C23.98900032043457,4.618000030517578 -7.997000217437744,-13.848999977111816 -7.997000217437744,-13.848999977111816 C-7.997000217437744,-13.848999977111816 -23.98900032043457,-4.618000030517578 -23.98900032043457,-4.618000030517578z"></path></g><g opacity="1" transform="matrix(1,0,0,1,2001.031982421875,1231.0169677734375)"><path stroke-linecap="round" stroke-linejoin="round" fill-opacity="0" stroke="rgb(38,0,177)" stroke-opacity="1" stroke-width="1" d=" M-23.98900032043457,-4.618000030517578 C-23.98900032043457,-4.618000030517578 7.997000217437744,13.848999977111816 7.997000217437744,13.848999977111816 C7.997000217437744,13.848999977111816 23.98900032043457,4.618000030517578 23.98900032043457,4.618000030517578 C23.98900032043457,4.618000030517578 -7.997000217437744,-13.848999977111816 -7.997000217437744,-13.848999977111816 C-7.997000217437744,-13.848999977111816 -23.98900032043457,-4.618000030517578 -23.98900032043457,-4.618000030517578z"></path></g><g opacity="1" transform="matrix(1,0,0,1,2033.01904296875,1249.4840087890625)"><path stroke-linecap="round" stroke-linejoin="round" fill-opacity="0" stroke="rgb(38,0,177)" stroke-opacity="1" stroke-width="1" d=" M-23.98900032043457,-4.618000030517578 C-23.98900032043457,-4.618000030517578 7.997000217437744,13.848999977111816 7.997000217437744,13.848999977111816 C7.997000217437744,13.848999977111816 23.98900032043457,4.618000030517578 23.98900032043457,4.618000030517578 C23.98900032043457,4.618000030517578 -7.997000217437744,-13.848999977111816 -7.997000217437744,-13.848999977111816 C-7.997000217437744,-13.848999977111816 -23.98900032043457,-4.618000030517578 -23.98900032043457,-4.618000030517578z"></path></g><g opacity="1" transform="matrix(1,0,0,1,2065.0048828125,1267.9520263671875)"><path stroke-linecap="round" stroke-linejoin="round" fill-opacity="0" stroke="rgb(38,0,177)" stroke-opacity="1" stroke-width="1" d=" M-23.98900032043457,-4.618000030517578 C-23.98900032043457,-4.618000030517578 7.997000217437744,13.848999977111816 7.997000217437744,13.848999977111816 C7.997000217437744,13.848999977111816 23.98900032043457,4.618000030517578 23.98900032043457,4.618000030517578 C23.98900032043457,4.618000030517578 -7.997000217437744,-13.848999977111816 -7.997000217437744,-13.848999977111816 C-7.997000217437744,-13.848999977111816 -23.98900032043457,-4.618000030517578 -23.98900032043457,-4.618000030517578z"></path></g><g opacity="1" transform="matrix(1,0,0,1,2096.991943359375,1286.4189453125)"><path stroke-linecap="round" stroke-linejoin="round" fill-opacity="0" stroke="rgb(38,0,177)" stroke-opacity="1" stroke-width="1" d=" M-23.98900032043457,-4.618000030517578 C-23.98900032043457,-4.618000030517578 7.997000217437744,13.848999977111816 7.997000217437744,13.848999977111816 C7.997000217437744,13.848999977111816 23.98900032043457,4.618000030517578 23.98900032043457,4.618000030517578 C23.98900032043457,4.618000030517578 -7.997000217437744,-13.848999977111816 -7.997000217437744,-13.848999977111816 C-7.997000217437744,-13.848999977111816 -23.98900032043457,-4.618000030517578 -23.98900032043457,-4.618000030517578z"></path></g><g opacity="1" transform="matrix(1,0,0,1,2128.97900390625,1304.886962890625)"><path stroke-linecap="round" stroke-linejoin="round" fill-opacity="0" stroke="rgb(38,0,177)" stroke-opacity="1" stroke-width="1" d=" M-23.98900032043457,-4.618000030517578 C-23.98900032043457,-4.618000030517578 7.997000217437744,13.848999977111816 7.997000217437744,13.848999977111816 C7.997000217437744,13.848999977111816 23.98900032043457,4.618000030517578 23.98900032043457,4.618000030517578 C23.98900032043457,4.618000030517578 -7.997000217437744,-13.848999977111816 -7.997000217437744,-13.848999977111816 C-7.997000217437744,-13.848999977111816 -23.98900032043457,-4.618000030517578 -23.98900032043457,-4.618000030517578z"></path></g><g opacity="1" transform="matrix(1,0,0,1,2160.966064453125,1323.35400390625)"><path stroke-linecap="round" stroke-linejoin="round" fill-opacity="0" stroke="rgb(38,0,177)" stroke-opacity="1" stroke-width="1" d=" M-23.98900032043457,-4.618000030517578 C-23.98900032043457,-4.618000030517578 7.997000217437744,13.848999977111816 7.997000217437744,13.848999977111816 C7.997000217437744,13.848999977111816 23.98900032043457,4.618000030517578 23.98900032043457,4.618000030517578 C23.98900032043457,4.618000030517578 -7.997000217437744,-13.848999977111816 -7.997000217437744,-13.848999977111816 C-7.997000217437744,-13.848999977111816 -23.98900032043457,-4.618000030517578 -23.98900032043457,-4.618000030517578z"></path></g><g opacity="1" transform="matrix(1,0,0,1,2200.947998046875,1346.43798828125)"><path stroke-linecap="round" stroke-linejoin="round" fill-opacity="0" stroke="rgb(38,0,177)" stroke-opacity="1" stroke-width="1" d=" M-31.985000610351562,-9.234999656677246 C-31.985000610351562,-9.234999656677246 15.993000030517578,18.465999603271484 15.993000030517578,18.465999603271484 C15.993000030517578,18.465999603271484 31.985000610351562,9.234999656677246 31.985000610351562,9.234999656677246 C31.985000610351562,9.234999656677246 -15.993000030517578,-18.465999603271484 -15.993000030517578,-18.465999603271484 C-15.993000030517578,-18.465999603271484 -31.985000610351562,-9.234999656677246 -31.985000610351562,-9.234999656677246z"></path></g><g opacity="1" transform="matrix(1,0,0,1,1993.0340576171875,1364.905029296875)"><path stroke-linecap="round" stroke-linejoin="round" fill-opacity="0" stroke="rgb(38,0,177)" stroke-opacity="1" stroke-width="1" d=" M-31.986000061035156,0 C-31.986000061035156,0 0,18.466999053955078 0,18.466999053955078 C0,18.466999053955078 31.986000061035156,0 31.986000061035156,0 C31.986000061035156,0 0,-18.466999053955078 0,-18.466999053955078 C0,-18.466999053955078 -31.986000061035156,0 -31.986000061035156,0z"></path></g><g opacity="1" transform="matrix(1,0,0,1,2025.02099609375,1383.3719482421875)"><path stroke-linecap="round" stroke-linejoin="round" fill-opacity="0" stroke="rgb(38,0,177)" stroke-opacity="1" stroke-width="1" d=" M-31.986000061035156,0 C-31.986000061035156,0 0,18.466999053955078 0,18.466999053955078 C0,18.466999053955078 31.986000061035156,0 31.986000061035156,0 C31.986000061035156,0 0,-18.466999053955078 0,-18.466999053955078 C0,-18.466999053955078 -31.986000061035156,0 -31.986000061035156,0z"></path></g><g opacity="1" transform="matrix(1,0,0,1,2073.0009765625,1411.073974609375)"><path stroke-linecap="round" stroke-linejoin="round" fill-opacity="0" stroke="rgb(38,0,177)" stroke-opacity="1" stroke-width="1" d=" M-47.97999954223633,-9.234000205993652 C-47.97999954223633,-9.234000205993652 15.994000434875488,27.70199966430664 15.994000434875488,27.70199966430664 C15.994000434875488,27.70199966430664 47.97999954223633,9.234000205993652 47.97999954223633,9.234000205993652 C47.97999954223633,9.234000205993652 -15.994000434875488,-27.70199966430664 -15.994000434875488,-27.70199966430664 C-15.994000434875488,-27.70199966430664 -47.97999954223633,-9.234000205993652 -47.97999954223633,-9.234000205993652z"></path></g><g opacity="1" transform="matrix(1,0,0,1,1785.1219482421875,1207.9320068359375)"><path stroke-linecap="round" stroke-linejoin="round" fill-opacity="0" stroke="rgb(38,0,177)" stroke-opacity="1" stroke-width="1" d=" M-31.986000061035156,0 C-31.986000061035156,0 0,18.466999053955078 0,18.466999053955078 C0,18.466999053955078 31.986000061035156,0 31.986000061035156,0 C31.986000061035156,0 0,-18.466999053955078 0,-18.466999053955078 C0,-18.466999053955078 -31.986000061035156,0 -31.986000061035156,0z"></path></g><g opacity="1" transform="matrix(1,0,0,1,1817.1090087890625,1226.3990478515625)"><path stroke-linecap="round" stroke-linejoin="round" fill-opacity="0" stroke="rgb(38,0,177)" stroke-opacity="1" stroke-width="1" d=" M-31.986000061035156,0 C-31.986000061035156,0 0,18.466999053955078 0,18.466999053955078 C0,18.466999053955078 31.986000061035156,0 31.986000061035156,0 C31.986000061035156,0 0,-18.466999053955078 0,-18.466999053955078 C0,-18.466999053955078 -31.986000061035156,0 -31.986000061035156,0z"></path></g><g opacity="1" transform="matrix(1,0,0,1,1849.095947265625,1244.866943359375)"><path stroke-linecap="round" stroke-linejoin="round" fill-opacity="0" stroke="rgb(38,0,177)" stroke-opacity="1" stroke-width="1" d=" M-31.986000061035156,0 C-31.986000061035156,0 0,18.466999053955078 0,18.466999053955078 C0,18.466999053955078 31.986000061035156,0 31.986000061035156,0 C31.986000061035156,0 0,-18.466999053955078 0,-18.466999053955078 C0,-18.466999053955078 -31.986000061035156,0 -31.986000061035156,0z"></path></g><g opacity="1" transform="matrix(1,0,0,1,1881.0830078125,1263.333984375)"><path stroke-linecap="round" stroke-linejoin="round" fill-opacity="0" stroke="rgb(38,0,177)" stroke-opacity="1" stroke-width="1" d=" M-31.986000061035156,0 C-31.986000061035156,0 0,18.466999053955078 0,18.466999053955078 C0,18.466999053955078 31.986000061035156,0 31.986000061035156,0 C31.986000061035156,0 0,-18.466999053955078 0,-18.466999053955078 C0,-18.466999053955078 -31.986000061035156,0 -31.986000061035156,0z"></path></g><g opacity="1" transform="matrix(1,0,0,1,1913.0689697265625,1281.802001953125)"><path stroke-linecap="round" stroke-linejoin="round" fill-opacity="0" stroke="rgb(38,0,177)" stroke-opacity="1" stroke-width="1" d=" M-31.986000061035156,0 C-31.986000061035156,0 0,18.466999053955078 0,18.466999053955078 C0,18.466999053955078 31.986000061035156,0 31.986000061035156,0 C31.986000061035156,0 0,-18.466999053955078 0,-18.466999053955078 C0,-18.466999053955078 -31.986000061035156,0 -31.986000061035156,0z"></path></g><g opacity="1" transform="matrix(1,0,0,1,1945.0560302734375,1300.26904296875)"><path stroke-linecap="round" stroke-linejoin="round" fill-opacity="0" stroke="rgb(38,0,177)" stroke-opacity="1" stroke-width="1" d=" M-31.986000061035156,0 C-31.986000061035156,0 0,18.466999053955078 0,18.466999053955078 C0,18.466999053955078 31.986000061035156,0 31.986000061035156,0 C31.986000061035156,0 0,-18.466999053955078 0,-18.466999053955078 C0,-18.466999053955078 -31.986000061035156,0 -31.986000061035156,0z"></path></g><g opacity="1" transform="matrix(1,0,0,1,1977.04296875,1318.737060546875)"><path stroke-linecap="round" stroke-linejoin="round" fill-opacity="0" stroke="rgb(38,0,177)" stroke-opacity="1" stroke-width="1" d=" M-31.986000061035156,0 C-31.986000061035156,0 0,18.466999053955078 0,18.466999053955078 C0,18.466999053955078 31.986000061035156,0 31.986000061035156,0 C31.986000061035156,0 0,-18.466999053955078 0,-18.466999053955078 C0,-18.466999053955078 -31.986000061035156,0 -31.986000061035156,0z"></path></g><g opacity="1" transform="matrix(1,0,0,1,2009.029052734375,1337.2039794921875)"><path stroke-linecap="round" stroke-linejoin="round" fill-opacity="0" stroke="rgb(38,0,177)" stroke-opacity="1" stroke-width="1" d=" M-31.986000061035156,0 C-31.986000061035156,0 0,18.466999053955078 0,18.466999053955078 C0,18.466999053955078 31.986000061035156,0 31.986000061035156,0 C31.986000061035156,0 0,-18.466999053955078 0,-18.466999053955078 C0,-18.466999053955078 -31.986000061035156,0 -31.986000061035156,0z"></path></g><g opacity="1" transform="matrix(1,0,0,1,2041.0159912109375,1355.6719970703125)"><path stroke-linecap="round" stroke-linejoin="round" fill-opacity="0" stroke="rgb(38,0,177)" stroke-opacity="1" stroke-width="1" d=" M-31.986000061035156,0 C-31.986000061035156,0 0,18.466999053955078 0,18.466999053955078 C0,18.466999053955078 31.986000061035156,0 31.986000061035156,0 C31.986000061035156,0 0,-18.466999053955078 0,-18.466999053955078 C0,-18.466999053955078 -31.986000061035156,0 -31.986000061035156,0z"></path></g><g opacity="1" transform="matrix(1,0,0,1,2073.0029296875,1374.1390380859375)"><path stroke-linecap="round" stroke-linejoin="round" fill-opacity="0" stroke="rgb(38,0,177)" stroke-opacity="1" stroke-width="1" d=" M-31.986000061035156,0 C-31.986000061035156,0 0,18.466999053955078 0,18.466999053955078 C0,18.466999053955078 31.986000061035156,0 31.986000061035156,0 C31.986000061035156,0 0,-18.466999053955078 0,-18.466999053955078 C0,-18.466999053955078 -31.986000061035156,0 -31.986000061035156,0z"></path></g><g opacity="1" transform="matrix(1,0,0,1,2096.991943359375,1387.989990234375)"><path stroke-linecap="round" stroke-linejoin="round" fill-opacity="0" stroke="rgb(38,0,177)" stroke-opacity="1" stroke-width="1" d=" M-55.974998474121094,-13.85099983215332 C-55.974998474121094,-13.85099983215332 23.98900032043457,32.31800079345703 23.98900032043457,32.31800079345703 C23.98900032043457,32.31800079345703 55.974998474121094,13.85099983215332 55.974998474121094,13.85099983215332 C55.974998474121094,13.85099983215332 -23.98900032043457,-32.31800079345703 -23.98900032043457,-32.31800079345703"></path></g><g opacity="1" transform="matrix(1,0,0,1,1801.114990234375,1180.22998046875)"><path stroke-linecap="round" stroke-linejoin="round" fill-opacity="0" stroke="rgb(38,0,177)" stroke-opacity="1" stroke-width="1" d=" M-31.986000061035156,0 C-31.986000061035156,0 0,18.466999053955078 0,18.466999053955078 C0,18.466999053955078 31.986000061035156,0 31.986000061035156,0 C31.986000061035156,0 0,-18.466999053955078 0,-18.466999053955078 C0,-18.466999053955078 -31.986000061035156,0 -31.986000061035156,0z"></path></g><g opacity="1" transform="matrix(1,0,0,1,1833.10205078125,1198.697998046875)"><path stroke-linecap="round" stroke-linejoin="round" fill-opacity="0" stroke="rgb(38,0,177)" stroke-opacity="1" stroke-width="1" d=" M-31.986000061035156,0 C-31.986000061035156,0 0,18.466999053955078 0,18.466999053955078 C0,18.466999053955078 31.986000061035156,0 31.986000061035156,0 C31.986000061035156,0 0,-18.466999053955078 0,-18.466999053955078 C0,-18.466999053955078 -31.986000061035156,0 -31.986000061035156,0z"></path></g><g opacity="1" transform="matrix(1,0,0,1,1865.0880126953125,1217.1650390625)"><path stroke-linecap="round" stroke-linejoin="round" fill-opacity="0" stroke="rgb(38,0,177)" stroke-opacity="1" stroke-width="1" d=" M-31.986000061035156,0 C-31.986000061035156,0 0,18.466999053955078 0,18.466999053955078 C0,18.466999053955078 31.986000061035156,0 31.986000061035156,0 C31.986000061035156,0 0,-18.466999053955078 0,-18.466999053955078 C0,-18.466999053955078 -31.986000061035156,0 -31.986000061035156,0z"></path></g><g opacity="1" transform="matrix(1,0,0,1,1897.074951171875,1235.633056640625)"><path stroke-linecap="round" stroke-linejoin="round" fill-opacity="0" stroke="rgb(38,0,177)" stroke-opacity="1" stroke-width="1" d=" M-31.986000061035156,0 C-31.986000061035156,0 0,18.466999053955078 0,18.466999053955078 C0,18.466999053955078 31.986000061035156,0 31.986000061035156,0 C31.986000061035156,0 0,-18.466999053955078 0,-18.466999053955078 C0,-18.466999053955078 -31.986000061035156,0 -31.986000061035156,0z"></path></g><g opacity="1" transform="matrix(1,0,0,1,1929.06103515625,1254.0999755859375)"><path stroke-linecap="round" stroke-linejoin="round" fill-opacity="0" stroke="rgb(38,0,177)" stroke-opacity="1" stroke-width="1" d=" M-31.986000061035156,0 C-31.986000061035156,0 0,18.466999053955078 0,18.466999053955078 C0,18.466999053955078 31.986000061035156,0 31.986000061035156,0 C31.986000061035156,0 0,-18.466999053955078 0,-18.466999053955078 C0,-18.466999053955078 -31.986000061035156,0 -31.986000061035156,0z"></path></g><g opacity="1" transform="matrix(1,0,0,1,1961.0479736328125,1272.5679931640625)"><path stroke-linecap="round" stroke-linejoin="round" fill-opacity="0" stroke="rgb(38,0,177)" stroke-opacity="1" stroke-width="1" d=" M-31.986000061035156,0 C-31.986000061035156,0 0,18.466999053955078 0,18.466999053955078 C0,18.466999053955078 31.986000061035156,0 31.986000061035156,0 C31.986000061035156,0 0,-18.466999053955078 0,-18.466999053955078 C0,-18.466999053955078 -31.986000061035156,0 -31.986000061035156,0z"></path></g><g opacity="1" transform="matrix(1,0,0,1,1993.0340576171875,1291.0350341796875)"><path stroke-linecap="round" stroke-linejoin="round" fill-opacity="0" stroke="rgb(38,0,177)" stroke-opacity="1" stroke-width="1" d=" M-31.986000061035156,0 C-31.986000061035156,0 0,18.466999053955078 0,18.466999053955078 C0,18.466999053955078 31.986000061035156,0 31.986000061035156,0 C31.986000061035156,0 0,-18.466999053955078 0,-18.466999053955078 C0,-18.466999053955078 -31.986000061035156,0 -31.986000061035156,0z"></path></g><g opacity="1" transform="matrix(1,0,0,1,2025.02099609375,1309.501953125)"><path stroke-linecap="round" stroke-linejoin="round" fill-opacity="0" stroke="rgb(38,0,177)" stroke-opacity="1" stroke-width="1" d=" M-31.986000061035156,0 C-31.986000061035156,0 0,18.466999053955078 0,18.466999053955078 C0,18.466999053955078 31.986000061035156,0 31.986000061035156,0 C31.986000061035156,0 0,-18.466999053955078 0,-18.466999053955078 C0,-18.466999053955078 -31.986000061035156,0 -31.986000061035156,0z"></path></g><g opacity="1" transform="matrix(1,0,0,1,2057.007080078125,1327.969970703125)"><path stroke-linecap="round" stroke-linejoin="round" fill-opacity="0" stroke="rgb(38,0,177)" stroke-opacity="1" stroke-width="1" d=" M-31.986000061035156,0 C-31.986000061035156,0 0,18.466999053955078 0,18.466999053955078 C0,18.466999053955078 31.986000061035156,0 31.986000061035156,0 C31.986000061035156,0 0,-18.466999053955078 0,-18.466999053955078 C0,-18.466999053955078 -31.986000061035156,0 -31.986000061035156,0z"></path></g><g opacity="1" transform="matrix(1,0,0,1,2088.992919921875,1346.43701171875)"><path stroke-linecap="round" stroke-linejoin="round" fill-opacity="0" stroke="rgb(38,0,177)" stroke-opacity="1" stroke-width="1" d=" M-31.986000061035156,0 C-31.986000061035156,0 0,18.466999053955078 0,18.466999053955078 C0,18.466999053955078 31.986000061035156,0 31.986000061035156,0 C31.986000061035156,0 0,-18.466999053955078 0,-18.466999053955078 C0,-18.466999053955078 -31.986000061035156,0 -31.986000061035156,0z"></path></g><g opacity="1" transform="matrix(1,0,0,1,2120.97998046875,1364.905029296875)"><path stroke-linecap="round" stroke-linejoin="round" fill-opacity="0" stroke="rgb(38,0,177)" stroke-opacity="1" stroke-width="1" d=" M-31.986000061035156,0 C-31.986000061035156,0 0,18.466999053955078 0,18.466999053955078 C0,18.466999053955078 31.986000061035156,0 31.986000061035156,0 C31.986000061035156,0 0,-18.466999053955078 0,-18.466999053955078 C0,-18.466999053955078 -31.986000061035156,0 -31.986000061035156,0z"></path></g><g opacity="1" transform="matrix(1,0,0,1,2152.966064453125,1383.3719482421875)"><path stroke-linecap="round" stroke-linejoin="round" fill-opacity="0" stroke="rgb(38,0,177)" stroke-opacity="1" stroke-width="1" d=" M-31.986000061035156,0 C-31.986000061035156,0 0,18.466999053955078 0,18.466999053955078 C0,18.466999053955078 31.986000061035156,0 31.986000061035156,0 C31.986000061035156,0 0,-18.466999053955078 0,-18.466999053955078 C0,-18.466999053955078 -31.986000061035156,0 -31.986000061035156,0z"></path></g><g opacity="1" transform="matrix(1,0,0,1,1817.1090087890625,1152.529052734375)"><path stroke-linecap="round" stroke-linejoin="round" fill-opacity="0" stroke="rgb(38,0,177)" stroke-opacity="1" stroke-width="1" d=" M-31.986000061035156,0 C-31.986000061035156,0 0,18.466999053955078 0,18.466999053955078 C0,18.466999053955078 31.986000061035156,0 31.986000061035156,0 C31.986000061035156,0 0,-18.466999053955078 0,-18.466999053955078 C0,-18.466999053955078 -31.986000061035156,0 -31.986000061035156,0z"></path></g><g opacity="1" transform="matrix(1,0,0,1,1849.094970703125,1170.9969482421875)"><path stroke-linecap="round" stroke-linejoin="round" fill-opacity="0" stroke="rgb(38,0,177)" stroke-opacity="1" stroke-width="1" d=" M-31.986000061035156,0 C-31.986000061035156,0 0,18.466999053955078 0,18.466999053955078 C0,18.466999053955078 31.986000061035156,0 31.986000061035156,0 C31.986000061035156,0 0,-18.466999053955078 0,-18.466999053955078 C0,-18.466999053955078 -31.986000061035156,0 -31.986000061035156,0z"></path></g><g opacity="1" transform="matrix(1,0,0,1,1881.08203125,1189.4639892578125)"><path stroke-linecap="round" stroke-linejoin="round" fill-opacity="0" stroke="rgb(38,0,177)" stroke-opacity="1" stroke-width="1" d=" M-31.986000061035156,0 C-31.986000061035156,0 0,18.466999053955078 0,18.466999053955078 C0,18.466999053955078 31.986000061035156,0 31.986000061035156,0 C31.986000061035156,0 0,-18.466999053955078 0,-18.466999053955078 C0,-18.466999053955078 -31.986000061035156,0 -31.986000061035156,0z"></path></g><g opacity="1" transform="matrix(1,0,0,1,1913.0679931640625,1207.9320068359375)"><path stroke-linecap="round" stroke-linejoin="round" fill-opacity="0" stroke="rgb(38,0,177)" stroke-opacity="1" stroke-width="1" d=" M-31.986000061035156,0 C-31.986000061035156,0 0,18.466999053955078 0,18.466999053955078 C0,18.466999053955078 31.986000061035156,0 31.986000061035156,0 C31.986000061035156,0 0,-18.466999053955078 0,-18.466999053955078 C0,-18.466999053955078 -31.986000061035156,0 -31.986000061035156,0z"></path></g><g opacity="1" transform="matrix(1,0,0,1,1945.0550537109375,1226.3990478515625)"><path stroke-linecap="round" stroke-linejoin="round" fill-opacity="0" stroke="rgb(38,0,177)" stroke-opacity="1" stroke-width="1" d=" M-31.986000061035156,0 C-31.986000061035156,0 0,18.466999053955078 0,18.466999053955078 C0,18.466999053955078 31.986000061035156,0 31.986000061035156,0 C31.986000061035156,0 0,-18.466999053955078 0,-18.466999053955078 C0,-18.466999053955078 -31.986000061035156,0 -31.986000061035156,0z"></path></g><g opacity="1" transform="matrix(1,0,0,1,1977.0419921875,1244.866943359375)"><path stroke-linecap="round" stroke-linejoin="round" fill-opacity="0" stroke="rgb(38,0,177)" stroke-opacity="1" stroke-width="1" d=" M-31.986000061035156,0 C-31.986000061035156,0 0,18.466999053955078 0,18.466999053955078 C0,18.466999053955078 31.986000061035156,0 31.986000061035156,0 C31.986000061035156,0 0,-18.466999053955078 0,-18.466999053955078 C0,-18.466999053955078 -31.986000061035156,0 -31.986000061035156,0z"></path></g><g opacity="1" transform="matrix(1,0,0,1,2009.0279541015625,1263.333984375)"><path stroke-linecap="round" stroke-linejoin="round" fill-opacity="0" stroke="rgb(38,0,177)" stroke-opacity="1" stroke-width="1" d=" M-31.986000061035156,0 C-31.986000061035156,0 0,18.466999053955078 0,18.466999053955078 C0,18.466999053955078 31.986000061035156,0 31.986000061035156,0 C31.986000061035156,0 0,-18.466999053955078 0,-18.466999053955078 C0,-18.466999053955078 -31.986000061035156,0 -31.986000061035156,0z"></path></g><g opacity="1" transform="matrix(1,0,0,1,2041.0150146484375,1281.802001953125)"><path stroke-linecap="round" stroke-linejoin="round" fill-opacity="0" stroke="rgb(38,0,177)" stroke-opacity="1" stroke-width="1" d=" M-31.986000061035156,0 C-31.986000061035156,0 0,18.466999053955078 0,18.466999053955078 C0,18.466999053955078 31.986000061035156,0 31.986000061035156,0 C31.986000061035156,0 0,-18.466999053955078 0,-18.466999053955078 C0,-18.466999053955078 -31.986000061035156,0 -31.986000061035156,0z"></path></g><g opacity="1" transform="matrix(1,0,0,1,2073.0009765625,1300.26904296875)"><path stroke-linecap="round" stroke-linejoin="round" fill-opacity="0" stroke="rgb(38,0,177)" stroke-opacity="1" stroke-width="1" d=" M-31.986000061035156,0 C-31.986000061035156,0 0,18.466999053955078 0,18.466999053955078 C0,18.466999053955078 31.986000061035156,0 31.986000061035156,0 C31.986000061035156,0 0,-18.466999053955078 0,-18.466999053955078 C0,-18.466999053955078 -31.986000061035156,0 -31.986000061035156,0z"></path></g><g opacity="1" transform="matrix(1,0,0,1,2104.988037109375,1318.737060546875)"><path stroke-linecap="round" stroke-linejoin="round" fill-opacity="0" stroke="rgb(38,0,177)" stroke-opacity="1" stroke-width="1" d=" M-31.986000061035156,0 C-31.986000061035156,0 0,18.466999053955078 0,18.466999053955078 C0,18.466999053955078 31.986000061035156,0 31.986000061035156,0 C31.986000061035156,0 0,-18.466999053955078 0,-18.466999053955078 C0,-18.466999053955078 -31.986000061035156,0 -31.986000061035156,0z"></path></g><g opacity="1" transform="matrix(1,0,0,1,2136.97412109375,1337.2039794921875)"><path stroke-linecap="round" stroke-linejoin="round" fill-opacity="0" stroke="rgb(38,0,177)" stroke-opacity="1" stroke-width="1" d=" M-31.986000061035156,0 C-31.986000061035156,0 0,18.466999053955078 0,18.466999053955078 C0,18.466999053955078 31.986000061035156,0 31.986000061035156,0 C31.986000061035156,0 0,-18.466999053955078 0,-18.466999053955078 C0,-18.466999053955078 -31.986000061035156,0 -31.986000061035156,0z"></path></g><g opacity="1" transform="matrix(1,0,0,1,2176.9580078125,1360.2889404296875)"><path stroke-linecap="round" stroke-linejoin="round" fill-opacity="0" stroke="rgb(38,0,177)" stroke-opacity="1" stroke-width="1" d=" M-39.983001708984375,-4.617000102996826 C-39.983001708984375,-4.617000102996826 7.997000217437744,23.083999633789062 7.997000217437744,23.083999633789062 C7.997000217437744,23.083999633789062 39.983001708984375,4.617000102996826 39.983001708984375,4.617000102996826 C39.983001708984375,4.617000102996826 -7.997000217437744,-23.083999633789062 -7.997000217437744,-23.083999633789062 C-7.997000217437744,-23.083999633789062 -39.983001708984375,-4.617000102996826 -39.983001708984375,-4.617000102996826z"></path></g><g opacity="1" transform="matrix(1,0,0,1,1729.14599609375,1138.678955078125)"><path stroke-linecap="round" stroke-linejoin="round" fill-opacity="0" stroke="rgb(38,0,177)" stroke-opacity="1" stroke-width="1" d=" M-39.983001708984375,-4.617000102996826 C-39.983001708984375,-4.617000102996826 7.997000217437744,23.083999633789062 7.997000217437744,23.083999633789062 C7.997000217437744,23.083999633789062 39.983001708984375,4.617000102996826 39.983001708984375,4.617000102996826 C39.983001708984375,4.617000102996826 -7.997000217437744,-23.083999633789062 -7.997000217437744,-23.083999633789062 C-7.997000217437744,-23.083999633789062 -39.983001708984375,-4.617000102996826 -39.983001708984375,-4.617000102996826z"></path></g><g opacity="1" transform="matrix(1,0,0,1,1705.156005859375,1161.762939453125)"><path stroke-linecap="round" stroke-linejoin="round" fill-opacity="0" stroke="rgb(38,0,177)" stroke-opacity="1" stroke-width="1" d=" M-47.97999954223633,-9.234000205993652 C-47.97999954223633,-9.234000205993652 15.993000030517578,27.701000213623047 15.993000030517578,27.701000213623047 C15.993000030517578,27.701000213623047 47.97999954223633,9.234000205993652 47.97999954223633,9.234000205993652 C47.97999954223633,9.234000205993652 -15.993000030517578,-27.701000213623047 -15.993000030517578,-27.701000213623047 C-15.993000030517578,-27.701000213623047 -47.97999954223633,-9.234000205993652 -47.97999954223633,-9.234000205993652z"></path></g><g opacity="1" transform="matrix(1,0,0,1,1681.166015625,1184.8470458984375)"><path stroke-linecap="round" stroke-linejoin="round" fill-opacity="0" stroke="rgb(38,0,177)" stroke-opacity="1" stroke-width="1" d=" M-55.97600173950195,-13.85099983215332 C-55.97600173950195,-13.85099983215332 23.989999771118164,32.31800079345703 23.989999771118164,32.31800079345703 C23.989999771118164,32.31800079345703 55.97600173950195,13.85099983215332 55.97600173950195,13.85099983215332 C55.97600173950195,13.85099983215332 -23.989999771118164,-32.31800079345703 -23.989999771118164,-32.31800079345703 C-23.989999771118164,-32.31800079345703 -55.97600173950195,-13.85099983215332 -55.97600173950195,-13.85099983215332z"></path></g><g opacity="1" transform="matrix(1,0,0,1,2065.00390625,1434.1590576171875)"><path fill="rgb(38,0,177)" fill-opacity="1" d=" M-23.989999771118164,-4.616000175476074 C-23.989999771118164,-4.616000175476074 7.995999813079834,13.85200023651123 7.995999813079834,13.85200023651123 C7.995999813079834,13.85200023651123 23.989999771118164,4.617000102996826 23.989999771118164,4.617000102996826 C23.989999771118164,4.617000102996826 -7.998000144958496,-13.85200023651123 -7.998000144958496,-13.85200023651123 C-7.998000144958496,-13.85200023651123 -23.989999771118164,-4.616000175476074 -23.989999771118164,-4.616000175476074z"></path></g><g opacity="1" transform="matrix(1,0,0,1,2001.031005859375,1397.2220458984375)"><path fill="rgb(38,0,177)" fill-opacity="1" d=" M-23.98900032043457,-4.616000175476074 C-23.98900032043457,-4.616000175476074 7.997000217437744,13.850000381469727 7.997000217437744,13.850000381469727 C7.997000217437744,13.850000381469727 23.98900032043457,4.617000102996826 23.98900032043457,4.617000102996826 C23.98900032043457,4.617000102996826 -7.997000217437744,-13.850000381469727 -7.997000217437744,-13.850000381469727 C-7.997000217437744,-13.850000381469727 -23.98900032043457,-4.616000175476074 -23.98900032043457,-4.616000175476074z"></path></g></g><g transform="matrix(1,0,0,1,619.9500122070312,722.06201171875)" opacity="1" style="display: block;"><g opacity="1" transform="matrix(1,0,0,1,0,0)"><path fill="url(#__lottie_element_23)" fill-opacity="1" d=" M-159.93499755859375,-18.16699981689453 C-159.93499755859375,-18.16699981689453 31.985000610351562,92.63700103759766 31.985000610351562,92.63700103759766 C31.985000610351562,92.63700103759766 159.93499755859375,18.767000198364258 159.93499755859375,18.767000198364258 C159.93499755859375,18.767000198364258 -30.948999404907227,-92.63700103759766 -30.948999404907227,-92.63700103759766 C-30.948999404907227,-92.63700103759766 -159.93499755859375,-18.16699981689453 -159.93499755859375,-18.16699981689453z"></path></g></g><g transform="matrix(1,0,0,1,555.9760131835938,768.531005859375)" opacity="1" style="display: block;"><g opacity="1" transform="matrix(1,0,0,1,0,0)"><path fill="rgb(115,163,255)" fill-opacity="1" d=" M-95.96099853515625,-64.63600158691406 C-95.96099853515625,-64.63600158691406 -95.96099853515625,-46.16899871826172 -95.96099853515625,-46.16899871826172 C-95.96099853515625,-46.16899871826172 95.96099853515625,64.63600158691406 95.96099853515625,64.63600158691406 C95.96099853515625,64.63600158691406 95.95899963378906,46.16899871826172 95.95899963378906,46.16899871826172 C95.95899963378906,46.16899871826172 -95.96099853515625,-64.63600158691406 -95.96099853515625,-64.63600158691406z"></path></g></g><g transform="matrix(1,0,0,1,715.9099731445312,786.9979858398438)" opacity="1" style="display: block;"><g opacity="1" transform="matrix(1,0,0,1,0,0)"><path fill="rgb(38,0,177)" fill-opacity="1" d=" M-63.972999572753906,46.16899871826172 C-63.972999572753906,46.16899871826172 63.974998474121094,-27.70400047302246 63.974998474121094,-27.70400047302246 C63.974998474121094,-27.70400047302246 63.974998474121094,-46.16899871826172 63.974998474121094,-46.16899871826172 C63.974998474121094,-46.16899871826172 -63.974998474121094,27.701000213623047 -63.974998474121094,27.701000213623047 C-63.974998474121094,27.701000213623047 -63.972999572753906,46.16899871826172 -63.972999572753906,46.16899871826172z"></path></g></g><g transform="matrix(1,0,0,1,603.9569702148438,722.3590087890625)" opacity="1" style="display: block;"><g opacity="1" transform="matrix(1,0,0,1,0,0)"><path fill="rgb(38,0,177)" fill-opacity="1" d=" M-79.96600341796875,-55.40299987792969 C-79.96600341796875,-55.40299987792969 -79.96900177001953,-18.46500015258789 -79.96900177001953,-18.46500015258789 C-79.96900177001953,-18.46500015258789 47.97800064086914,55.40299987792969 47.97800064086914,55.40299987792969 C47.97800064086914,55.40299987792969 79.96399688720703,36.9379997253418 79.96399688720703,36.9379997253418 C79.96399688720703,36.9379997253418 79.96900177001953,0 79.96900177001953,0 C79.96900177001953,0 49.01599884033203,17.8700008392334 49.01599884033203,17.8700008392334 C49.01599884033203,17.8700008392334 -79.96600341796875,-55.40299987792969 -79.96600341796875,-55.40299987792969z"></path></g></g><g transform="matrix(1,0,0,1,603.9580078125,491.51800537109375)" opacity="1" style="display: block;"><g opacity="1" transform="matrix(1,0,0,1,0,0)"><path fill="url(#__lottie_element_14)" fill-opacity="1" d=" M-303.87298583984375,46.16600036621094 C-303.87298583984375,46.16600036621094 -303.8699951171875,-397.04998779296875 -303.8699951171875,-397.04998779296875 C-303.8699951171875,-397.04998779296875 303.8710021972656,-46.16899871826172 303.8710021972656,-46.16899871826172 C303.8710021972656,-46.16899871826172 303.87298583984375,397.04998779296875 303.87298583984375,397.04998779296875 C303.87298583984375,397.04998779296875 -303.87298583984375,46.16600036621094 -303.87298583984375,46.16600036621094z"></path></g></g><g transform="matrix(1,0,0,1,603.9580078125,491.51800537109375)" opacity="1" style="display: block;"><g opacity="1" transform="matrix(1,0,0,1,0,0)"><path fill="url(#__lottie_element_11)" fill-opacity="0.042251103199893204" d=" M-303.87298583984375,46.16600036621094 C-303.87298583984375,46.16600036621094 -303.8699951171875,-397.04998779296875 -303.8699951171875,-397.04998779296875 C-303.8699951171875,-397.04998779296875 303.8710021972656,-46.16899871826172 303.8710021972656,-46.16899871826172 C303.8710021972656,-46.16899871826172 303.87298583984375,397.04998779296875 303.87298583984375,397.04998779296875 C303.87298583984375,397.04998779296875 -303.87298583984375,46.16600036621094 -303.87298583984375,46.16600036621094z"></path></g></g><g transform="matrix(1,0,0,1,619.9520263671875,260.67401123046875)" opacity="1" style="display: block;"><g opacity="1" transform="matrix(1,0,0,1,0,0)"><path fill="url(#__lottie_element_8)" fill-opacity="1" d=" M-319.864013671875,-166.20700073242188 C-319.864013671875,-166.20700073242188 -287.8800048828125,-184.6739959716797 -287.8800048828125,-184.6739959716797 C-287.8800048828125,-184.6739959716797 319.864013671875,166.20700073242188 319.864013671875,166.20700073242188 C319.864013671875,166.20700073242188 287.87701416015625,184.6739959716797 287.87701416015625,184.6739959716797 C287.87701416015625,184.6739959716797 -319.864013671875,-166.20700073242188 -319.864013671875,-166.20700073242188z"></path></g></g><g transform="matrix(1,0,0,1,923.822998046875,657.7230224609375)" opacity="1" style="display: block;"><g opacity="1" transform="matrix(1,0,0,1,0,0)"><path fill="url(#__lottie_element_5)" fill-opacity="1" d=" M-15.991999626159668,230.84300231933594 C-15.991999626159668,230.84300231933594 -15.994000434875488,-212.37600708007812 -15.994000434875488,-212.37600708007812 C-15.994000434875488,-212.37600708007812 15.991999626159668,-230.84300231933594 15.991999626159668,-230.84300231933594 C15.991999626159668,-230.84300231933594 15.994000434875488,212.37600708007812 15.994000434875488,212.37600708007812 C15.994000434875488,212.37600708007812 -15.991999626159668,230.84300231933594 -15.991999626159668,230.84300231933594z"></path></g></g></g></svg>