<svg width="913" height="318" viewBox="0 0 913 318" fill="none" xmlns="http://www.w3.org/2000/svg">
<mask id="mask0_18_58" style="mask-type:alpha" maskUnits="userSpaceOnUse" x="4" y="7" width="909" height="311">
<mask id="mask1_18_58" style="mask-type:luminance" maskUnits="userSpaceOnUse" x="0" y="0" width="913" height="242">
<path d="M912.89 0H0V241.68H912.89V0Z" fill="white"/>
</mask>
<g mask="url(#mask1_18_58)">
<path d="M63.295 112.131V156.334C63.295 164.864 63.7992 170.254 64.8077 172.503C65.8936 174.675 67.7552 176.419 70.3924 177.737C73.0298 179.056 77.9552 179.715 85.1686 179.715V184.019H4.42139V179.715C11.7127 179.715 16.6383 179.056 19.198 177.737C21.8352 176.341 23.6581 174.558 24.6665 172.387C25.7524 170.215 26.2954 164.864 26.2954 156.334V53.9688C26.2954 45.4388 25.7524 40.0878 24.6665 37.9165C23.6581 35.6676 21.8352 33.8839 19.198 32.5657C16.5607 31.2473 11.6351 30.5882 4.42139 30.5882V26.2842H77.7226C96.8037 26.2842 110.766 27.6025 119.609 30.2391C128.452 32.8758 135.665 37.7614 141.25 44.8959C146.835 51.9534 149.627 60.2505 149.627 69.7892C149.627 81.4216 145.439 91.0375 137.062 98.6371C131.71 103.446 124.224 107.051 114.606 109.456L152.536 162.848C157.501 169.75 161.03 174.054 163.125 175.76C166.304 178.164 169.989 179.482 174.177 179.715V184.019H124.496L73.6503 112.131H63.295ZM63.295 34.7758V103.872H69.9271C80.7088 103.872 88.7763 102.902 94.1282 100.964C99.4802 98.9477 103.669 95.38 106.694 90.2618C109.797 85.0665 111.348 78.3198 111.348 70.0217C111.348 58.0016 108.517 49.1223 102.854 43.3837C97.2698 37.6451 88.233 34.7758 75.7447 34.7758H63.295ZM236.542 112.596V156.334C236.542 164.864 237.046 170.254 238.055 172.503C239.14 174.675 241.002 176.419 243.639 177.737C246.355 179.056 251.28 179.715 258.416 179.715V184.019H178.25V179.715C185.541 179.715 190.467 179.056 193.027 177.737C195.664 176.341 197.487 174.558 198.495 172.387C199.581 170.215 200.124 164.864 200.124 156.334V53.9688C200.124 45.4388 199.581 40.0878 198.495 37.9165C197.487 35.6676 195.664 33.8839 193.027 32.5657C190.39 31.2473 185.464 30.5882 178.25 30.5882V26.2842H247.013C269.663 26.2842 285.913 30.3167 295.765 38.3818C305.616 46.4469 310.542 56.5283 310.542 68.6257C310.542 78.862 307.361 87.6251 301.001 94.915C294.64 102.205 285.875 107.168 274.705 109.804C267.181 111.665 254.46 112.596 236.542 112.596ZM236.542 35.3573V103.523C239.101 103.678 241.041 103.755 242.359 103.755C251.823 103.755 259.114 100.964 264.234 95.38C269.353 89.7196 271.912 80.9947 271.912 69.2079C271.912 57.4975 269.353 48.9285 264.234 43.5001C259.114 38.0716 251.474 35.3573 241.313 35.3573H236.542ZM431.43 130.278L474.248 26.2842H538.473V30.5882H533.354C528.7 30.5882 524.976 31.4024 522.185 33.0309C520.245 34.1166 518.693 35.939 517.53 38.4981C516.677 40.3593 516.25 45.2061 516.25 53.0387V157.032C516.25 165.097 516.677 170.138 517.53 172.154C518.383 174.171 520.129 175.953 522.766 177.505C525.403 178.978 528.933 179.715 533.354 179.715H538.473V184.019H456.097V179.715H461.216C465.871 179.715 469.594 178.901 472.385 177.272C474.325 176.187 475.877 174.325 477.04 171.689C477.893 169.827 478.32 164.941 478.32 157.032V40.1266L417.817 184.019H415.025L353.592 41.1736V152.263C353.592 160.018 353.785 164.787 354.173 166.57C355.181 170.447 357.354 173.627 360.689 176.109C364.102 178.513 369.415 179.715 376.629 179.715V184.019H322.642V179.715H324.271C327.761 179.793 331.019 179.25 334.044 178.086C337.07 176.845 339.357 175.217 340.909 173.2C342.461 171.185 343.663 168.354 344.516 164.709C344.671 163.856 344.748 159.901 344.748 152.844V53.0387C344.748 45.0511 344.322 40.0878 343.469 38.1491C342.615 36.1328 340.87 34.388 338.233 32.9146C335.595 31.3636 332.067 30.5882 327.645 30.5882H322.642V26.2842H387.1L431.43 130.278Z" fill="white"/>
<path fill-rule="evenodd" clip-rule="evenodd" d="M860.062 107.262L908.748 100.803C882.085 45.8003 824.498 7.72815 757.753 7.72815C665.632 7.72815 590.952 80.2571 590.952 169.725C590.952 173.028 591.054 176.308 591.254 179.562C596.167 104.917 660.299 45.8451 738.69 45.8451C788.966 45.8451 833.376 70.1418 860.062 107.262Z" fill="white"/>
<path fill-rule="evenodd" clip-rule="evenodd" d="M778.822 181.996L912.767 120.787L765.355 143.942C761.612 142.145 757.418 141.137 752.988 141.137C737.195 141.137 724.393 153.936 724.393 169.725C724.393 185.514 737.195 198.313 752.988 198.313C764.387 198.313 774.229 191.644 778.822 181.996Z" fill="white"/>
</g>
<path d="M84.8732 251.486V317.428H76.1993V268.257L54.2769 317.428H48.1767L26.159 268.162V317.428H17.4854V251.486H26.8262L51.2268 305.993L75.6274 251.486H84.8732ZM184.604 302.658H155.628L150.291 317.428H141.14L165.16 251.391H175.168L199.092 317.428H189.942L184.604 302.658ZM182.126 295.606L170.116 262.063L158.106 295.606H182.126ZM290.291 317.428L274.469 290.27H263.984V317.428H255.31V251.009H276.756C281.777 251.009 286.002 251.867 289.433 253.582C292.928 255.298 295.533 257.616 297.249 260.539C298.965 263.461 299.823 266.797 299.823 270.544C299.823 275.118 298.488 279.152 295.819 282.647C293.214 286.141 289.275 288.459 284 289.603L300.68 317.428H290.291ZM263.984 283.314H276.756C281.459 283.314 284.986 282.17 287.336 279.883C289.688 277.532 290.863 274.42 290.863 270.544C290.863 266.606 289.688 263.557 287.336 261.396C285.049 259.236 281.522 258.156 276.756 258.156H263.984V283.314ZM395.08 317.428L367.725 287.125V317.428H359.051V251.009H367.725V281.789L395.175 251.009H406.137L376.017 284.266L406.423 317.428H395.08ZM470.535 258.061V280.264H494.745V287.411H470.535V310.281H497.605V317.428H461.862V250.914H497.605V258.061H470.535ZM597.37 251.009V258.061H579.26V317.428H570.586V258.061H552.381V251.009H597.37ZM662.472 251.009V317.428H653.798V251.009H662.472ZM775.238 317.428H766.564L731.679 264.541V317.428H723.005V250.914H731.679L766.564 303.706V250.914H775.238V317.428ZM886.1 270.259C884.258 266.383 881.589 263.397 878.094 261.301C874.6 259.141 870.533 258.061 865.894 258.061C861.256 258.061 857.062 259.141 853.312 261.301C849.627 263.397 846.704 266.447 844.543 270.449C842.446 274.388 841.398 278.962 841.398 284.171C841.398 289.381 842.446 293.955 844.543 297.893C846.704 301.832 849.627 304.881 853.312 307.041C857.062 309.138 861.256 310.186 865.894 310.186C872.375 310.186 877.713 308.249 881.907 304.373C886.1 300.498 888.547 295.257 889.246 288.65H862.748V281.598H898.491V288.269C897.983 293.732 896.268 298.751 893.344 303.325C890.422 307.835 886.577 311.425 881.811 314.093C877.046 316.697 871.74 318 865.894 318C859.731 318 854.107 316.571 849.023 313.712C843.94 310.789 839.905 306.755 836.918 301.61C833.996 296.464 832.534 290.651 832.534 284.171C832.534 277.691 833.996 271.878 836.918 266.733C839.905 261.523 843.94 257.489 849.023 254.631C854.107 251.708 859.731 250.247 865.894 250.247C872.947 250.247 879.175 251.994 884.575 255.488C890.041 258.983 894.012 263.905 896.49 270.259H886.1Z" fill="white"/>
</mask>
<g mask="url(#mask0_18_58)">
<path d="M457.511 717.656C752.301 717.656 991.275 478.739 991.275 184.019C991.275 -110.701 752.301 -349.618 457.511 -349.618C162.722 -349.618 -76.2518 -110.701 -76.2518 184.019C-76.2518 478.739 162.722 717.656 457.511 717.656Z" fill="white"/>
</g>
</svg>
