<svg width="913" height="318" viewBox="0 0 913 318" fill="none" xmlns="http://www.w3.org/2000/svg">
<g clip-path="url(#clip0_52_1709)">
<mask id="mask0_52_1709" style="mask-type:alpha" maskUnits="userSpaceOnUse" x="4" y="7" width="909" height="311">
<mask id="mask1_52_1709" style="mask-type:luminance" maskUnits="userSpaceOnUse" x="0" y="0" width="913" height="242">
<path d="M912.89 0H0V241.68H912.89V0Z" fill="white"/>
</mask>
<g mask="url(#mask1_52_1709)">
<path d="M63.2955 112.131V156.334C63.2955 164.864 63.7997 170.254 64.8082 172.503C65.8941 174.675 67.7557 176.419 70.3929 177.737C73.0303 179.056 77.9557 179.715 85.1691 179.715V184.019H4.42188V179.715C11.7132 179.715 16.6388 179.056 19.1985 177.737C21.8357 176.341 23.6586 174.558 24.667 172.387C25.7529 170.215 26.2959 164.864 26.2959 156.334V53.969C26.2959 45.439 25.7529 40.088 24.667 37.9167C23.6586 35.6678 21.8357 33.8841 19.1985 32.5659C16.5612 31.2475 11.6356 30.5884 4.42188 30.5884V26.2844H77.7231C96.8042 26.2844 110.766 27.6027 119.609 30.2393C128.452 32.876 135.665 37.7616 141.25 44.8961C146.835 51.9536 149.627 60.2507 149.627 69.7894C149.627 81.4218 145.439 91.0377 137.062 98.6373C131.71 103.446 124.224 107.051 114.606 109.456L152.536 162.848C157.501 169.75 161.03 174.054 163.125 175.76C166.304 178.164 169.989 179.482 174.177 179.715V184.019H124.496L73.6508 112.131H63.2955ZM63.2955 34.776V103.872H69.9276C80.7093 103.872 88.7768 102.902 94.1287 100.964C99.4807 98.9479 103.669 95.3802 106.694 90.262C109.797 85.0667 111.348 78.32 111.348 70.0219C111.348 58.0018 108.517 49.1225 102.854 43.3839C97.2703 37.6453 88.2335 34.776 75.7452 34.776H63.2955ZM236.542 112.596V156.334C236.542 164.864 237.046 170.254 238.055 172.503C239.14 174.675 241.002 176.419 243.639 177.737C246.355 179.056 251.28 179.715 258.416 179.715V184.019H178.25V179.715C185.541 179.715 190.467 179.056 193.027 177.737C195.664 176.341 197.487 174.558 198.495 172.387C199.581 170.215 200.124 164.864 200.124 156.334V53.969C200.124 45.439 199.581 40.088 198.495 37.9167C197.487 35.6678 195.664 33.8841 193.027 32.5659C190.39 31.2475 185.464 30.5884 178.25 30.5884V26.2844H247.013C269.663 26.2844 285.914 30.3169 295.766 38.382C305.617 46.4471 310.542 56.5285 310.542 68.6259C310.542 78.8622 307.361 87.6253 301.001 94.9152C294.64 102.205 285.875 107.168 274.705 109.804C267.181 111.665 254.46 112.596 236.542 112.596ZM236.542 35.3575V103.523C239.101 103.678 241.041 103.755 242.359 103.755C251.823 103.755 259.114 100.964 264.234 95.3802C269.353 89.7198 271.912 80.9949 271.912 69.2081C271.912 57.4977 269.353 48.9287 264.234 43.5003C259.114 38.0718 251.474 35.3575 241.313 35.3575H236.542ZM431.43 130.278L474.248 26.2844H538.474V30.5884H533.354C528.7 30.5884 524.976 31.4026 522.185 33.0311C520.245 34.1168 518.694 35.9392 517.531 38.4983C516.678 40.3595 516.25 45.2063 516.25 53.0389V157.032C516.25 165.097 516.678 170.138 517.531 172.154C518.384 174.171 520.129 175.953 522.766 177.505C525.403 178.978 528.933 179.715 533.354 179.715H538.474V184.019H456.097V179.715H461.216C465.871 179.715 469.594 178.901 472.385 177.272C474.325 176.187 475.877 174.325 477.04 171.689C477.893 169.827 478.32 164.941 478.32 157.032V40.1268L417.817 184.019H415.025L353.592 41.1738V152.263C353.592 160.018 353.785 164.787 354.173 166.57C355.181 170.447 357.354 173.627 360.689 176.109C364.102 178.513 369.415 179.715 376.629 179.715V184.019H322.642V179.715H324.271C327.761 179.793 331.019 179.25 334.044 178.086C337.07 176.845 339.357 175.217 340.909 173.2C342.461 171.185 343.663 168.354 344.516 164.709C344.671 163.856 344.748 159.901 344.748 152.844V53.0389C344.748 45.0513 344.322 40.088 343.469 38.1493C342.615 36.133 340.87 34.3882 338.233 32.9148C335.595 31.3638 332.067 30.5884 327.645 30.5884H322.642V26.2844H387.1L431.43 130.278Z" fill="white"/>
<path fill-rule="evenodd" clip-rule="evenodd" d="M860.062 107.262L908.748 100.803C882.085 45.8004 824.498 7.72827 757.753 7.72827C665.632 7.72827 590.952 80.2572 590.952 169.725C590.952 173.028 591.054 176.308 591.254 179.562C596.167 104.917 660.299 45.8452 738.69 45.8452C788.966 45.8452 833.376 70.1419 860.062 107.262Z" fill="white"/>
<path fill-rule="evenodd" clip-rule="evenodd" d="M778.823 181.996L912.768 120.787L765.356 143.942C761.613 142.145 757.419 141.137 752.989 141.137C737.196 141.137 724.394 153.936 724.394 169.725C724.394 185.514 737.196 198.313 752.989 198.313C764.388 198.313 774.23 191.644 778.823 181.996Z" fill="white"/>
</g>
<path d="M84.8732 251.486V317.428H76.1993V268.257L54.2769 317.428H48.1767L26.159 268.162V317.428H17.4854V251.486H26.8262L51.2268 305.993L75.6274 251.486H84.8732ZM184.604 302.658H155.628L150.291 317.428H141.14L165.16 251.391H175.168L199.092 317.428H189.942L184.604 302.658ZM182.126 295.606L170.116 262.063L158.106 295.606H182.126ZM290.291 317.428L274.469 290.27H263.984V317.428H255.31V251.009H276.756C281.777 251.009 286.002 251.867 289.433 253.582C292.928 255.298 295.533 257.616 297.249 260.539C298.965 263.461 299.823 266.797 299.823 270.544C299.823 275.118 298.488 279.152 295.819 282.647C293.214 286.141 289.275 288.459 284 289.603L300.68 317.428H290.291ZM263.984 283.314H276.756C281.459 283.314 284.986 282.17 287.336 279.883C289.688 277.532 290.863 274.42 290.863 270.544C290.863 266.606 289.688 263.557 287.336 261.396C285.049 259.236 281.522 258.156 276.756 258.156H263.984V283.314ZM395.08 317.428L367.725 287.125V317.428H359.051V251.009H367.725V281.789L395.175 251.009H406.137L376.017 284.266L406.423 317.428H395.08ZM470.535 258.061V280.264H494.745V287.411H470.535V310.281H497.605V317.428H461.862V250.914H497.605V258.061H470.535ZM597.37 251.009V258.061H579.26V317.428H570.586V258.061H552.381V251.009H597.37ZM662.472 251.009V317.428H653.798V251.009H662.472ZM775.238 317.428H766.564L731.679 264.541V317.428H723.005V250.914H731.679L766.564 303.706V250.914H775.238V317.428ZM886.1 270.259C884.258 266.383 881.589 263.397 878.094 261.301C874.6 259.141 870.533 258.061 865.894 258.061C861.256 258.061 857.062 259.141 853.312 261.301C849.627 263.397 846.704 266.447 844.543 270.449C842.446 274.388 841.398 278.962 841.398 284.171C841.398 289.381 842.446 293.955 844.543 297.893C846.704 301.832 849.627 304.881 853.312 307.041C857.062 309.138 861.256 310.186 865.894 310.186C872.375 310.186 877.713 308.249 881.907 304.373C886.1 300.498 888.547 295.257 889.246 288.65H862.748V281.598H898.491V288.269C897.983 293.732 896.268 298.751 893.344 303.325C890.422 307.835 886.577 311.425 881.811 314.093C877.046 316.697 871.74 318 865.894 318C859.731 318 854.107 316.571 849.023 313.712C843.94 310.789 839.905 306.755 836.918 301.61C833.996 296.464 832.534 290.651 832.534 284.171C832.534 277.691 833.996 271.878 836.918 266.733C839.905 261.523 843.94 257.489 849.023 254.631C854.107 251.708 859.731 250.247 865.894 250.247C872.947 250.247 879.175 251.994 884.575 255.488C890.041 258.983 894.012 263.905 896.49 270.259H886.1Z" fill="white"/>
</mask>
<g mask="url(#mask0_52_1709)">
<path d="M457.511 717.656C752.301 717.656 991.275 478.739 991.275 184.019C991.275 -110.701 752.301 -349.618 457.511 -349.618C162.722 -349.618 -76.252 -110.701 -76.252 184.019C-76.252 478.739 162.722 717.656 457.511 717.656Z" fill="#0F85DA"/>
</g>
</g>
<defs>
<clipPath id="clip0_52_1709">
<rect width="913" height="318" fill="white"/>
</clipPath>
</defs>
</svg>
