<svg width="182" height="59" viewBox="0 0 182 59" fill="none" xmlns="http://www.w3.org/2000/svg">
<path d="M106.526 29.5639C107.005 31.6922 107.382 31.9416 110.523 32.2519C110.547 32.4879 110.574 32.7408 110.605 33.0423C105.218 33.0423 99.8905 33.0423 94.5217 33.0423C94.5217 32.7897 94.5217 32.5594 94.5217 32.335C94.5845 32.2939 94.6343 32.2355 94.6898 32.229C95.1285 32.1779 95.5695 32.147 96.0076 32.0908C98.2335 31.8055 98.9717 31.0215 98.9794 28.6453C99.0075 20.0573 98.9905 11.4692 98.8578 2.80798C98.7091 3.11656 98.5487 3.41974 98.4132 3.7345C94.3295 13.2213 90.251 22.7105 86.1549 32.1915C86.0087 32.5297 85.6913 32.7879 85.4537 33.0834C85.2134 32.7873 84.892 32.5291 84.7447 32.1894C80.7056 22.875 76.6844 13.5522 72.659 4.23139C72.5104 3.88735 72.3495 3.54905 72.0707 2.93611C72.0233 3.48527 71.9779 3.7663 71.9778 4.04737C71.9741 11.9996 71.9692 19.9519 71.9782 27.9041C71.9815 30.7571 72.9307 31.8373 75.6741 32.1863C76.3942 32.2779 76.3942 32.2779 76.3835 33.0842C73.1302 33.0842 69.8747 33.0944 66.6196 33.0604C66.41 33.0582 66.2038 32.7149 65.7969 32.3533C66.6165 32.2024 67.0776 32.1387 67.5288 32.0306C69.0326 31.6705 70.0706 30.462 70.2493 28.8569C70.3 28.402 70.31 27.9402 70.3102 27.4815C70.3138 20.2362 70.3127 12.9908 70.3126 5.7454C70.3126 5.63937 70.3133 5.53334 70.3123 5.42732C70.2863 2.54221 70.0729 1.02376 66.4987 0.938876C66.4005 0.936545 66.3034 0.889324 66.1687 0.853048C66.1687 0.614455 66.1687 0.375578 66.1687 0.0194393C66.4991 0.0194393 66.8271 0.0194393 67.1551 0.0194393C70.5883 0.0194393 74.0219 0.0453966 77.4546 0.000363035C78.2668 -0.0102854 78.6824 0.210533 79.0333 1.03153C81.9642 7.88927 84.9544 14.7196 87.9275 21.5578C88.0639 21.8714 88.2073 22.1816 88.4293 22.6756C91.7419 15.0154 94.9812 7.52469 98.2109 0.0560254C102.341 0.0560254 106.414 0.0560254 110.488 0.0560254C110.558 0.144474 110.628 0.232923 110.698 0.321365C110.463 0.534396 110.23 0.929956 109.993 0.932985C106.575 0.976601 106.424 2.66956 106.421 5.30023C106.413 12.7223 106.416 20.1444 106.423 27.5665C106.423 28.2012 106.485 28.8358 106.526 29.5639Z" fill="#F9FBFA"/>
<path d="M13.513 33.0841C9.70903 33.0841 6.00709 33.0841 2.28949 33.0841C2.0784 32.4912 2.16584 32.2517 2.80705 32.1794C6.17211 31.8001 6.61207 31.2675 6.61386 27.7105C6.61764 20.1807 6.61523 12.6509 6.61423 5.12107C6.61418 4.76766 6.61371 4.41367 6.59553 4.06094C6.50458 2.29614 5.77555 1.41388 4.1133 1.08707C3.68055 1.00199 3.21962 1.04284 2.80123 0.918346C2.53343 0.838662 2.31989 0.561865 2.08203 0.373425C2.13563 0.275785 2.18923 0.178138 2.24283 0.0804971C2.50349 0.0603785 2.76414 0.0228864 3.02481 0.022718C8.12484 0.0193649 13.2249 0.0124645 18.3249 0.0239285C20.7226 0.0293205 23.0675 0.350368 25.2557 1.46077C28.5984 3.157 30.2804 5.91798 30.017 9.80309C29.7717 13.4234 27.6581 15.5971 24.5898 16.9358C24.1541 17.1259 23.6939 17.2554 23.1598 17.4429C23.5783 18.1697 23.9682 18.8593 24.3694 19.5417C26.0508 22.4015 27.7091 25.2765 29.4291 28.111C30.4548 29.8015 31.39 31.6211 33.4721 32.2278C33.6239 32.2721 33.6687 32.7129 33.8055 33.0838C30.6697 33.0838 27.6814 33.1047 24.6943 33.0502C24.4084 33.045 24.0488 32.6229 23.8611 32.3061C21.2625 27.9204 18.6744 23.5278 16.1202 19.1141C15.6607 18.3201 15.2223 17.6953 14.1386 18.1634C14.1258 18.2736 14.0755 18.5058 14.0752 18.7381C14.0705 21.8843 14.0666 25.0306 14.0793 28.1768C14.0816 28.7395 14.103 29.3144 14.2146 29.8618C14.4878 31.2026 15.1997 31.8496 16.5131 32.0274C17.0521 32.1004 17.6061 32.0935 18.1311 32.2214C18.3957 32.2858 18.6107 32.5702 18.8482 32.7552C18.7956 32.8649 18.743 32.9745 18.6904 33.0841C16.9986 33.0841 15.3068 33.0841 13.513 33.0841ZM14.0706 12.4017C14.0706 13.6597 14.0706 14.9176 14.0706 16.1477C15.3147 16.1477 16.4389 16.2512 17.5393 16.1271C20.1847 15.8287 21.8624 14.1647 22.3137 11.4342C22.4734 10.4678 22.518 9.46775 22.5011 8.4852C22.4187 3.70199 19.6009 1.15206 14.0706 2.01858C14.0706 5.4066 14.0706 8.79813 14.0706 12.4017Z" fill="#F9FBFA"/>
<path d="M132.225 9.72992C138.701 4.60047 145.955 2.20928 153.988 2.81061C160.397 3.29032 166.383 5.21707 171.364 9.69905C173.54 11.657 175.262 14.0247 176.722 16.5915C177.635 18.1973 178.476 19.8471 179.422 21.6127C176.114 22.1929 172.921 22.7527 169.652 23.3261C168.025 20.2685 165.67 17.8745 163.11 15.6338C158.509 11.6059 153.127 9.97979 147.258 10.1215C135.252 10.4114 125.356 18.1646 121.623 30.0348C121.227 31.2933 120.998 32.6084 120.688 33.912C119.849 32.4955 121.588 24.6966 123.617 20.5645C125.706 16.3108 128.611 12.7655 132.225 9.72992Z" fill="#F9FBFA"/>
<path d="M39.9226 20.356C39.9226 15.3386 39.9236 10.4272 39.921 5.51575C39.9208 5.05679 39.9158 4.59643 39.8824 4.13913C39.7415 2.21096 38.9744 1.35071 37.1395 1.06153C36.7368 0.998082 36.3069 1.04138 35.93 0.909911C35.6783 0.822091 35.4983 0.512041 35.2861 0.301444C35.3477 0.220497 35.4093 0.139551 35.4709 0.0586112C35.7036 0.0456714 35.9363 0.0214943 36.169 0.0214425C41.6743 0.0201414 47.1797 -0.000863805 52.6849 0.0321944C55.229 0.0474645 57.6815 0.58878 59.9202 1.89535C62.6093 3.46483 64.3788 5.68652 64.3098 9.08368C64.2418 12.4334 62.5233 14.6843 59.7999 16.2223C57.5386 17.4994 55.0726 17.9317 52.537 17.9911C50.8459 18.0308 49.1532 17.9987 47.4155 17.9987C47.4155 21.8432 47.3268 25.6143 47.4524 29.3776C47.5165 31.2992 48.3852 31.8845 50.7553 32.1649C51.2527 32.2238 51.7685 32.1795 51.5025 33.0264C46.1733 33.0264 40.8187 33.0264 35.451 33.0264C35.2598 32.4465 35.4092 32.242 36.0227 32.1776C39.4198 31.8208 39.9124 31.2323 39.9214 27.6702C39.9274 25.2675 39.9226 22.8648 39.9226 20.356ZM55.7198 5.06967C55.1768 3.88373 54.4084 2.928 53.1897 2.45476C51.3065 1.72347 49.357 1.84558 47.4235 1.88507C47.4235 6.70826 47.4235 11.4217 47.4235 16.1342C48.7042 16.1342 49.9271 16.1964 51.142 16.1209C53.5113 15.9738 55.3646 14.39 55.9877 11.996C56.5786 9.72607 56.4969 7.4609 55.7198 5.06967Z" fill="#F9FBFA"/>
<path d="M146.791 38.0969C143.999 33.868 146.145 28.7333 150.914 28.0808C152.394 27.8783 153.707 28.3432 154.961 29.157C155.361 29.4169 155.957 29.5752 156.412 29.4879C164.649 27.9057 172.879 26.2781 181.112 24.6644C181.375 24.6129 181.646 24.6059 182 24.7685C181.702 24.9205 181.409 25.0823 181.107 25.2232C173.445 28.794 165.777 32.3528 158.129 35.9545C157.631 36.1888 157.142 36.6731 156.876 37.1721C154.803 41.0648 149.626 41.7053 146.791 38.0969Z" fill="#F9FBFA"/>
<path d="M5.48636 57.3521C4.62715 55.0884 3.80059 52.8976 2.97404 50.7068C2.90722 50.7048 2.8404 50.7027 2.77358 50.7007C2.24488 53.205 1.71619 55.7094 1.17577 58.2692C0.814904 58.2692 0.459011 58.2692 0 58.2692C0.833988 54.32 1.65961 50.4104 2.54233 46.2305C3.76051 49.5235 4.88402 52.5605 6.10905 55.872C7.32155 52.6076 8.4504 49.5684 9.6872 46.2386C10.569 50.446 11.3813 54.3217 12.2097 58.274C11.8399 58.2981 11.5127 58.3195 11.0756 58.348C10.5242 55.7825 9.97685 53.2359 9.3634 50.3816C8.23023 53.3905 7.2097 56.1003 6.11752 59.0003C5.87051 58.3502 5.69476 57.8876 5.48636 57.3521Z" fill="#F9FBFA"/>
<path d="M172.464 48.3851C175.795 45.5391 180.279 46.7706 181.612 50.9185C181.049 50.962 180.592 51.1706 180.185 50.4293C179.04 48.3422 176.963 47.5253 174.894 48.2219C172.991 48.8623 171.694 50.8869 171.854 52.9651C172.022 55.1382 173.58 56.9069 175.607 57.2257C177.744 57.5618 179.653 56.4016 180.584 54.1245C179.152 54.1245 177.758 54.1245 176.309 54.1245C176.309 53.7221 176.309 53.4212 176.309 53.0239C177.23 53.0239 178.136 53.0239 179.042 53.0239C179.956 53.0239 180.869 53.0239 181.874 53.0239C181.708 55.2595 180.673 56.8502 178.84 57.8157C176.828 58.8757 174.827 58.7102 172.984 57.3257C170.232 55.2574 169.852 51.0128 172.464 48.3851Z" fill="#F9FBFA"/>
<path d="M149.145 58.3247C148.951 58.2194 148.762 58.115 148.762 58.0099C148.747 54.2087 148.749 50.4075 148.749 46.3066C150.824 49.3619 152.736 52.1774 154.818 55.2437C154.818 52.3288 154.818 49.7348 154.818 47.0618C155.214 47.0437 155.539 47.029 155.911 47.012C155.911 50.968 155.911 54.861 155.911 58.9455C153.904 55.9859 152.003 53.1831 150.102 50.3803C150.023 50.4036 149.944 50.427 149.865 50.4503C149.865 51.8396 149.865 53.2289 149.865 54.6182C149.865 55.6427 149.84 56.6681 149.876 57.6912C149.894 58.2122 149.717 58.4023 149.145 58.3247Z" fill="#F9FBFA"/>
<path d="M55.2221 48.2745C56.7969 50.7408 55.9106 52.8943 52.9038 53.9641C53.9544 55.3675 54.993 56.755 56.0999 58.2337C55.1947 58.4315 54.5404 58.4055 54.0186 57.5076C53.4416 56.5146 52.6567 55.6543 52.0484 54.6781C51.5961 53.9523 51.0653 53.68 50.1904 53.9686C50.1904 55.3699 50.1904 56.8042 50.1904 58.282C49.7746 58.282 49.4476 58.282 49.0684 58.282C49.0684 54.553 49.0684 50.8242 49.0684 46.9678C51.1504 47.3042 53.4196 46.2475 55.2221 48.2745ZM50.1854 49.1124C50.1854 50.2942 50.1854 51.476 50.1854 52.7326C50.9884 52.7326 51.6597 52.7356 52.331 52.7307C52.5334 52.7292 52.7377 52.7197 52.9378 52.6896C54.1144 52.5126 54.8636 51.5865 54.8356 50.3539C54.8073 49.107 54.0269 48.2366 52.8127 48.1573C52.1382 48.1132 51.4544 48.1957 50.7837 48.1272C50.1198 48.0595 50.1684 48.4672 50.1854 49.1124Z" fill="#F9FBFA"/>
<path d="M93.8914 58.3283C92.8481 58.3283 91.9065 58.3283 90.9209 58.3283C90.9209 54.5391 90.9209 50.8456 90.9209 47.082C93.0408 47.082 95.1632 47.082 97.3282 47.082C97.3282 47.3835 97.3282 47.6927 97.3282 48.077C95.6191 48.077 93.9016 48.077 92.1149 48.077C92.1149 49.4342 92.1149 50.7196 92.1149 52.1039C93.7768 52.1039 95.452 52.1039 97.1675 52.1039C97.1675 52.5055 97.1675 52.8098 97.1675 53.2122C95.4854 53.2122 93.8091 53.2122 92.093 53.2122C92.093 54.5933 92.093 55.8763 92.093 57.2408C93.8546 57.2408 95.5705 57.2408 97.3273 57.2408C97.3273 57.6213 97.3273 57.9212 97.3273 58.3283C96.213 58.3283 95.1031 58.3283 93.8914 58.3283Z" fill="#F9FBFA"/>
<path d="M31.2323 55.2825C30.9309 55.2825 30.7222 55.3135 30.5246 55.2777C28.541 54.9174 27.1485 55.4455 26.7452 57.7614C26.6906 58.0749 26.008 58.2702 25.6162 58.5202C25.5345 58.4255 25.4528 58.3307 25.3711 58.2359C26.9272 54.2988 28.4834 50.3616 30.13 46.1953C31.7688 50.3466 33.3247 54.2883 34.882 58.2333C34.0146 58.5307 33.4859 58.2889 33.2889 57.3587C33.2172 57.0199 32.9947 56.7145 32.9303 56.3755C32.7494 55.4237 32.202 55.1108 31.2323 55.2825ZM30.3758 49.6228C30.3031 49.4865 30.2303 49.3503 30.0963 49.0994C29.4433 50.8252 28.8353 52.4321 28.2166 54.067C29.5313 54.067 30.7263 54.067 32.0314 54.067C31.4734 52.5726 30.9511 51.1741 30.3758 49.6228Z" fill="#F9FBFA"/>
<path d="M72.6837 54.5045C72.3841 54.0715 72.1231 53.7031 71.7357 53.1564C71.7357 54.9638 71.7357 56.5827 71.7357 58.2783C71.3163 58.2995 70.9966 58.3157 70.6123 58.3351C70.6123 54.5598 70.6123 50.8408 70.6123 47.0683C70.9483 47.0683 71.2693 47.0683 71.6662 47.0683C71.6662 48.7049 71.6662 50.3115 71.6662 51.918C71.7357 51.9529 71.8052 51.9877 71.8747 52.0225C72.8203 50.6492 73.7659 49.2759 74.7114 47.9025C75.3839 46.9257 75.3839 46.9256 76.7061 47.1319C75.4089 48.973 74.1355 50.7802 72.8071 52.6656C74.0958 54.4991 75.3862 56.3351 76.6979 58.2013C75.7455 58.5644 75.1654 58.227 74.6726 57.4111C74.0783 56.4273 73.3771 55.5134 72.6837 54.5045Z" fill="#F9FBFA"/>
<path d="M114.307 56.8164C114.307 53.8899 114.307 51.0669 114.307 48.1309C113.435 48.1309 112.605 48.1309 111.72 48.1309C111.697 47.7193 111.681 47.4169 111.659 47.0283C113.83 47.0283 115.945 47.0283 118.1 47.0283C118.1 47.3682 118.1 47.6758 118.1 48.092C117.243 48.092 116.411 48.092 115.495 48.092C115.495 51.54 115.495 54.8809 115.495 58.2698C115.081 58.2698 114.754 58.2698 114.307 58.2698C114.307 57.8167 114.307 57.3682 114.307 56.8164Z" fill="#F9FBFA"/>
<path d="M133.269 58.3177C132.748 58.3507 132.406 58.3933 132.412 57.7149C132.445 54.1915 132.427 50.6677 132.427 47.082C132.8 47.082 133.116 47.082 133.541 47.082C133.541 49.6268 133.559 52.1553 133.534 54.6834C133.521 55.8936 133.425 57.1028 133.269 58.3177Z" fill="#F9FBFA"/>
</svg>
