<svg width="1281" height="561" viewBox="0 0 1281 561" fill="none" xmlns="http://www.w3.org/2000/svg">
<path d="M185.5 106L185.207 106.405L185.5 106ZM372 321.5L371.817 321.965L372 321.5ZM755.5 321.5L755.396 321.011L755.5 321.5ZM1197 17L1192.2 20.2151L1197.39 22.7605L1197 17ZM73.6471 64.2418C73.9204 64.2815 74.174 64.092 74.2136 63.8188C74.2533 63.5455 74.0638 63.2918 73.7905 63.2522L73.6471 64.2418ZM84.2231 64.8178C83.9503 64.7751 83.6946 64.9618 83.6519 65.2346C83.6093 65.5074 83.7959 65.7632 84.0688 65.8058L84.2231 64.8178ZM94.4465 67.5182C94.7185 67.5659 94.9777 67.384 95.0253 67.112C95.073 66.84 94.8912 66.5809 94.6192 66.5332L94.4465 67.5182ZM104.983 68.4936C104.713 68.4382 104.449 68.6125 104.393 68.883C104.338 69.1535 104.512 69.4178 104.783 69.4732L104.983 68.4936ZM115.031 71.7834C115.299 71.8499 115.571 71.6866 115.637 71.4186C115.704 71.1506 115.54 70.8794 115.272 70.8128L115.031 71.7834ZM125.448 73.6212C125.184 73.5403 124.904 73.6888 124.823 73.9528C124.742 74.2168 124.891 74.4964 125.155 74.5773L125.448 73.6212ZM135.091 77.9632C135.349 78.0607 135.638 77.9303 135.735 77.6719C135.833 77.4135 135.702 77.1251 135.444 77.0276L135.091 77.9632ZM145.196 81.0818C144.945 80.9674 144.648 81.0785 144.534 81.3298C144.419 81.5812 144.53 81.8776 144.782 81.992L145.196 81.0818ZM154.197 86.6391C154.441 86.7687 154.743 86.6761 154.873 86.4323C155.003 86.1885 154.91 85.8857 154.666 85.7561L154.197 86.6391ZM163.854 90.9627C163.617 90.8205 163.31 90.8972 163.167 91.134C163.025 91.3707 163.102 91.6779 163.339 91.82L163.854 90.9627ZM172.221 97.416C172.452 97.5678 172.762 97.5038 172.914 97.2731C173.066 97.0424 173.002 96.7324 172.771 96.5806L172.221 97.416ZM181.494 102.527C181.268 102.368 180.956 102.422 180.797 102.648C180.638 102.874 180.692 103.186 180.918 103.345L181.494 102.527ZM189.064 109.335C189.279 109.507 189.594 109.471 189.766 109.256C189.938 109.04 189.903 108.725 189.687 108.553L189.064 109.335ZM197.035 114.973C196.835 114.782 196.518 114.79 196.328 114.99C196.137 115.19 196.145 115.506 196.344 115.697L197.035 114.973ZM203.071 122.65C203.255 122.856 203.571 122.874 203.777 122.689C203.983 122.505 204 122.189 203.816 121.983L203.071 122.65ZM210.063 129.466C209.893 129.248 209.579 129.209 209.361 129.379C209.143 129.549 209.105 129.863 209.275 130.081L210.063 129.466ZM215.016 137.89C215.173 138.116 215.485 138.173 215.712 138.015C215.939 137.857 215.995 137.546 215.837 137.319L215.016 137.89ZM221.212 145.454C221.064 145.221 220.756 145.15 220.522 145.298C220.288 145.445 220.218 145.754 220.366 145.987L221.212 145.454ZM225.388 154.284C225.527 154.522 225.834 154.603 226.072 154.464C226.311 154.325 226.391 154.019 226.252 153.78L225.388 154.284ZM231.041 162.247C230.908 162.005 230.604 161.917 230.362 162.05C230.12 162.183 230.031 162.487 230.165 162.729L231.041 162.247ZM234.768 171.279C234.897 171.523 235.199 171.616 235.444 171.487C235.688 171.358 235.781 171.056 235.652 170.812L234.768 171.279ZM240.152 179.435C240.025 179.189 239.724 179.093 239.478 179.22C239.233 179.347 239.137 179.649 239.264 179.894L240.152 179.435ZM243.712 188.539C243.839 188.785 244.14 188.881 244.386 188.755C244.631 188.629 244.728 188.328 244.602 188.082L243.712 188.539ZM249.058 196.723C248.931 196.478 248.629 196.382 248.384 196.51C248.139 196.637 248.043 196.939 248.17 197.184L249.058 196.723ZM252.69 205.8C252.819 206.044 253.122 206.136 253.366 206.007C253.61 205.877 253.702 205.574 253.573 205.331L252.69 205.8ZM258.191 213.872C258.057 213.63 257.753 213.542 257.512 213.675C257.27 213.809 257.182 214.113 257.315 214.355L258.191 213.872ZM262.095 222.827C262.233 223.066 262.539 223.148 262.778 223.01C263.017 222.872 263.099 222.566 262.961 222.327L262.095 222.827ZM267.923 230.668C267.779 230.432 267.471 230.359 267.235 230.503C267 230.647 266.926 230.955 267.07 231.19L267.923 230.668ZM272.278 239.414C272.429 239.645 272.739 239.709 272.97 239.558C273.201 239.407 273.266 239.097 273.114 238.866L272.278 239.414ZM278.567 246.89C278.408 246.664 278.096 246.61 277.87 246.769C277.644 246.929 277.59 247.24 277.75 247.466L278.567 246.89ZM283.513 255.315C283.681 255.534 283.995 255.576 284.214 255.408C284.433 255.24 284.475 254.926 284.307 254.707L283.513 255.315ZM290.357 262.285C290.18 262.073 289.865 262.045 289.652 262.222C289.44 262.398 289.412 262.714 289.589 262.926L290.357 262.285ZM295.991 270.266C296.177 270.47 296.493 270.484 296.697 270.298C296.901 270.112 296.915 269.795 296.729 269.591L295.991 270.266ZM303.432 276.594C303.236 276.399 302.92 276.399 302.725 276.595C302.53 276.791 302.531 277.107 302.726 277.302L303.432 276.594ZM309.794 284.005C309.999 284.19 310.316 284.174 310.501 283.969C310.686 283.764 310.669 283.448 310.464 283.263L309.794 284.005ZM317.82 289.574C317.606 289.4 317.291 289.432 317.117 289.646C316.942 289.86 316.974 290.175 317.188 290.349L317.82 289.574ZM324.894 296.314C325.116 296.477 325.429 296.429 325.593 296.207C325.756 295.984 325.708 295.671 325.486 295.508L324.894 296.314ZM333.444 301.05C333.213 300.898 332.903 300.962 332.751 301.192C332.599 301.423 332.663 301.733 332.893 301.885L333.444 301.05ZM341.166 307.055C341.404 307.196 341.711 307.117 341.851 306.88C341.992 306.642 341.913 306.335 341.675 306.195L341.166 307.055ZM350.144 310.932C349.9 310.803 349.598 310.896 349.469 311.141C349.34 311.385 349.433 311.687 349.677 311.816L350.144 310.932ZM358.368 316.157C358.617 316.275 358.915 316.168 359.033 315.918C359.151 315.669 359.044 315.371 358.794 315.253L358.368 316.157ZM367.634 319.185C367.38 319.078 367.087 319.198 366.98 319.453C366.873 319.708 366.993 320.001 367.248 320.107L367.634 319.185ZM376.572 323.787C376.831 323.883 377.119 323.751 377.215 323.492C377.311 323.233 377.179 322.946 376.921 322.849L376.572 323.787ZM386.565 326.235C386.303 326.149 386.02 326.291 385.934 326.553C385.847 326.815 385.989 327.098 386.251 327.185L386.565 326.235ZM396.007 330.233C396.272 330.311 396.55 330.159 396.628 329.895C396.706 329.63 396.555 329.352 396.29 329.274L396.007 330.233ZM406.11 332.002C405.843 331.932 405.57 332.092 405.5 332.359C405.43 332.626 405.59 332.9 405.857 332.969L406.11 332.002ZM415.791 335.418C416.06 335.48 416.328 335.313 416.391 335.044C416.453 334.775 416.286 334.506 416.017 334.444L415.791 335.418ZM425.991 336.617C425.72 336.561 425.456 336.736 425.401 337.006C425.346 337.277 425.52 337.541 425.791 337.596L425.991 336.617ZM435.843 339.522C436.115 339.57 436.375 339.389 436.423 339.118C436.472 338.846 436.291 338.586 436.019 338.537L435.843 339.522ZM446.09 340.221C445.817 340.179 445.562 340.366 445.519 340.638C445.477 340.911 445.664 341.167 445.936 341.209L446.09 340.221ZM456.062 342.673C456.336 342.71 456.587 342.518 456.624 342.244C456.661 341.971 456.468 341.719 456.195 341.682L456.062 342.673ZM466.326 342.934C466.051 342.902 465.804 343.1 465.772 343.374C465.741 343.648 465.939 343.896 466.213 343.927L466.326 342.934ZM476.384 344.982C476.658 345.008 476.902 344.806 476.928 344.531C476.954 344.256 476.752 344.012 476.477 343.986L476.384 344.982ZM486.646 344.852C486.371 344.831 486.131 345.037 486.11 345.312C486.089 345.588 486.295 345.828 486.57 345.849L486.646 344.852ZM496.77 346.537C497.046 346.554 497.282 346.343 497.299 346.068C497.315 345.792 497.105 345.555 496.829 345.539L496.77 346.537ZM507.024 346.057C506.748 346.046 506.515 346.26 506.503 346.536C506.491 346.811 506.705 347.045 506.981 347.056L507.024 346.057ZM517.203 347.414C517.479 347.422 517.709 347.204 517.716 346.928C517.724 346.652 517.506 346.422 517.23 346.415L517.203 347.414ZM527.447 346.618C527.171 346.614 526.944 346.835 526.94 347.112C526.937 347.388 527.158 347.614 527.434 347.618L527.447 346.618ZM537.676 347.674C537.952 347.673 538.175 347.449 538.175 347.173C538.174 346.897 537.95 346.673 537.674 346.674L537.676 347.674ZM547.887 346.589C547.611 346.593 547.391 346.82 547.395 347.096C547.399 347.372 547.626 347.593 547.902 347.589L547.887 346.589ZM558.106 347.369C558.382 347.361 558.599 347.131 558.592 346.855C558.584 346.579 558.354 346.362 558.078 346.369L558.106 347.369ZM568.277 346.02C568.001 346.032 567.786 346.264 567.797 346.54C567.808 346.816 568.041 347.031 568.317 347.02L568.277 346.02ZM578.538 346.545C578.814 346.53 579.025 346.295 579.011 346.019C578.997 345.744 578.761 345.532 578.486 345.546L578.538 346.545ZM588.707 344.951C588.431 344.969 588.222 345.206 588.24 345.482C588.257 345.758 588.495 345.967 588.771 345.949L588.707 344.951ZM598.951 345.24C599.226 345.22 599.433 344.98 599.412 344.704C599.391 344.429 599.151 344.223 598.876 344.243L598.951 345.24ZM609.043 343.424C608.767 343.448 608.564 343.69 608.587 343.965C608.611 344.24 608.853 344.444 609.128 344.42L609.043 343.424ZM619.32 343.491C619.595 343.464 619.796 343.22 619.77 342.945C619.743 342.67 619.499 342.469 619.224 342.496L619.32 343.491ZM629.41 341.461C629.135 341.491 628.937 341.737 628.966 342.012C628.995 342.286 629.241 342.485 629.516 342.456L629.41 341.461ZM639.646 341.326C639.92 341.294 640.116 341.046 640.084 340.772C640.053 340.498 639.804 340.301 639.53 340.333L639.646 341.326ZM649.67 339.104C649.396 339.139 649.202 339.389 649.236 339.663C649.271 339.937 649.521 340.131 649.795 340.096L649.67 339.104ZM659.966 338.768C660.24 338.731 660.432 338.479 660.394 338.205C660.357 337.932 660.106 337.74 659.832 337.777L659.966 338.768ZM669.916 336.367C669.642 336.407 669.453 336.66 669.492 336.933C669.532 337.207 669.785 337.396 670.058 337.357L669.916 336.367ZM680.168 335.853C680.441 335.812 680.629 335.556 680.587 335.283C680.545 335.011 680.29 334.823 680.017 334.865L680.168 335.853ZM690.145 333.27C689.872 333.315 689.687 333.571 689.731 333.844C689.775 334.116 690.032 334.302 690.305 334.258L690.145 333.27ZM700.351 332.591C700.623 332.545 700.806 332.286 700.76 332.014C700.713 331.742 700.455 331.559 700.183 331.605L700.351 332.591ZM710.253 329.851C709.981 329.9 709.8 330.159 709.848 330.431C709.897 330.703 710.156 330.884 710.428 330.836L710.253 329.851ZM720.501 329C720.773 328.949 720.952 328.688 720.901 328.417C720.851 328.145 720.59 327.966 720.318 328.017L720.501 329ZM730.327 326.113C730.056 326.166 729.879 326.428 729.932 326.699C729.984 326.97 730.247 327.148 730.518 327.095L730.327 326.113ZM740.573 325.105C740.844 325.051 741.019 324.787 740.965 324.516C740.91 324.245 740.646 324.07 740.376 324.125L740.573 325.105ZM750.362 322.073C750.091 322.13 749.918 322.395 749.974 322.665C750.031 322.935 750.296 323.109 750.566 323.052L750.362 322.073ZM760.524 320.91C760.793 320.849 760.962 320.581 760.901 320.312C760.841 320.042 760.573 319.873 760.304 319.934L760.524 320.91ZM770.229 317.568C769.961 317.635 769.798 317.906 769.865 318.174C769.933 318.442 770.204 318.605 770.472 318.537L770.229 317.568ZM780.271 315.965C780.537 315.892 780.694 315.617 780.621 315.351C780.548 315.084 780.273 314.927 780.007 315L780.271 315.965ZM789.793 312.21C789.529 312.288 789.378 312.567 789.456 312.831C789.534 313.096 789.812 313.247 790.077 313.169L789.793 312.21ZM799.815 310.184C800.079 310.101 800.224 309.82 800.141 309.557C800.058 309.293 799.777 309.148 799.513 309.231L799.815 310.184ZM809.153 306.081C808.891 306.169 808.75 306.453 808.838 306.715C808.926 306.976 809.21 307.117 809.472 307.029L809.153 306.081ZM819.131 303.686C819.391 303.594 819.527 303.308 819.434 303.048C819.342 302.788 819.056 302.652 818.796 302.744L819.131 303.686ZM828.306 299.277C828.047 299.374 827.916 299.662 828.012 299.921C828.109 300.179 828.397 300.311 828.656 300.214L828.306 299.277ZM838.178 296.574C838.435 296.474 838.562 296.184 838.461 295.927C838.361 295.669 838.071 295.543 837.814 295.643L838.178 296.574ZM847.246 291.876C846.991 291.98 846.868 292.272 846.972 292.528C847.076 292.784 847.368 292.906 847.624 292.802L847.246 291.876ZM857.017 288.896C857.271 288.788 857.39 288.494 857.282 288.24C857.174 287.986 856.881 287.867 856.627 287.975L857.017 288.896ZM865.971 283.938C865.719 284.049 865.604 284.345 865.715 284.597C865.826 284.85 866.121 284.965 866.374 284.854L865.971 283.938ZM875.646 280.704C875.897 280.589 876.008 280.293 875.894 280.041C875.78 279.79 875.483 279.679 875.232 279.793L875.646 280.704ZM884.481 275.512C884.231 275.63 884.124 275.927 884.242 276.177C884.359 276.427 884.657 276.534 884.907 276.417L884.481 275.512ZM894.064 272.041C894.313 271.92 894.417 271.621 894.296 271.373C894.175 271.124 893.876 271.021 893.628 271.141L894.064 272.041ZM902.761 266.642C902.514 266.766 902.414 267.066 902.537 267.313C902.661 267.56 902.961 267.66 903.208 267.537L902.761 266.642ZM912.272 262.941C912.517 262.815 912.614 262.513 912.488 262.268C912.361 262.022 912.06 261.925 911.814 262.052L912.272 262.941ZM920.834 257.348C920.59 257.477 920.497 257.78 920.626 258.024C920.755 258.268 921.057 258.361 921.302 258.232L920.834 257.348ZM930.267 253.43C930.51 253.298 930.6 252.994 930.468 252.752C930.336 252.509 930.033 252.419 929.79 252.551L930.267 253.43ZM938.7 247.652C938.458 247.786 938.372 248.091 938.506 248.332C938.64 248.573 938.945 248.66 939.186 248.526L938.7 247.652ZM948.049 243.527C948.289 243.39 948.372 243.085 948.235 242.845C948.098 242.605 947.793 242.522 947.553 242.659L948.049 243.527ZM956.354 237.571C956.115 237.711 956.035 238.017 956.175 238.255C956.314 238.494 956.62 238.574 956.859 238.434L956.354 237.571ZM965.614 233.249C965.851 233.107 965.928 232.8 965.786 232.563C965.644 232.326 965.337 232.249 965.1 232.391L965.614 233.249ZM973.792 227.119C973.557 227.264 973.483 227.571 973.627 227.807C973.772 228.042 974.08 228.116 974.315 227.971L973.792 227.119ZM982.958 222.605C983.192 222.458 983.262 222.149 983.115 221.916C982.968 221.682 982.66 221.611 982.426 221.758L982.958 222.605ZM991.009 216.304C990.776 216.453 990.709 216.763 990.858 216.995C991.008 217.227 991.317 217.295 991.549 217.145L991.009 216.304ZM1000.07 211.602C1000.3 211.451 1000.37 211.141 1000.22 210.91C1000.06 210.679 999.755 210.615 999.524 210.767L1000.07 211.602ZM1007.99 205.131C1007.77 205.285 1007.71 205.596 1007.86 205.825C1008.01 206.054 1008.32 206.115 1008.55 205.961L1007.99 205.131ZM1016.96 200.241C1017.18 200.084 1017.24 199.773 1017.08 199.545C1016.93 199.318 1016.62 199.26 1016.39 199.417L1016.96 200.241ZM1024.74 193.601C1024.51 193.76 1024.46 194.072 1024.62 194.298C1024.78 194.524 1025.09 194.578 1025.32 194.419L1024.74 193.601ZM1033.6 188.518C1033.82 188.357 1033.87 188.044 1033.71 187.82C1033.55 187.596 1033.24 187.545 1033.01 187.707L1033.6 188.518ZM1041.23 181.712C1041.01 181.876 1040.96 182.189 1041.12 182.412C1041.29 182.634 1041.6 182.681 1041.82 182.517L1041.23 181.712ZM1049.98 176.431C1050.2 176.264 1050.24 175.951 1050.07 175.73C1049.91 175.51 1049.59 175.466 1049.37 175.633L1049.98 176.431ZM1057.45 169.459C1057.23 169.628 1057.19 169.942 1057.36 170.161C1057.53 170.379 1057.84 170.419 1058.06 170.25L1057.45 169.459ZM1066.07 163.97C1066.29 163.799 1066.33 163.484 1066.16 163.268C1065.98 163.051 1065.67 163.015 1065.45 163.187L1066.07 163.97ZM1073.36 156.833C1073.15 157.007 1073.12 157.322 1073.29 157.537C1073.47 157.751 1073.78 157.783 1074 157.609L1073.36 156.833ZM1081.87 151.125C1082.08 150.948 1082.11 150.632 1081.93 150.42C1081.75 150.208 1081.44 150.18 1081.23 150.357L1081.87 151.125ZM1088.96 143.818C1088.75 143.998 1088.73 144.313 1088.91 144.523C1089.09 144.733 1089.4 144.757 1089.61 144.577L1088.96 143.818ZM1097.32 137.878C1097.53 137.696 1097.55 137.38 1097.37 137.173C1097.18 136.965 1096.87 136.945 1096.66 137.128L1097.32 137.878ZM1104.23 130.367C1104.02 130.552 1104.01 130.868 1104.19 131.073C1104.38 131.278 1104.69 131.293 1104.9 131.108L1104.23 130.367ZM1112.39 124.212C1112.59 124.023 1112.6 123.707 1112.42 123.505C1112.23 123.303 1111.91 123.292 1111.71 123.481L1112.39 124.212ZM1119.09 116.477C1118.89 116.669 1118.88 116.985 1119.08 117.184C1119.27 117.383 1119.58 117.389 1119.78 117.197L1119.09 116.477ZM1127.02 110.101C1127.22 109.906 1127.22 109.59 1127.02 109.394C1126.83 109.199 1126.51 109.198 1126.31 109.393L1127.02 110.101ZM1133.48 102.122C1133.29 102.321 1133.29 102.637 1133.49 102.829C1133.69 103.021 1134.01 103.016 1134.2 102.818L1133.48 102.122ZM1141.2 95.4495C1141.39 95.2475 1141.37 94.9311 1141.17 94.7429C1140.97 94.5546 1140.65 94.5658 1140.47 94.7678L1141.2 95.4495ZM1147.31 87.2722C1147.13 87.478 1147.14 87.7941 1147.35 87.9782C1147.56 88.1623 1147.87 88.1446 1148.06 87.9388L1147.31 87.2722ZM1154.78 80.2524C1154.96 80.0426 1154.93 79.727 1154.73 79.5475C1154.52 79.368 1154.2 79.3926 1154.02 79.6025L1154.78 80.2524ZM1160.51 71.828C1160.34 72.0421 1160.37 72.357 1160.58 72.5314C1160.8 72.7058 1161.11 72.6737 1161.29 72.4596L1160.51 71.828ZM1167.61 64.4843C1167.78 64.2657 1167.74 63.9517 1167.52 63.783C1167.31 63.6143 1166.99 63.6548 1166.82 63.8734L1167.61 64.4843ZM1172.93 55.718C1172.77 55.9415 1172.82 56.2541 1173.04 56.4164C1173.27 56.5786 1173.58 56.529 1173.74 56.3056L1172.93 55.718ZM1179.59 47.9805C1179.74 47.7519 1179.68 47.441 1179.45 47.2861C1179.22 47.1312 1178.91 47.1908 1178.76 47.4194L1179.59 47.9805ZM1184.27 38.9635C1184.13 39.1975 1184.2 39.5061 1184.43 39.6527C1184.67 39.7992 1184.98 39.7283 1185.12 39.4943L1184.27 38.9635ZM1190.38 30.7116C1190.51 30.4717 1190.43 30.1663 1190.19 30.0296C1189.95 29.8928 1189.65 29.9764 1189.51 30.2163L1190.38 30.7116ZM1194.34 21.2682C1194.21 21.5144 1194.31 21.8154 1194.56 21.9406C1194.8 22.0659 1195.11 21.9679 1195.23 21.7218L1194.34 21.2682ZM68.4299 63.4951C70.2026 63.7459 71.941 63.9945 73.6471 64.2418L73.7905 63.2522C72.0832 63.0047 70.3436 62.7559 68.5701 62.5049L68.4299 63.4951ZM84.0688 65.8058C87.6691 66.3683 91.1209 66.9352 94.4465 67.5182L94.6192 66.5332C91.2863 65.9489 87.8283 65.3811 84.2231 64.8178L84.0688 65.8058ZM104.783 69.4732C108.323 70.1993 111.728 70.9634 115.031 71.7834L115.272 70.8128C111.954 69.9891 108.536 69.2221 104.983 68.4936L104.783 69.4732ZM125.155 74.5773C128.53 75.6112 131.828 76.7324 135.091 77.9632L135.444 77.0276C132.16 75.7889 128.842 74.661 125.448 73.6212L125.155 74.5773ZM144.782 81.992C147.9 83.411 151.026 84.9533 154.197 86.6391L154.666 85.7561C151.478 84.0611 148.334 82.5097 145.196 81.0818L144.782 81.992ZM163.339 91.82C166.229 93.5551 169.181 95.4158 172.221 97.416L172.771 96.5806C169.72 94.5735 166.756 92.7054 163.854 90.9627L163.339 91.82ZM180.918 103.345C182.326 104.336 183.755 105.355 185.207 106.405L185.793 105.595C184.337 104.543 182.905 103.52 181.494 102.527L180.918 103.345ZM185.207 106.405C186.519 107.354 187.804 108.331 189.064 109.335L189.687 108.553C188.415 107.539 187.118 106.553 185.793 105.595L185.207 106.405ZM196.344 115.697C198.672 117.917 200.911 120.238 203.071 122.65L203.816 121.983C201.639 119.552 199.383 117.213 197.035 114.973L196.344 115.697ZM209.275 130.081C211.247 132.608 213.157 135.213 215.016 137.89L215.837 137.319C213.969 134.629 212.048 132.008 210.063 129.466L209.275 130.081ZM220.366 145.987C222.074 148.697 223.744 151.465 225.388 154.284L226.252 153.78C224.603 150.953 222.926 148.175 221.212 145.454L220.366 145.987ZM230.165 162.729C231.711 165.541 233.243 168.393 234.768 171.279L235.652 170.812C234.125 167.922 232.591 165.065 231.041 162.247L230.165 162.729ZM239.264 179.894C240.741 182.753 242.221 185.636 243.712 188.539L244.602 188.082C243.111 185.18 241.63 182.295 240.152 179.435L239.264 179.894ZM248.17 197.184C249.655 200.046 251.159 202.92 252.69 205.8L253.573 205.331C252.044 202.454 250.542 199.583 249.058 196.723L248.17 197.184ZM257.315 214.355C258.873 217.18 260.463 220.006 262.095 222.827L262.961 222.327C261.333 219.512 259.745 216.692 258.191 213.872L257.315 214.355ZM267.07 231.19C268.757 233.943 270.491 236.686 272.278 239.414L273.114 238.866C271.333 236.147 269.605 233.413 267.923 230.668L267.07 231.19ZM277.75 247.466C279.611 250.104 281.53 252.721 283.513 255.315L284.307 254.707C282.332 252.125 280.421 249.517 278.567 246.89L277.75 247.466ZM289.589 262.926C291.653 265.402 293.785 267.85 295.991 270.266L296.729 269.591C294.534 267.187 292.412 264.75 290.357 262.285L289.589 262.926ZM302.726 277.302C305.006 279.573 307.36 281.808 309.794 284.005L310.464 283.263C308.042 281.077 305.7 278.853 303.432 276.594L302.726 277.302ZM317.188 290.349C319.676 292.378 322.243 294.367 324.894 296.314L325.486 295.508C322.849 293.571 320.295 291.592 317.82 289.574L317.188 290.349ZM332.893 301.885C335.57 303.651 338.326 305.376 341.166 307.055L341.675 306.195C338.849 304.523 336.107 302.808 333.444 301.05L332.893 301.885ZM349.677 311.816C352.496 313.306 355.391 314.754 358.368 316.157L358.794 315.253C355.831 313.856 352.949 312.415 350.144 310.932L349.677 311.816ZM367.248 320.107C368.751 320.738 370.274 321.357 371.817 321.965L372.183 321.035C370.648 320.429 369.131 319.813 367.634 319.185L367.248 320.107ZM371.817 321.965C373.38 322.581 374.965 323.189 376.572 323.787L376.921 322.849C375.319 322.254 373.74 321.649 372.183 321.035L371.817 321.965ZM386.251 327.185C389.425 328.235 392.677 329.252 396.007 330.233L396.29 329.274C392.97 328.296 389.729 327.283 386.565 326.235L386.251 327.185ZM405.857 332.969C409.101 333.818 412.412 334.635 415.791 335.418L416.017 334.444C412.646 333.663 409.344 332.848 406.11 332.002L405.857 332.969ZM425.791 337.596C429.082 338.269 432.433 338.911 435.843 339.522L436.019 338.537C432.617 337.928 429.274 337.287 425.991 336.617L425.791 337.596ZM445.936 341.209C449.259 341.726 452.634 342.215 456.062 342.673L456.195 341.682C452.773 341.224 449.405 340.737 446.09 340.221L445.936 341.209ZM466.213 343.927C469.556 344.306 472.946 344.658 476.384 344.982L476.477 343.986C473.046 343.663 469.662 343.312 466.326 342.934L466.213 343.927ZM486.57 345.849C489.927 346.104 493.327 346.334 496.77 346.537L496.829 345.539C493.392 345.336 489.997 345.107 486.646 344.852L486.57 345.849ZM506.981 347.056C510.349 347.201 513.756 347.32 517.203 347.414L517.23 346.415C513.789 346.32 510.387 346.201 507.024 346.057L506.981 347.056ZM527.434 347.618C530.812 347.66 534.226 347.679 537.676 347.674L537.674 346.674C534.229 346.679 530.82 346.66 527.447 346.618L527.434 347.618ZM547.902 347.589C551.27 347.538 554.672 347.465 558.106 347.369L558.078 346.369C554.648 346.465 551.251 346.538 547.887 346.589L547.902 347.589ZM568.317 347.02C571.693 346.883 575.1 346.725 578.538 346.545L578.486 345.546C575.052 345.726 571.649 345.884 568.277 346.02L568.317 347.02ZM588.771 345.949C592.135 345.734 595.529 345.498 598.951 345.24L598.876 344.243C595.458 344.5 592.068 344.736 588.707 344.951L588.771 345.949ZM609.128 344.42C612.499 344.131 615.896 343.821 619.32 343.491L619.224 342.496C615.803 342.825 612.409 343.135 609.043 343.424L609.128 344.42ZM629.516 342.456C632.868 342.099 636.244 341.722 639.646 341.326L639.53 340.333C636.132 340.729 632.758 341.105 629.41 341.461L629.516 342.456ZM649.795 340.096C653.161 339.672 656.552 339.23 659.966 338.768L659.832 337.777C656.421 338.238 653.033 338.681 649.67 339.104L649.795 340.096ZM670.058 337.357C673.406 336.874 676.776 336.373 680.168 335.853L680.017 334.865C676.628 335.384 673.26 335.884 669.916 336.367L670.058 337.357ZM690.305 334.258C693.632 333.719 696.981 333.164 700.351 332.591L700.183 331.605C696.816 332.178 693.47 332.733 690.145 333.27L690.305 334.258ZM710.428 330.836C713.766 330.241 717.124 329.629 720.501 329L720.318 328.017C716.943 328.645 713.588 329.257 710.253 329.851L710.428 330.836ZM730.518 327.095C733.851 326.448 737.202 325.785 740.573 325.105L740.376 324.125C737.007 324.804 733.658 325.467 730.327 326.113L730.518 327.095ZM750.566 323.052C752.241 322.702 753.92 322.348 755.604 321.989L755.396 321.011C753.713 321.369 752.035 321.723 750.362 322.073L750.566 323.052ZM755.604 321.989C757.238 321.641 758.878 321.281 760.524 320.91L760.304 319.934C758.661 320.305 757.025 320.664 755.396 321.011L755.604 321.989ZM770.472 318.537C773.718 317.723 776.985 316.865 780.271 315.965L780.007 315C776.727 315.899 773.467 316.755 770.229 317.568L770.472 318.537ZM790.077 313.169C793.307 312.213 796.554 311.218 799.815 310.184L799.513 309.231C796.257 310.263 793.017 311.256 789.793 312.21L790.077 313.169ZM809.472 307.029C812.679 305.95 815.899 304.835 819.131 303.686L818.796 302.744C815.569 303.891 812.354 305.004 809.153 306.081L809.472 307.029ZM828.656 300.214C831.821 299.032 834.995 297.819 838.178 296.574L837.814 295.643C834.636 296.885 831.466 298.097 828.306 299.277L828.656 300.214ZM847.624 292.802C850.749 291.528 853.88 290.225 857.017 288.896L856.627 287.975C853.494 289.303 850.367 290.604 847.246 291.876L847.624 292.802ZM866.374 284.854C869.461 283.496 872.552 282.112 875.646 280.704L875.232 279.793C872.142 281.2 869.055 282.582 865.971 283.938L866.374 284.854ZM884.907 276.417C887.958 274.981 891.011 273.522 894.064 272.041L893.628 271.141C890.578 272.621 887.529 274.078 884.481 275.512L884.907 276.417ZM903.208 267.537C906.231 266.026 909.252 264.494 912.272 262.941L911.814 262.052C908.798 263.603 905.78 265.133 902.761 266.642L903.208 267.537ZM921.302 258.232C924.294 256.651 927.282 255.05 930.267 253.43L929.79 252.551C926.809 254.169 923.823 255.768 920.834 257.348L921.302 258.232ZM939.186 248.526C942.146 246.877 945.101 245.211 948.049 243.527L947.553 242.659C944.608 244.341 941.656 246.005 938.7 247.652L939.186 248.526ZM956.859 238.434C959.785 236.722 962.704 234.993 965.614 233.249L965.1 232.391C962.193 234.134 959.277 235.861 956.354 237.571L956.859 238.434ZM974.315 227.971C977.206 226.197 980.087 224.408 982.958 222.605L982.426 221.758C979.558 223.56 976.68 225.347 973.792 227.119L974.315 227.971ZM991.549 217.145C994.403 215.311 997.244 213.463 1000.07 211.602L999.524 210.767C996.698 212.626 993.859 214.472 991.009 216.304L991.549 217.145ZM1008.55 205.961C1011.37 204.066 1014.17 202.159 1016.96 200.241L1016.39 199.417C1013.61 201.333 1010.81 203.238 1007.99 205.131L1008.55 205.961ZM1025.32 194.419C1028.09 192.463 1030.85 190.496 1033.6 188.518L1033.01 187.707C1030.27 189.682 1027.51 191.647 1024.74 193.601L1025.32 194.419ZM1041.82 182.517C1044.56 180.498 1047.28 178.469 1049.98 176.431L1049.37 175.633C1046.68 177.669 1043.96 179.695 1041.23 181.712L1041.82 182.517ZM1058.06 170.25C1060.75 168.165 1063.43 166.071 1066.07 163.97L1065.45 163.187C1062.81 165.285 1060.14 167.377 1057.45 169.459L1058.06 170.25ZM1074 157.609C1076.65 155.454 1079.27 153.293 1081.87 151.125L1081.23 150.357C1078.63 152.522 1076.01 154.681 1073.36 156.833L1074 157.609ZM1089.61 144.577C1092.21 142.35 1094.78 140.116 1097.32 137.878L1096.66 137.128C1094.12 139.363 1091.56 141.593 1088.96 143.818L1089.61 144.577ZM1104.9 131.108C1107.43 128.813 1109.93 126.514 1112.39 124.212L1111.71 123.481C1109.25 125.78 1106.75 128.075 1104.23 130.367L1104.9 131.108ZM1119.78 117.197C1122.23 114.834 1124.65 112.468 1127.02 110.101L1126.31 109.393C1123.94 111.756 1121.54 114.118 1119.09 116.477L1119.78 117.197ZM1134.2 102.818C1136.58 100.361 1138.91 97.905 1141.2 95.4495L1140.47 94.7678C1138.18 97.2186 1135.85 99.6704 1133.48 102.122L1134.2 102.818ZM1148.06 87.9388C1150.35 85.374 1152.59 82.8114 1154.78 80.2524L1154.02 79.6025C1151.84 82.1557 1149.6 84.7127 1147.31 87.2722L1148.06 87.9388ZM1161.29 72.4596C1163.46 69.7954 1165.57 67.1365 1167.61 64.4843L1166.82 63.8734C1164.78 66.5183 1162.68 69.1704 1160.51 71.828L1161.29 72.4596ZM1173.74 56.3056C1175.76 53.5208 1177.71 50.7451 1179.59 47.9805L1178.76 47.4194C1176.89 50.1748 1174.95 52.9415 1172.93 55.718L1173.74 56.3056ZM1185.12 39.4943C1186.97 36.5513 1188.72 33.623 1190.38 30.7116L1189.51 30.2163C1187.86 33.1152 1186.11 36.0317 1184.27 38.9635L1185.12 39.4943ZM1195.23 21.7218C1195.31 21.5693 1195.39 21.4169 1195.46 21.2646L1194.57 20.8133C1194.49 20.9649 1194.42 21.1166 1194.34 21.2682L1195.23 21.7218Z" fill="#ACBEC8"/>
<rect x="1158" y="118" width="91" height="306" fill="#0D78C3"/>
<rect x="1158" y="118" width="68" height="271" fill="#1080D0"/>
<rect x="902" y="315" width="91" height="159" fill="#0D78C4"/>
<rect x="1030" y="210" width="91" height="263" fill="#0D78C3"/>
<rect x="1030" y="210" width="59" height="265" fill="#1080D0"/>
<rect x="902" y="315" width="65" height="204" fill="#1080D0"/>
<path d="M225.5 502.347C170 502.347 13 399.58 0 399.58V561H639H1281V369C1115.88 397.909 797.582 457.765 696 440.687C532 413.115 292.413 502.347 225.5 502.347Z" fill="#0F85DA"/>
<path d="M288 366.5C151 353 0 382.5 0 382.5V560.5H639H1210C1210 560.5 754 449.238 639 430C534 412.435 368 374.383 288 366.5Z" fill="#1C92E8"/>
<path d="M450.551 534.566V490.942C450.551 490.942 467.556 521.869 450.551 534.566Z" fill="#F1F1F1"/>
<path d="M451.601 534.558L419.456 505.057C419.456 505.057 453.746 513.448 451.601 534.558Z" fill="#F1F1F1"/>
<path d="M338.223 292.484L167.642 392.154C167.045 392.502 166.334 392.599 165.666 392.423C164.997 392.248 164.425 391.815 164.076 391.219L54.3815 203.59C54.0334 202.993 53.9364 202.282 54.1117 201.614C54.287 200.946 54.7204 200.374 55.3166 200.025L225.898 100.355C226.495 100.008 227.205 99.9106 227.874 100.086C228.542 100.261 229.114 100.694 229.463 101.29L339.158 288.92C339.506 289.517 339.603 290.227 339.428 290.895C339.252 291.564 338.819 292.135 338.223 292.484Z" fill="white"/>
<path d="M338.223 292.484L167.642 392.154C167.045 392.502 166.334 392.599 165.666 392.423C164.997 392.248 164.425 391.815 164.076 391.219L54.3815 203.59C54.0334 202.993 53.9364 202.282 54.1117 201.614C54.287 200.946 54.7204 200.374 55.3166 200.025L225.898 100.355C226.495 100.008 227.205 99.9106 227.874 100.086C228.542 100.261 229.114 100.694 229.463 101.29L339.158 288.92C339.506 289.517 339.603 290.227 339.428 290.895C339.252 291.564 338.819 292.135 338.223 292.484ZM55.8427 200.925C55.485 201.134 55.225 201.477 55.1198 201.878C55.0146 202.279 55.0728 202.705 55.2816 203.064L164.976 390.693C165.186 391.051 165.529 391.311 165.93 391.416C166.331 391.521 166.757 391.463 167.116 391.254L337.697 291.584C338.054 291.375 338.314 291.032 338.419 290.631C338.525 290.23 338.466 289.804 338.258 289.446L228.563 101.816C228.353 101.459 228.01 101.199 227.609 101.094C227.208 100.988 226.782 101.047 226.424 101.255L55.8427 200.925Z" fill="#3F3D56"/>
<path d="M165.493 219.61L123.185 244.33C122.588 244.678 121.877 244.775 121.209 244.6C120.541 244.425 119.969 243.991 119.62 243.395L94.8922 201.1C94.5442 200.503 94.4472 199.793 94.6225 199.124C94.7978 198.456 95.2311 197.885 95.8273 197.535L138.135 172.815C138.732 172.467 139.443 172.37 140.111 172.546C140.78 172.721 141.351 173.154 141.701 173.75L166.428 216.045C166.776 216.642 166.873 217.353 166.698 218.021C166.522 218.689 166.089 219.261 165.493 219.61ZM96.3535 198.435C95.9957 198.645 95.7357 198.988 95.6305 199.389C95.5253 199.79 95.5835 200.216 95.7924 200.574L120.52 242.869C120.729 243.227 121.072 243.487 121.473 243.592C121.874 243.697 122.301 243.639 122.659 243.43L164.967 218.71C165.325 218.501 165.585 218.158 165.69 217.757C165.795 217.356 165.737 216.929 165.528 216.571L140.801 174.276C140.591 173.918 140.248 173.658 139.847 173.553C139.446 173.448 139.019 173.506 138.661 173.715L96.3535 198.435Z" fill="#F2F2F2"/>
<path d="M156.366 231.885L114.059 256.605C113.521 256.918 112.882 257.006 112.28 256.848C111.679 256.69 111.164 256.3 110.85 255.764L86.1223 213.469C85.8091 212.931 85.7218 212.292 85.8796 211.69C86.0373 211.089 86.4273 210.575 86.9639 210.26L129.272 185.54C129.809 185.227 130.449 185.14 131.05 185.298C131.652 185.455 132.166 185.845 132.481 186.382L157.208 228.677C157.521 229.214 157.609 229.854 157.451 230.455C157.293 231.056 156.903 231.571 156.366 231.885Z" fill="#0F85DA"/>
<path d="M258.483 199.987L126.159 277.303C125.621 277.617 124.982 277.704 124.38 277.547C123.778 277.389 123.263 276.999 122.949 276.462C122.636 275.925 122.548 275.285 122.706 274.683C122.863 274.082 123.254 273.567 123.791 273.253L256.115 195.937C256.381 195.782 256.675 195.68 256.98 195.638C257.285 195.597 257.596 195.615 257.894 195.693C258.192 195.772 258.472 195.908 258.717 196.094C258.962 196.28 259.169 196.513 259.324 196.779C259.48 197.044 259.581 197.338 259.623 197.643C259.665 197.949 259.646 198.259 259.568 198.557C259.49 198.855 259.354 199.134 259.168 199.38C258.981 199.625 258.749 199.831 258.483 199.987Z" fill="#CCCCCC"/>
<path d="M234.682 232.607L134.314 291.251C134.048 291.407 133.754 291.508 133.449 291.55C133.143 291.592 132.833 291.573 132.535 291.495C131.933 291.337 131.419 290.947 131.105 290.41C130.791 289.873 130.703 289.233 130.861 288.632C131.019 288.03 131.409 287.516 131.946 287.202L232.315 228.557C232.581 228.402 232.874 228.3 233.18 228.259C233.485 228.217 233.795 228.235 234.093 228.314C234.391 228.392 234.671 228.528 234.916 228.714C235.162 228.9 235.368 229.133 235.524 229.399C235.679 229.665 235.781 229.958 235.822 230.264C235.864 230.569 235.846 230.879 235.767 231.177C235.689 231.475 235.553 231.755 235.367 232C235.181 232.245 234.948 232.451 234.682 232.607Z" fill="#CCCCCC"/>
<path d="M228.044 148.955L169.534 183.143C168.996 183.456 168.357 183.544 167.755 183.386C167.153 183.229 166.638 182.838 166.324 182.301C166.011 181.764 165.923 181.125 166.081 180.523C166.238 179.921 166.629 179.407 167.166 179.093L225.677 144.906C226.214 144.592 226.854 144.504 227.456 144.662C227.754 144.74 228.033 144.876 228.279 145.062C228.524 145.248 228.73 145.481 228.886 145.747C229.041 146.013 229.143 146.307 229.185 146.612C229.226 146.917 229.208 147.227 229.13 147.525C229.051 147.823 228.915 148.103 228.729 148.348C228.543 148.594 228.31 148.8 228.044 148.955Z" fill="#CCCCCC"/>
<path d="M221.597 171.436L177.689 197.091C177.423 197.247 177.129 197.348 176.824 197.39C176.518 197.432 176.208 197.413 175.91 197.335C175.612 197.257 175.332 197.121 175.087 196.934C174.842 196.748 174.635 196.516 174.48 196.25C174.324 195.984 174.223 195.69 174.181 195.385C174.139 195.08 174.158 194.769 174.236 194.471C174.314 194.173 174.45 193.894 174.636 193.649C174.823 193.403 175.055 193.197 175.321 193.042L219.23 167.386C219.767 167.072 220.407 166.985 221.009 167.142C221.61 167.3 222.125 167.691 222.439 168.228C222.753 168.765 222.84 169.404 222.683 170.006C222.525 170.608 222.134 171.122 221.597 171.436Z" fill="#CCCCCC"/>
<path d="M274.792 227.884L142.468 305.2C141.931 305.514 141.291 305.601 140.689 305.444C140.087 305.286 139.573 304.895 139.259 304.358C138.945 303.821 138.857 303.182 139.015 302.58C139.173 301.978 139.563 301.464 140.101 301.15L272.425 223.834C272.962 223.52 273.602 223.433 274.203 223.59C274.805 223.748 275.32 224.139 275.634 224.676C275.948 225.213 276.035 225.852 275.878 226.454C275.72 227.056 275.329 227.57 274.792 227.884Z" fill="#CCCCCC"/>
<path d="M250.992 260.504L150.623 319.148C150.357 319.304 150.063 319.405 149.758 319.447C149.453 319.489 149.143 319.47 148.845 319.392C148.547 319.314 148.267 319.178 148.021 318.992C147.776 318.806 147.57 318.573 147.414 318.307C147.259 318.041 147.157 317.747 147.115 317.442C147.074 317.137 147.092 316.827 147.17 316.529C147.249 316.231 147.385 315.951 147.571 315.706C147.757 315.46 147.99 315.254 148.256 315.099L248.624 256.454C248.89 256.299 249.184 256.197 249.489 256.156C249.795 256.114 250.105 256.132 250.403 256.211C250.701 256.289 250.981 256.425 251.226 256.611C251.471 256.797 251.678 257.03 251.833 257.296C251.989 257.562 252.09 257.855 252.132 258.161C252.174 258.466 252.155 258.776 252.077 259.074C251.999 259.372 251.863 259.651 251.677 259.897C251.49 260.142 251.258 260.348 250.992 260.504Z" fill="#CCCCCC"/>
<path d="M291.102 255.781L158.778 333.097C158.512 333.252 158.218 333.354 157.913 333.396C157.607 333.437 157.297 333.419 156.999 333.341C156.701 333.262 156.421 333.126 156.176 332.94C155.93 332.754 155.724 332.521 155.569 332.255C155.413 331.99 155.312 331.696 155.27 331.391C155.228 331.085 155.247 330.775 155.325 330.477C155.403 330.179 155.539 329.9 155.725 329.654C155.912 329.409 156.144 329.203 156.41 329.047L288.734 251.731C289 251.576 289.294 251.474 289.599 251.432C289.905 251.391 290.215 251.409 290.513 251.487C290.811 251.565 291.091 251.702 291.336 251.888C291.582 252.074 291.788 252.307 291.943 252.572C292.099 252.838 292.2 253.132 292.242 253.437C292.284 253.743 292.265 254.053 292.187 254.351C292.109 254.649 291.973 254.928 291.787 255.174C291.6 255.419 291.368 255.625 291.102 255.781Z" fill="#CCCCCC"/>
<path d="M299.257 269.729L166.933 347.045C166.667 347.201 166.373 347.302 166.068 347.344C165.763 347.386 165.452 347.367 165.154 347.289C164.856 347.211 164.576 347.075 164.331 346.889C164.086 346.703 163.879 346.47 163.724 346.204C163.568 345.938 163.467 345.644 163.425 345.339C163.383 345.034 163.402 344.724 163.48 344.426C163.558 344.128 163.694 343.848 163.881 343.603C164.067 343.357 164.3 343.151 164.565 342.996L296.889 265.68C297.155 265.524 297.449 265.423 297.755 265.381C298.06 265.339 298.37 265.358 298.668 265.436C298.966 265.514 299.246 265.65 299.491 265.836C299.737 266.022 299.943 266.255 300.099 266.521C300.254 266.787 300.356 267.081 300.397 267.386C300.439 267.691 300.421 268.001 300.342 268.299C300.264 268.597 300.128 268.877 299.942 269.122C299.756 269.368 299.523 269.574 299.257 269.729Z" fill="#CCCCCC"/>
<path d="M256.466 324.029C258.304 321.865 259.959 319.551 261.413 317.112C262.717 314.911 263.996 312.559 264.284 309.978C264.431 308.879 264.316 307.761 263.949 306.715C263.583 305.668 262.974 304.723 262.173 303.956C261.399 303.243 260.418 302.794 259.372 302.676C258.326 302.557 257.269 302.774 256.354 303.295C255.429 303.826 254.664 304.597 254.142 305.527C253.619 306.457 253.357 307.511 253.385 308.578C253.46 309.752 253.799 310.894 254.377 311.919C254.956 312.943 255.758 313.824 256.724 314.496C260.635 317.329 266.744 317.181 270.912 315.025C275.608 312.597 278.034 306.244 274.345 301.895C273.577 300.991 272.301 302.001 272.493 302.977C272.737 304.295 273.475 305.47 274.556 306.263C275.637 307.055 276.98 307.405 278.311 307.24C279.642 307.076 280.859 306.41 281.715 305.378C282.571 304.346 283 303.027 282.916 301.689L281.258 302.658C283.291 303.559 285.525 303.908 287.736 303.671C289.947 303.433 292.056 302.618 293.852 301.308C294.741 300.662 295.534 299.896 296.209 299.03C297.021 297.972 298.384 297.288 299.489 296.525L307.445 291.029C308.616 290.22 307.503 288.294 306.323 289.109L299.117 294.087C297.916 294.916 296.707 295.735 295.514 296.575C294.66 297.176 294.136 298.145 293.359 298.858C291.889 300.18 290.074 301.057 288.125 301.387C286.175 301.716 284.172 301.485 282.349 300.72C282.18 300.629 281.989 300.583 281.796 300.586C281.604 300.59 281.415 300.643 281.248 300.74C281.082 300.837 280.943 300.976 280.846 301.142C280.748 301.308 280.695 301.497 280.691 301.689C280.779 302.487 280.548 303.288 280.048 303.917C279.548 304.545 278.82 304.951 278.022 305.045C277.225 305.14 276.422 304.915 275.789 304.421C275.156 303.926 274.744 303.202 274.643 302.405L272.791 303.487C275.171 306.293 273.586 310.596 270.845 312.478C267.779 314.583 263.248 314.949 259.792 313.64C258.944 313.348 258.166 312.885 257.505 312.279C256.845 311.673 256.316 310.938 255.953 310.118C255.616 309.378 255.52 308.551 255.678 307.753C255.836 306.956 256.241 306.228 256.835 305.672C257.349 305.164 258.041 304.875 258.765 304.868C259.488 304.86 260.186 305.134 260.712 305.631C261.284 306.215 261.704 306.931 261.934 307.715C262.165 308.499 262.199 309.328 262.033 310.129C261.677 312.357 260.445 314.411 259.299 316.314C257.99 318.483 256.51 320.543 254.873 322.476C253.955 323.561 255.538 325.126 256.466 324.029Z" fill="#406CDC"/>
<path d="M276.215 376.904C276.407 377.101 276.583 377.313 276.741 377.538L301.382 376.935L304.256 371.684L312.751 374.985L308.565 384.776C308.227 385.567 307.642 386.227 306.897 386.657C306.151 387.087 305.287 387.263 304.432 387.16L276.593 383.798C275.937 384.629 275.042 385.241 274.029 385.551C273.017 385.862 271.933 385.857 270.923 385.537C269.913 385.217 269.025 384.597 268.376 383.76C267.727 382.923 267.348 381.908 267.29 380.851C267.232 379.793 267.498 378.743 268.051 377.84C268.605 376.937 269.42 376.224 270.389 375.795C271.358 375.367 272.434 375.244 273.475 375.442C274.516 375.64 275.472 376.15 276.215 376.904Z" fill="#FFB7B7"/>
<path d="M356.54 526.505H348.439L344.584 495.263L356.542 495.264L356.54 526.505Z" fill="#FFB7B7"/>
<path d="M358.607 534.356L332.482 534.355V534.025C332.483 531.329 333.554 528.744 335.461 526.837C337.368 524.931 339.954 523.86 342.651 523.86H342.651L358.607 523.86L358.607 534.356Z" fill="#2F2E41"/>
<path d="M282.971 526.325L275.521 523.143L284.252 492.899L295.248 497.595L282.971 526.325Z" fill="#FFB7B7"/>
<path d="M281.786 534.356L257.763 524.096L257.892 523.792C258.952 521.313 260.953 519.356 263.456 518.352C265.958 517.348 268.758 517.379 271.238 518.438L271.238 518.438L285.911 524.704L281.786 534.356Z" fill="#2F2E41"/>
<path d="M317.159 383.672L316.572 393.163L333.698 394.995L351.617 396.912L346.343 382.5L317.159 383.672Z" fill="#FFB7B7"/>
<path d="M316.034 393.285L309.381 346.919L320.912 343.141L324.299 338.497L340.781 339.472L343.201 344.891L351.989 349.042L350.638 374.118L351.624 395.094L316.034 393.285Z" fill="#239FF8"/>
<path d="M311.846 380.86L300.117 376.168L300.167 375.96C300.218 375.749 305.21 354.894 305.873 351.543C306.563 348.051 309.086 347.086 309.193 347.046L309.271 347.018L313.913 348.43L315.952 364.443L311.846 380.86Z" fill="#239FF8"/>
<path d="M289.005 520.834L273.392 517.632L298.347 448.793L306.887 425.313C306.887 425.313 312.304 406.487 314.752 399.201L316.229 389.426L351.192 393.294C351.192 393.294 360.957 407.631 357.991 431L359.333 518.833L343.719 519.634L330.641 431.049L307.688 479.611C307.688 479.611 300.453 500.333 295.277 504.825L289.005 520.834Z" fill="#2F2E41"/>
<path d="M337.171 396.555C337.446 396.548 337.721 396.563 337.994 396.6L354.305 378.127L352.408 372.449L360.605 368.466L364.941 378.191C365.291 378.977 365.377 379.855 365.186 380.693C364.994 381.532 364.536 382.286 363.879 382.842L342.485 400.965C342.648 402.011 342.489 403.082 342.028 404.036C341.567 404.99 340.827 405.781 339.906 406.304C338.984 406.826 337.926 407.056 336.87 406.963C335.815 406.87 334.813 406.457 333.998 405.781C333.183 405.104 332.593 404.196 332.307 403.176C332.021 402.156 332.052 401.073 332.397 400.072C332.741 399.07 333.383 398.197 334.236 397.569C335.088 396.941 336.112 396.587 337.171 396.555Z" fill="#FFB7B7"/>
<path d="M353.003 379.924L346.199 363.924L348.853 352.779L351.712 349.167C351.922 349.078 352.148 349.033 352.375 349.035C352.603 349.037 352.828 349.086 353.036 349.18C354.09 349.604 354.988 350.904 355.705 353.045L362.082 371.203L353.003 379.924Z" fill="#239FF8"/>
<path d="M317.701 332.568V320.506C317.701 316.219 319.405 312.107 322.437 309.076C325.469 306.045 329.582 304.342 333.87 304.342C338.158 304.342 342.271 306.045 345.303 309.076C348.335 312.107 350.039 316.219 350.039 320.506V332.568C350.038 333.144 349.809 333.696 349.402 334.103C348.995 334.51 348.443 334.739 347.867 334.74H319.873C319.297 334.739 318.745 334.51 318.338 334.103C317.931 333.696 317.702 333.144 317.701 332.568Z" fill="#2F2E41"/>
<path d="M330.548 334.459C337.095 334.459 342.402 329.153 342.402 322.608C342.402 316.063 337.095 310.757 330.548 310.757C324.001 310.757 318.693 316.063 318.693 322.608C318.693 329.153 324.001 334.459 330.548 334.459Z" fill="#FFB7B7"/>
<path d="M313.876 321.471C313.88 318.081 315.229 314.831 317.626 312.433C320.024 310.036 323.275 308.688 326.666 308.684H329.08C332.471 308.688 335.722 310.036 338.119 312.433C340.517 314.831 341.866 318.081 341.87 321.471V321.712H336.77L335.03 316.842L334.682 321.712H332.047L331.169 319.255L330.993 321.712H313.876L313.876 321.471Z" fill="#2F2E41"/>
<path d="M329.381 336.096C329.142 335.772 328.999 335.387 328.969 334.985C328.939 334.583 329.023 334.181 329.211 333.825C331.769 328.962 335.349 319.977 330.597 314.436L330.255 314.037H344.053V334.747L331.519 336.958C331.392 336.98 331.263 336.991 331.134 336.991C330.792 336.991 330.455 336.91 330.15 336.755C329.845 336.599 329.582 336.373 329.381 336.096Z" fill="#2F2E41"/>
<path d="M168.428 519.681L175.75 522.297L189.327 495.307L178.521 491.447L168.428 519.681Z" fill="#9F616A"/>
<path d="M164.022 526.109L167.414 516.624L181.833 521.776C184.269 522.649 186.258 524.452 187.365 526.79C188.472 529.128 188.607 531.809 187.739 534.246L187.632 534.544L164.022 526.109Z" fill="#2F2E41"/>
<path d="M216.04 526.921L223.816 526.92L227.515 496.938L216.039 496.938L216.04 526.921Z" fill="#9F616A"/>
<path d="M214.057 524.383L229.37 524.382H229.37C230.652 524.382 231.921 524.635 233.105 525.125C234.289 525.615 235.364 526.334 236.271 527.24C237.177 528.146 237.896 529.221 238.386 530.405C238.877 531.588 239.129 532.857 239.129 534.138V534.455L214.057 534.456L214.057 524.383Z" fill="#2F2E41"/>
<path d="M198.319 335.367L201.701 328.687C201.701 328.687 214.299 331.843 215.444 339.142L198.319 335.367Z" fill="#F1F1F1"/>
<path d="M184.367 411.748L193.563 463.052L169.145 506.222L183.732 511.929L208.468 470.081L211.639 458.668L213.541 518.269L226.697 517.87L232.729 462.217L223.055 410.48L184.367 411.748Z" fill="#2F2E41"/>
<path d="M201.823 423.876C188.313 423.876 179.736 421.293 179.543 421.252L179.232 421.186L186.269 388.57L186.586 358.485C186.586 345.736 194.98 336.336 196.144 335.469C196.34 334.695 196.703 333.973 197.207 333.354C197.711 332.735 198.344 332.233 199.062 331.884C201.862 330.614 205.283 332.137 205.427 332.203L215.696 336.052L215.744 336.194C215.868 336.559 229.393 380.948 229.393 380.948C229.393 380.948 228.575 419.733 228.289 421.004C228.289 421.004 209.33 423.876 201.823 423.876Z" fill="#3F3D56"/>
<path d="M212.204 326.584C219.869 326.584 226.083 320.372 226.083 312.709C226.083 305.046 219.869 298.834 212.204 298.834C204.539 298.834 198.325 305.046 198.325 312.709C198.325 320.372 204.539 326.584 212.204 326.584Z" fill="#9F616A"/>
<path opacity="0.2" d="M196.729 360.945L221.011 394.813L224.596 378.997L196.729 360.945Z" fill="black"/>
<path d="M272.856 383.989C272.173 384.53 271.38 384.913 270.533 385.114C269.685 385.314 268.804 385.327 267.952 385.15C267.099 384.973 266.296 384.612 265.598 384.091C264.9 383.57 264.325 382.903 263.913 382.136L243.014 385.48L247.541 375.46L266.694 373.82C268.028 373.214 269.539 373.118 270.94 373.551C272.34 373.984 273.533 374.915 274.293 376.169C275.053 377.422 275.326 378.911 275.061 380.352C274.796 381.794 274.011 383.088 272.856 383.989Z" fill="#9F616A"/>
<path d="M248.618 374.889L256.128 374.153L258.209 384.625L248.759 384.793L248.618 374.889Z" fill="#F1F1F1"/>
<path d="M254.774 388.274L217.996 385.001L199.425 355.475L199.368 355.214C198.841 352.802 199.21 350.281 200.406 348.121C201.603 345.962 203.544 344.311 205.869 343.477C208.193 342.644 210.742 342.685 213.038 343.592C215.335 344.499 217.223 346.211 218.349 348.408L229.251 369.666L251.252 372.991L254.774 388.274Z" fill="#3F3D56"/>
<path d="M200.383 324.756L211.902 325.169C212.605 325.194 214.51 317.618 214.76 316.047C214.957 315.024 215.52 314.107 216.343 313.469C217.167 312.83 218.195 312.513 219.235 312.577C220.098 312.658 222.272 311.048 224.516 309.141C228.776 305.52 228.554 298.72 223.875 295.661C223.747 295.577 223.621 295.501 223.498 295.432C220.546 293.78 217.093 293.225 213.71 293.183C210.643 293.145 207.49 293.53 204.788 294.982C199.945 297.583 197.367 303.268 197.141 308.76C196.914 314.252 198.675 319.622 200.674 324.742" fill="#2F2E41"/>
<path d="M1148.79 19.0795L1153.83 21.283L1168.33 13.3686L1159.58 23.577L1172.12 29.2878C1172.34 29.3817 1172.57 29.4227 1172.81 29.4071C1173.04 29.3915 1173.27 29.3199 1173.47 29.1983C1173.67 29.0767 1173.83 28.9087 1173.96 28.7085C1174.08 28.5084 1174.15 28.2819 1174.16 28.0482L1175.62 6.17322C1175.64 5.92003 1175.59 5.66697 1175.48 5.43895C1175.37 5.21093 1175.2 5.0158 1174.99 4.87276C1174.78 4.72973 1174.54 4.64372 1174.28 4.6232C1174.03 4.60267 1173.78 4.64835 1173.55 4.75572L1148.75 16.4224C1148.5 16.5424 1148.29 16.7325 1148.14 16.9701C1147.99 17.2077 1147.92 17.4827 1147.92 17.7626C1147.92 18.0425 1148.01 18.3154 1148.16 18.5489C1148.32 18.7823 1148.54 18.9665 1148.79 19.0795ZM1156.67 32.327L1163.63 28.9495L1156.67 25.7003V32.327Z" fill="#5FA9DF"/>
</svg>
