<svg xmlns="http://www.w3.org/2000/svg" xmlns:xlink="http://www.w3.org/1999/xlink" clip-rule="evenodd" fill-rule="evenodd" preserveAspectRatio="xMidYMid meet" stroke-linejoin="round" stroke-miterlimit="2" version="1.0" viewBox="4.0 4.0 56.0 56.0" zoomAndPan="magnify" style="fill: rgb(0, 0, 0);" original_string_length="2286"><g><path d="M50.008,4l-0.008,-0l-36,-0c-5.523,-0 -10,4.477 -10,10l0,36c0,5.523 4.477,10 10,10c9.777,-0 26.223,-0 36,-0c2.652,0 5.196,-1.054 7.071,-2.929c1.875,-1.875 2.929,-4.419 2.929,-7.071l0,-36c0,-2.652 -1.054,-5.196 -2.929,-7.071c-1.846,-1.846 -4.34,-2.896 -6.947,-2.928l0,0.003l-0.116,-0.004Zm0.067,4c1.564,0.02 3.06,0.65 4.168,1.757c1.125,1.126 1.757,2.652 1.757,4.243l0,36c0,1.591 -0.632,3.117 -1.757,4.243c-1.126,1.125 -2.652,1.757 -4.243,1.757c-9.777,-0 -26.223,-0 -36,-0c-3.314,0 -6,-2.686 -6,-6l0,-36c0,-3.314 2.686,-6 6,-6l36,-0l0.099,0.001l-0.024,-0.001Zm-24.399,29.389c-1.915,1.728 -3.119,4.23 -3.119,7.011c-0,5.212 4.231,9.444 9.443,9.444c5.212,-0 9.443,-4.232 9.443,-9.444c0,-2.781 -1.204,-5.283 -3.119,-7.011c1.123,-2.022 2.271,-4.235 3.217,-6.372c1.372,-3.101 2.296,-6.071 2.296,-8.18c-0,-6.533 -5.304,-11.837 -11.837,-11.837c-6.533,0 -11.837,5.304 -11.837,11.837c0,2.109 0.924,5.079 2.296,8.18c0.946,2.137 2.094,4.35 3.217,6.372Zm2.083,3.601c-0.752,0.934 -1.202,2.12 -1.202,3.41c-0,3.005 2.439,5.444 5.443,5.444c3.004,-0 5.443,-2.439 5.443,-5.444c0,-1.29 -0.45,-2.476 -1.202,-3.41c-1.473,2.456 -2.575,4.116 -2.575,4.116c-0.37,0.558 -0.996,0.894 -1.666,0.894c-0.67,0 -1.296,-0.336 -1.666,-0.894c-0,0 -1.102,-1.66 -2.575,-4.116Zm4.241,-0.719c-1.632,-2.645 -4.123,-6.896 -5.883,-10.873c-1.106,-2.499 -1.954,-4.862 -1.954,-6.561c0,-4.326 3.512,-7.837 7.837,-7.837c4.325,0 7.837,3.511 7.837,7.837c-0,1.699 -0.848,4.062 -1.954,6.561c-1.76,3.977 -4.251,8.227 -5.883,10.873Zm0,-21.271c2.208,0 4,1.792 4,4c0,2.208 -1.792,4 -4,4c-2.208,0 -4,-1.792 -4,-4c0,-2.208 1.792,-4 4,-4Z" style="fill: url(&quot;#__id263_swci25ivv&quot;);"/></g><defs><linearGradient xmlns:xlink="http://www.w3.org/1999/xlink" gradientTransform="matrix(64 0 0 64 0 31)" gradientUnits="userSpaceOnUse" id="__id263_swci25ivv" x1="0" x2="1" xlink:actuate="onLoad" xlink:show="other" xlink:type="simple" y1="0" y2="0"><stop offset="0" style="stop-color: rgb(12, 36, 254);"/><stop offset="1" style="stop-color: rgb(239, 67, 207);"/></linearGradient></defs></svg>