<svg xmlns="http://www.w3.org/2000/svg" xmlns:xlink="http://www.w3.org/1999/xlink" clip-rule="evenodd" fill-rule="evenodd" preserveAspectRatio="xMidYMid meet" stroke-linejoin="round" stroke-miterlimit="2" version="1.0" viewBox="4.0 4.0 56.0 56.0" zoomAndPan="magnify" style="fill: rgb(0, 0, 0);" original_string_length="1936"><g><path d="M4,14l-0,36c0,5.523 4.477,10 10,10c9.777,-0 26.223,-0 36,-0c2.652,0 5.196,-1.054 7.071,-2.929c1.875,-1.875 2.929,-4.419 2.929,-7.071l-0,-36c0,-2.652 -1.054,-5.196 -2.929,-7.071c-1.875,-1.875 -4.419,-2.929 -7.071,-2.929l-36,-0c-5.523,-0 -10,4.477 -10,10Zm4,36l0,-36c0,-3.314 2.686,-6 6,-6l36,-0c1.591,-0 3.117,0.632 4.243,1.757c1.125,1.126 1.757,2.652 1.757,4.243l-0,36c0,1.591 -0.632,3.117 -1.757,4.243c-1.126,1.125 -2.652,1.757 -4.243,1.757c-9.777,-0 -26.223,-0 -36,-0c-3.314,0 -6,-2.686 -6,-6Zm44,-26c0,-1.061 -0.421,-2.078 -1.172,-2.828c-0.75,-0.751 -1.767,-1.172 -2.828,-1.172l-2,0c-1.061,0 -2.078,0.421 -2.828,1.172c-0.751,0.75 -1.172,1.767 -1.172,2.828c0,5.492 0,20.758 0,26.25c-0,1.061 0.421,2.078 1.172,2.828c0.75,0.751 1.767,1.172 2.828,1.172l2,-0c1.061,-0 2.078,-0.421 2.828,-1.172c0.751,-0.75 1.172,-1.767 1.172,-2.828l-0,-26.25Zm-30,8c-0,-2.209 -1.791,-4 -4,-4l-2,0c-2.209,0 -4,1.791 -4,4l-0,18.25c0,2.209 1.791,4 4,4l2,-0c2.209,-0 4,-1.791 4,-4l-0,-18.25Zm15,-14c-0,-2.209 -1.791,-4 -4,-4l-2,0c-2.209,0 -4,1.791 -4,4l-0,32.25c0,2.209 1.791,4 4,4l2,-0c2.209,-0 4,-1.791 4,-4l-0,-32.25Zm9,6l2,-0c0,0 0,26.25 0,26.25c0,0 -2,0 -2,0l0,-26.25Zm-30,26.25l2,0l0,-18.25l-2,-0l-0,18.25Zm15,-0l2,0l-0,-32.25l-2,-0l-0,32.25Z" style="fill: url(&quot;#__id264_swci25ivv&quot;);"/></g><defs><linearGradient xmlns:xlink="http://www.w3.org/1999/xlink" gradientTransform="matrix(64 0 0 64 0 29)" gradientUnits="userSpaceOnUse" id="__id264_swci25ivv" x1="0" x2="1" xlink:actuate="onLoad" xlink:show="other" xlink:type="simple" y1="0" y2="0"><stop offset="0" style="stop-color: rgb(0, 162, 253);"/><stop offset="1" style="stop-color: rgb(239, 67, 207);"/></linearGradient></defs></svg>