<svg width="345" height="340" viewBox="0 0 345 340" fill="none" xmlns="http://www.w3.org/2000/svg">
<g clip-path="url(#clip0_87_736)">
<path d="M220.617 340H70.5569C54.2883 340 41.0527 326.984 41.0527 310.986V29.0141C41.0527 13.0157 54.2883 0 70.5569 0H220.617C236.886 0 250.121 13.0157 250.121 29.0141V310.986C250.121 326.984 236.886 340 220.617 340Z" fill="#040606"/>
<path d="M250.121 103.718C249.433 103.718 248.873 104.269 248.873 104.946V144.224C248.873 144.901 249.433 145.451 250.121 145.451C250.81 145.451 251.369 144.901 251.369 144.224V104.946C251.369 104.269 250.81 103.718 250.121 103.718Z" fill="#ACBEC8"/>
<path d="M247.314 29.0141V310.981C247.314 324.906 236.292 336.296 222.356 337.18H222.35C222.144 337.192 221.938 337.205 221.726 337.211C221.358 337.229 220.99 337.235 220.615 337.235C220.615 337.235 219.242 337.137 216.733 336.953C214.2 336.769 210.511 336.493 205.912 336.131C204.533 336.026 203.079 335.91 201.543 335.787C198.485 335.542 195.128 335.272 191.527 334.965C190.091 334.848 188.606 334.719 187.09 334.59C179.338 333.934 170.657 333.167 161.502 332.295C159.954 332.154 158.394 332.007 156.821 331.853C156.41 331.81 155.991 331.773 155.573 331.73C149.045 331.098 142.336 330.417 135.603 329.693C135.184 329.65 134.766 329.607 134.354 329.564C122.753 328.306 111.107 326.937 100.211 325.464C91.8294 324.335 83.891 323.144 76.764 321.911C74.4424 321.506 72.2082 321.101 70.0738 320.69C69.6557 320.61 69.2375 320.53 68.8256 320.444C53.7416 317.474 43.8623 314.27 43.8623 310.981V29.0141C43.8623 14.512 55.8135 2.75928 70.5606 2.75928H86.4997C89.046 2.75928 91.093 4.71089 91.3114 7.20873C91.3301 7.37445 91.3488 7.54013 91.38 7.70584C91.8419 10.216 94.1822 11.965 96.7783 11.965H194.398C196.994 11.965 199.334 10.216 199.796 7.70584C199.827 7.54013 199.846 7.37445 199.865 7.20873C200.083 4.71089 202.13 2.75928 204.676 2.75928H220.615C235.362 2.75928 247.314 14.512 247.314 29.0141Z" fill="#F9FBFA"/>
<path d="M40.4288 74.2598C39.7404 74.2598 39.1807 74.8103 39.1807 75.4872V85.3067C39.1807 85.9836 39.7404 86.5341 40.4288 86.5341C41.1172 86.5341 41.677 85.9836 41.677 85.3067V75.4872C41.677 74.8103 41.1172 74.2598 40.4288 74.2598Z" fill="#ACBEC8"/>
<path d="M40.4288 103.718C39.7404 103.718 39.1807 104.269 39.1807 104.946V123.971C39.1807 124.648 39.7404 125.198 40.4288 125.198C41.1172 125.198 41.677 124.648 41.677 123.971V104.946C41.677 104.269 41.1172 103.718 40.4288 103.718Z" fill="#ACBEC8"/>
<path d="M40.4288 130.722C39.7404 130.722 39.1807 131.273 39.1807 131.95V150.975C39.1807 151.652 39.7404 152.202 40.4288 152.202C41.1172 152.202 41.677 151.652 41.677 150.975V131.95C41.677 131.273 41.1172 130.722 40.4288 130.722Z" fill="#ACBEC8"/>
<path d="M85.051 7.05762H63.2081C62.5188 7.05762 61.96 7.60716 61.96 8.28505V8.89877C61.96 9.57667 62.5188 10.1262 63.2081 10.1262H85.051C85.7404 10.1262 86.2992 9.57667 86.2992 8.89877V8.28505C86.2992 7.60716 85.7404 7.05762 85.051 7.05762Z" fill="#ACBEC8"/>
<path d="M208.619 10.1265C209.998 10.1265 211.116 9.02746 211.116 7.67167C211.116 6.31588 209.998 5.2168 208.619 5.2168C207.241 5.2168 206.123 6.31588 206.123 7.67167C206.123 9.02746 207.241 10.1265 208.619 10.1265Z" fill="#ACBEC8"/>
<path d="M215.485 10.1265C216.863 10.1265 217.981 9.02746 217.981 7.67167C217.981 6.31588 216.863 5.2168 215.485 5.2168C214.106 5.2168 212.988 6.31588 212.988 7.67167C212.988 9.02746 214.106 10.1265 215.485 10.1265Z" fill="#ACBEC8"/>
<path d="M222.35 10.1265C223.729 10.1265 224.846 9.02746 224.846 7.67167C224.846 6.31588 223.729 5.2168 222.35 5.2168C220.971 5.2168 219.854 6.31588 219.854 7.67167C219.854 9.02746 220.971 10.1265 222.35 10.1265Z" fill="#ACBEC8"/>
<path d="M74.0727 96.6147C80.7625 96.6147 86.1855 91.3941 86.1855 84.9541C86.1855 78.5141 80.7625 73.2935 74.0727 73.2935C67.383 73.2935 61.96 78.5141 61.96 84.9541C61.96 91.3941 67.383 96.6147 74.0727 96.6147Z" fill="#0F85DA"/>
<path d="M171.176 80.9651H105.977C103.741 80.9651 101.921 79.1755 101.921 76.976C101.921 74.7764 103.741 72.9868 105.977 72.9868H171.176C173.413 72.9868 175.233 74.7764 175.233 76.976C175.233 79.1755 173.413 80.9651 171.176 80.9651Z" fill="#ACBEC8"/>
<path d="M66.3628 215.954C65.3221 215.954 64.4756 216.786 64.4756 217.809C64.4756 218.833 65.3221 219.665 66.3628 219.665H134.652C135.692 219.665 136.539 218.833 136.539 217.809C136.539 216.786 135.692 215.954 134.652 215.954H66.3628Z" fill="#ACBEC8"/>
<path d="M222.057 94.4666H105.977C103.741 94.4666 101.921 92.677 101.921 90.4774C101.921 88.2779 103.741 86.4883 105.977 86.4883H222.057C224.294 86.4883 226.113 88.2779 226.113 90.4774C226.113 92.677 224.294 94.4666 222.057 94.4666Z" fill="#ACBEC8"/>
<path d="M89.5765 38.0049H64.7689C63.0484 38.0049 61.6484 36.6282 61.6484 34.9363C61.6484 33.2443 63.0484 31.8677 64.7689 31.8677H89.5765C91.2969 31.8677 92.6966 33.2443 92.6966 34.9363C92.6966 36.6282 91.2969 38.0049 89.5765 38.0049Z" fill="#ACBEC8"/>
<path d="M221.746 32.1743H196.938C195.387 32.1743 194.13 33.4108 194.13 34.936C194.13 36.4613 195.387 37.6978 196.938 37.6978H221.746C223.297 37.6978 224.554 36.4613 224.554 34.936C224.554 33.4108 223.297 32.1743 221.746 32.1743Z" fill="#0F85DA"/>
<path d="M186.173 38.0049H161.366C159.645 38.0049 158.245 36.6282 158.245 34.9363C158.245 33.2443 159.645 31.8677 161.366 31.8677H186.173C187.893 31.8677 189.293 33.2443 189.293 34.9363C189.293 36.6282 187.893 38.0049 186.173 38.0049Z" fill="#ACBEC8"/>
<path d="M93.1647 206.941H69.4495C65.1479 206.941 61.6484 203.5 61.6484 199.27V191.65C61.6484 187.42 65.1479 183.979 69.4495 183.979H93.1647C97.4663 183.979 100.966 187.42 100.966 191.65V199.27C100.966 203.5 97.4663 206.941 93.1647 206.941Z" fill="#ACBEC8"/>
<path d="M218.313 163.023H69.4495C65.1479 163.023 61.6484 159.582 61.6484 155.352V121.777C61.6484 117.547 65.1479 114.106 69.4495 114.106H218.313C222.615 114.106 226.114 117.547 226.114 121.777V155.352C226.114 159.582 222.615 163.023 218.313 163.023Z" fill="#0F85DA"/>
<path d="M217.357 206.941H193.642C189.34 206.941 185.841 203.5 185.841 199.27V191.65C185.841 187.42 189.34 183.979 193.642 183.979H217.357C221.659 183.979 225.158 187.42 225.158 191.65V199.27C225.158 203.5 221.659 206.941 217.357 206.941Z" fill="#ACBEC8"/>
<path d="M154.656 206.941H130.941C126.639 206.941 123.14 203.5 123.14 199.27V191.65C123.14 187.42 126.639 183.979 130.941 183.979H154.656C158.957 183.979 162.457 187.42 162.457 191.65V199.27C162.457 203.5 158.957 206.941 154.656 206.941Z" fill="#ACBEC8"/>
<path d="M101.609 240.838H82.8867V258.022H101.609V240.838Z" fill="#ACBEC8"/>
<path d="M101.609 265.387H91V282.571H101.609V265.387Z" fill="#ACBEC8"/>
<path d="M125.949 265.387H107.227V282.571H125.949V265.387Z" fill="#ACBEC8"/>
<path d="M125.949 289.936H107.227V307.12H125.949V289.936Z" fill="#ACBEC8"/>
<path d="M150.288 265.387H131.565V282.571H150.288V265.387Z" fill="#ACBEC8"/>
<path d="M125.949 240.838H107.227V258.022H125.949V240.838Z" fill="#ACBEC8"/>
<path d="M150.288 240.838H131.565V258.022H150.288V240.838Z" fill="#ACBEC8"/>
<path d="M198.967 240.838H180.244V258.022H198.967V240.838Z" fill="#ACBEC8"/>
<path d="M150.288 289.936H131.565V307.12H150.288V289.936Z" fill="#ACBEC8"/>
<path d="M174.627 240.838H155.904V258.022H174.627V240.838Z" fill="#ACBEC8"/>
<path d="M208.64 265.387H196.471V282.571H208.64C210.364 282.571 211.761 281.197 211.761 279.503V268.456C211.761 266.761 210.364 265.387 208.64 265.387Z" fill="#ACBEC8"/>
<path d="M101.609 289.936H97.8646C96.1412 289.936 94.7441 291.309 94.7441 293.004V304.051C94.7441 305.746 96.1412 307.12 97.8646 307.12H101.609V289.936Z" fill="#ACBEC8"/>
<path d="M174.627 289.936H155.904V307.12H174.627V289.936Z" fill="#ACBEC8"/>
<path d="M222.681 240.838H204.583V258.022H222.681C224.405 258.022 225.802 256.649 225.802 254.954V243.907C225.802 242.212 224.405 240.838 222.681 240.838Z" fill="#ACBEC8"/>
<path d="M190.854 290.195C190.471 290.03 190.05 289.936 189.605 289.936H180.244V307.12H189.605C190.05 307.12 190.471 307.025 190.854 306.861V290.195Z" fill="#ACBEC8"/>
<path d="M174.627 265.387H155.904V282.571H174.627V265.387Z" fill="#ACBEC8"/>
<path d="M190.854 265.387H180.244V282.571H190.854V265.387Z" fill="#ACBEC8"/>
<path d="M85.3833 265.387H78.8304C77.107 265.387 75.71 266.761 75.71 268.456V279.503C75.71 281.197 77.107 282.571 78.8304 282.571H85.3833V265.387Z" fill="#ACBEC8"/>
<path d="M77.2701 240.838H64.7884C63.065 240.838 61.668 242.212 61.668 243.907V254.954C61.668 256.649 63.065 258.022 64.7884 258.022H77.2701V240.838Z" fill="#ACBEC8"/>
<path d="M197.725 333.236L192.165 333.236L189.521 312.146L197.727 312.147L197.725 333.236Z" fill="#FFB6B6"/>
<path d="M197.921 338.941L180.823 338.94V338.727C180.823 335.113 183.803 332.183 187.478 332.183L190.602 329.853L196.429 332.183L197.921 332.183L197.921 338.941Z" fill="#042549"/>
<path d="M232.341 333.236L226.781 333.236L224.136 312.146L232.342 312.147L232.341 333.236Z" fill="#FFB6B6"/>
<path d="M232.536 338.941L215.438 338.94V338.727C215.439 335.113 218.418 332.183 222.093 332.183L225.217 329.853L231.044 332.183L232.537 332.183L232.536 338.941Z" fill="#042549"/>
<path d="M243.57 171.733H195.818L190.021 189.343L188.622 264.231L188.867 322.666L199.743 322.707L209.32 259.893C209.32 259.893 208.254 253.715 210.131 254.574C212.007 255.432 208.836 247.852 211.046 248.573C213.256 249.295 215.406 219.979 215.406 219.979L220.675 264.231L224.059 322.666H233.867L242.092 232.536C242.092 232.536 239.509 227.081 242.921 223.459C246.332 219.837 245.982 189.91 245.982 189.91L243.57 171.733Z" fill="#042549"/>
<path d="M244.829 170.621C244.829 170.621 249.408 177.033 245.413 187.079C238.775 203.775 194.734 189.732 192.038 179.331C187.894 177.925 194.801 175.868 192.768 172.456C192.644 172.248 193.91 176.876 192.907 171.755C191.296 163.535 194.06 138.283 194.06 138.283L194.973 123.296C195.857 108.78 201.859 95.0205 211.945 84.3858L234.876 84.3857L244.829 100.271L245.86 140.086L244.829 170.621Z" fill="#042549"/>
<path d="M174.93 172.136L182.04 161.535L188.241 165.056L180.352 175.976C180.377 176.397 180.347 176.83 180.251 177.262C179.734 179.613 177.541 181.068 175.354 180.511C173.167 179.955 171.814 177.599 172.331 175.248C172.661 173.749 173.673 172.617 174.93 172.136Z" fill="#FFB6B6"/>
<path d="M208.586 87.7896C200.621 87.7896 194.067 93.9549 193.714 101.78L192.192 135.491C192.192 135.491 192.181 137.363 191.477 136.809C190.772 136.254 190.713 138.215 190.713 138.215C190.713 138.215 190.681 141.214 190.016 139.497C189.352 137.781 189.262 140.887 189.262 140.887L179.588 157.255C180.887 159.899 179.877 163.167 179.556 165.829L186.512 172.125C186.512 172.125 186.451 170.235 187.95 170.267C197.142 170.463 206.552 146.047 206.394 137.017C206.213 126.713 208.586 87.7896 208.586 87.7896Z" fill="#042549"/>
<path d="M211.853 40.8879L218.963 51.4883L225.164 47.9675L217.275 37.0475C217.3 36.6261 217.269 36.1939 217.174 35.7617C216.657 33.4108 214.464 31.9559 212.277 32.512C210.09 33.0682 208.736 35.4248 209.254 37.7757C209.584 39.2749 210.596 40.4067 211.853 40.8879Z" fill="#FFB6B6"/>
<path d="M245.508 125.234C237.543 125.234 230.989 119.068 230.636 111.243L229.114 77.5323C229.114 77.5323 229.103 75.6602 228.399 76.2146C227.694 76.7691 227.635 74.8081 227.635 74.8081C227.635 74.8081 227.603 71.8093 226.938 73.526C226.274 75.2426 226.184 72.1363 226.184 72.1363L213.533 48.8449L214.252 45.8067L221.175 40.7007C221.175 40.7007 223.972 41.5764 224.872 42.756C229.412 48.7073 243.148 67.4068 243.316 76.0059C243.517 86.3093 245.508 125.234 245.508 125.234Z" fill="#042549"/>
<path d="M217.434 80.9784C217.773 81.0553 218.112 81.122 218.451 81.1734C219.505 81.3427 220.559 81.394 221.587 81.3324C224.707 81.1734 227.65 80.0394 230.029 78.1718C232.544 76.2015 234.422 73.4155 235.21 70.1009C237.062 62.2762 232.111 54.4465 224.154 52.625C216.312 50.8241 208.47 55.524 206.467 63.1485C206.435 63.2665 206.404 63.3794 206.378 63.4974C204.526 71.3272 209.472 79.1518 217.434 80.9784Z" fill="#FFB6B6"/>
<path d="M235.979 71.5752C233.913 76.9365 228.686 81.1858 222.86 81.4411C221.867 81.4808 220.835 81.4071 219.958 80.9419C219.075 80.4823 218.394 79.5576 218.469 78.5817C218.625 76.6585 221.285 75.9209 222.035 74.1338C222.531 72.9538 221.96 71.439 220.794 70.866C219.629 70.2987 218.054 70.7525 217.39 71.8588C218.602 70.0433 217.892 67.4847 216.363 65.9245C214.84 64.3587 212.7 63.5587 210.635 62.7985L210.589 62.0269C209.129 62.5772 207.537 61.4709 206.902 60.0355C207.64 59.1562 208.108 58.0896 208.558 57.04C207.952 57.4598 207.277 57.7662 206.562 57.9534C206.602 56.7053 204.698 56.1096 205.021 54.8842C205.471 53.1821 208.073 50.6348 207.219 49.0917C208.812 49.5342 209.85 51.361 209.4 52.9268C209.971 51.395 210.542 49.8632 211.114 48.3258C211.558 49.3924 212.002 50.4589 212.452 51.5199C214.627 50.1866 216.877 48.8307 219.404 48.4052C221.931 47.974 224.838 48.7002 226.252 50.8107C227.723 49.9313 229.696 50.2036 231.15 51.117C232.604 52.0304 233.619 53.4771 234.433 54.9749C237.19 60.0242 238.044 66.2195 235.979 71.5752Z" fill="#042549"/>
<path d="M311.137 329.337C312.426 329.416 313.139 327.841 312.163 326.923L312.066 326.544C312.079 326.513 312.092 326.483 312.105 326.453C313.409 323.395 317.828 323.416 319.12 326.478C320.268 329.196 321.729 331.918 322.088 334.792C322.25 336.06 322.177 337.352 321.891 338.597C324.58 332.821 325.994 326.515 325.994 320.173C325.994 318.579 325.906 316.986 325.724 315.396C325.575 314.096 325.37 312.804 325.104 311.523C323.665 304.602 320.549 298.01 316.054 292.504C313.894 291.343 312.092 289.528 311.004 287.351C310.613 286.566 310.306 285.722 310.161 284.862C310.407 284.894 311.088 281.211 310.903 280.985C311.245 280.474 311.859 280.22 312.233 279.721C314.094 277.239 316.658 277.673 317.997 281.045C320.857 282.464 320.885 284.818 319.13 287.082C318.013 288.522 317.86 290.471 316.881 292.013C316.981 292.14 317.086 292.263 317.187 292.39C319.035 294.72 320.633 297.226 321.981 299.858C321.6 296.932 322.162 293.408 323.12 291.137C324.211 288.549 326.256 286.369 328.057 284.131C330.22 281.444 334.656 282.617 335.037 286.024C335.041 286.057 335.044 286.09 335.048 286.123C334.78 286.271 334.518 286.429 334.262 286.595C332.802 287.545 333.307 289.77 335.037 290.033L335.076 290.039C334.979 290.986 334.814 291.926 334.572 292.849C336.882 301.635 331.895 304.835 324.773 304.979C324.616 305.058 324.463 305.137 324.305 305.213C325.027 307.211 325.603 309.26 326.031 311.337C326.414 313.172 326.68 315.027 326.829 316.89C327.014 319.241 326.998 321.604 326.796 323.95L326.809 323.867C327.321 321.283 328.747 318.868 330.819 317.196C333.906 314.702 338.266 313.784 341.596 311.78C343.199 310.815 345.253 312.062 344.973 313.889L344.96 313.977C344.464 314.175 343.98 314.405 343.513 314.663C343.245 314.811 342.983 314.969 342.727 315.135C341.267 316.085 341.772 318.311 343.502 318.573L343.541 318.579C343.569 318.583 343.593 318.587 343.621 318.591C342.771 320.577 341.586 322.42 340.102 324.01C338.658 331.679 332.454 332.407 325.817 330.174H325.813C325.087 333.281 324.027 336.318 322.665 339.211H311.419C311.378 339.088 311.342 338.962 311.306 338.839C312.346 338.902 313.394 338.843 314.418 338.656C313.583 337.65 312.749 336.635 311.915 335.628C311.894 335.608 311.878 335.588 311.862 335.568C311.439 335.053 311.012 334.542 310.588 334.027C310.562 332.445 310.755 330.867 311.137 329.337Z" fill="#1F9CF6"/>
<path d="M0 339.244C0 339.65 0.330783 339.975 0.742696 339.975H344.169C344.581 339.975 344.912 339.65 344.912 339.244C344.912 338.839 344.581 338.514 344.169 338.514H0.742696C0.330783 338.514 0 338.839 0 339.244Z" fill="#ACBEC8"/>
</g>
<defs>
<clipPath id="clip0_87_736">
<rect width="345" height="340" fill="white"/>
</clipPath>
</defs>
</svg>
