<svg width="404" height="285" viewBox="0 0 404 285" fill="none" xmlns="http://www.w3.org/2000/svg">
<g clip-path="url(#clip0_51_1988)">
<path d="M152.251 55.6429C149.174 44.235 173.99 34.4525 180.507 43.6393C181.413 42.3332 184.762 41.5399 186.298 41.9405C187.835 42.3412 189.127 43.3428 190.388 44.3124C192.121 45.6666 193.918 47.0689 194.982 49.0161C196.053 50.9552 196.219 53.5996 194.777 55.2823C193.634 56.6204 190.262 57.4859 188.544 57.8384C187.346 58.0868 186.338 58.2872 185.471 58.4314C184.699 57.2855 184.305 55.8672 184.447 54.481C183.281 55.2662 182.493 56.6124 182.366 58.0388C182.343 58.3353 192.051 94.6584 192.051 94.6584C191.05 95.2594 189.813 95.8203 188.386 96.3331C185.967 92.6231 183.982 88.248 182.674 83.6725C182.374 86.5011 182.422 89.5701 182.784 92.6872C182.973 94.3459 183.257 96.0126 183.619 97.6793C172.084 100.211 154.733 99.3781 147.184 88.6086C147.183 88.564 147.181 88.5194 147.18 88.4748C147.126 86.4596 144.422 85.9588 143.699 87.8357C143.516 88.3109 143.347 88.7221 143.197 89.0493C140.998 81.0522 143.843 71.7972 152.251 55.6429Z" fill="#042549"/>
<path d="M309.054 146.106C306.325 149.399 301.488 149.817 298.25 147.042C297.937 146.773 297.645 146.479 297.378 146.162L260.947 157.896L255.278 148.447L298.647 134.832C302.05 132.279 306.843 133.015 309.354 136.475C311.454 139.37 311.33 143.352 309.054 146.106Z" fill="#FFB6B6"/>
<path d="M180.038 116.785C180.038 116.785 196.171 98.3318 203.199 106.171C210.226 114.009 232.151 148.359 232.151 148.359L283.331 137.378L288.28 151.114L230.168 170.264C225.799 171.704 221.012 170.211 218.187 166.528L180.038 116.785Z" fill="#0F85DA"/>
<path d="M215.078 285H135.06L134.987 284.365L134.94 283.941L134.253 278.012L133.279 269.568L132.904 266.323C132.878 266.159 132.852 266 132.831 265.836C132.503 263.724 132.316 261.601 132.248 259.483C132.149 256.572 132.28 253.665 132.587 250.796V250.78C132.753 249.229 132.967 247.694 133.232 246.174C133.565 244.221 133.966 242.299 134.43 240.42C134.961 238.239 135.565 236.116 136.226 234.067C136.986 231.669 137.819 229.371 138.678 227.201C138.771 226.968 138.865 226.735 138.953 226.507L138.959 226.502C143.488 215.273 148.631 207.603 148.631 207.603H206.926C206.926 207.603 209.622 219.636 210.96 229.572C211.174 231.145 211.351 232.659 211.481 234.067C211.715 236.666 211.783 238.9 211.58 240.42C211.455 241.362 211.226 242.029 210.872 242.336C207.665 245.121 211.335 251.029 211.335 251.029C211.335 251.029 214.084 255.301 211.689 257.705C211.215 258.181 210.945 258.795 210.814 259.483C210.606 260.621 210.788 261.945 211.075 263.115C211.361 264.29 211.757 265.312 211.975 265.836C212.074 266.069 212.137 266.201 212.137 266.201L212.543 269.468L212.938 272.612L213.61 278.012L213.813 278.965L214.859 283.941L214.948 284.365L215.078 285Z" fill="#042549"/>
<path d="M174.659 91.5391L150.193 93.755L145.683 108.025L140.769 108.749C132.372 109.985 127.374 118.942 130.637 126.907L134.961 137.463C134.961 137.463 128.609 157.399 136.41 165.775L139.729 202.668L132.241 226.988L219.768 229.862L204.859 199.355L204.417 180.413C204.417 180.413 213.944 146.177 205.111 135.286L201.665 104.312L183.71 101.573L174.659 91.5391Z" fill="#0F85DA"/>
<path d="M191.223 73.231C193.744 62.1727 186.973 51.1298 176.099 48.566C165.224 46.0021 154.365 52.8882 151.844 63.9465C149.323 75.0047 156.095 86.0476 166.969 88.6115C177.843 91.1753 188.702 84.2893 191.223 73.231Z" fill="#FFB6B6"/>
<path d="M141.218 57.2454C138.141 45.8375 162.958 36.0551 169.475 45.2418C170.381 43.9358 173.73 43.1424 175.266 43.5431C176.803 43.9437 178.095 44.9454 179.356 45.915C181.089 47.2692 182.886 48.6714 183.95 50.6186C185.021 52.5578 185.187 55.2021 183.745 56.8848C182.602 58.223 179.23 59.0884 177.512 59.441C176.314 59.6894 175.306 59.8897 174.439 60.0339C173.667 58.8881 173.273 57.4698 173.414 56.0835C172.248 56.8688 171.46 58.215 171.334 59.6413C171.311 59.9378 181.018 96.2609 181.018 96.2609C180.018 96.8619 178.78 97.4228 177.354 97.9356C174.935 94.2256 172.95 89.8505 171.642 85.275C171.342 88.1037 171.389 91.1726 171.752 94.2897C171.941 95.9484 172.225 97.6151 172.587 99.2818C161.051 101.814 143.7 100.981 136.152 90.2111C136.15 90.1665 136.149 90.122 136.148 90.0773C136.094 88.0622 133.39 87.5614 132.667 89.4383C132.484 89.9134 132.315 90.3247 132.165 90.6518C129.966 82.6548 132.811 73.3997 141.218 57.2454Z" fill="#042549"/>
<path d="M339.826 65.9201H270.562C268.965 65.9201 267.665 64.6032 267.665 62.9849C267.665 61.3665 268.965 60.0503 270.562 60.0503H339.826C341.424 60.0503 342.723 61.3665 342.723 62.9849C342.723 64.6032 341.424 65.9201 339.826 65.9201Z" fill="#0F85DA"/>
<path d="M305.168 75.386C304.909 74.7372 304.015 74.7372 303.756 75.3862C301.95 79.9135 299.379 84.9836 296.582 88.8583C296.135 89.4787 296.752 90.3076 297.464 90.0458L303.458 87.8404V125.578H305.465V87.8403L311.462 90.0461C312.173 90.3078 312.791 89.4789 312.343 88.8586C309.546 84.9838 306.975 79.9135 305.168 75.386Z" fill="#042549"/>
<path d="M402.214 87.4919H359.511C358.526 87.4919 357.725 86.6801 357.725 85.6823C357.725 84.6845 358.526 83.873 359.511 83.873H402.214C403.199 83.873 404 84.6845 404 85.6823C404 86.6801 403.199 87.4919 402.214 87.4919Z" fill="#ACBEC8"/>
<path d="M380.847 93.3278C380.687 92.9278 380.136 92.9278 379.976 93.3279C378.863 96.1192 377.278 99.245 375.554 101.634C375.278 102.016 375.658 102.527 376.097 102.366L379.793 101.006V124.272H381.03V101.006L384.727 102.366C385.166 102.528 385.546 102.016 385.27 101.634C383.546 99.2451 381.961 96.1192 380.847 93.3278Z" fill="#ACBEC8"/>
<path d="M380.87 146.722C385.995 146.722 390.149 142.497 390.149 137.285C390.149 132.074 385.995 127.849 380.87 127.849C375.745 127.849 371.591 132.074 371.591 137.285C371.591 142.497 375.745 146.722 380.87 146.722Z" fill="#ACBEC8"/>
<path d="M265.302 34.0227H222.599C221.614 34.0227 220.812 33.2108 220.812 32.2131C220.812 31.2153 221.614 30.4038 222.599 30.4038H265.302C266.287 30.4038 267.087 31.2153 267.087 32.2131C267.087 33.2108 266.287 34.0227 265.302 34.0227Z" fill="#ACBEC8"/>
<path d="M243.934 39.8591C243.774 39.459 243.223 39.4591 243.063 39.8592C241.95 42.6504 240.365 45.7763 238.64 48.1651C238.364 48.5476 238.745 49.0586 239.184 48.8972L242.88 47.5375V70.8037H244.117V47.5375L247.814 48.8974C248.253 49.0588 248.633 48.5477 248.357 48.1653C246.633 45.7764 245.048 42.6504 243.934 39.8591Z" fill="#ACBEC8"/>
<path d="M243.957 93.253C249.082 93.253 253.236 89.0282 253.236 83.8167C253.236 78.6051 249.082 74.3804 243.957 74.3804C238.832 74.3804 234.678 78.6051 234.678 83.8167C234.678 89.0282 238.832 93.253 243.957 93.253Z" fill="#ACBEC8"/>
<path d="M136.375 266.661C138.565 262.975 137.402 258.182 133.778 255.956C133.427 255.74 133.059 255.553 132.679 255.397L131.91 216.544L121.29 214.118L122.535 260.258C121.25 264.354 123.473 268.735 127.502 270.042C130.872 271.135 134.541 269.737 136.375 266.661Z" fill="#FFB6B6"/>
<path d="M143.763 113.37C143.763 113.37 130.749 110.194 126.584 119.193C122.419 128.193 122.065 167.356 122.065 167.356L119.816 246.778L136.325 246.038L149.489 148.31L143.763 113.37Z" fill="#0F85DA"/>
<path d="M140.355 284.616C140.647 284.99 141.092 285.206 141.562 285.204H226.073C226.932 285.203 227.628 284.494 227.627 283.621C227.626 283.512 227.615 283.404 227.593 283.298L226.282 276.961C226.171 276.436 225.807 276.004 225.313 275.812C225.137 275.742 224.95 275.706 224.761 275.707H142.869C142.68 275.706 142.493 275.742 142.317 275.812C141.824 276.004 141.459 276.436 141.349 276.961L140.037 283.298C139.942 283.764 140.059 284.248 140.355 284.616Z" fill="#ACBEC8"/>
<path d="M108 142.759V241.894C108.002 244.524 110.098 246.656 112.685 246.658H257.146C259.733 246.656 261.83 244.524 261.832 241.894V142.759C261.825 140.131 259.731 138.003 257.146 138H112.685C110.101 138.003 108.006 140.131 108 142.759Z" fill="#ACBEC8"/>
<path d="M202.981 225.459C202.809 225.4 202.627 225.374 202.444 225.374H168.648C167.654 225.374 166.842 226.195 166.842 227.206V281.501H204.246V227.206C204.246 226.406 203.735 225.697 202.981 225.459ZM189.425 252.161C189.414 254.406 187.618 256.217 185.411 256.206C183.219 256.19 181.449 254.39 181.439 252.161V245.862C181.46 243.622 183.266 241.822 185.468 241.844C187.644 241.865 189.404 243.654 189.425 245.862V252.161Z" fill="#ACBEC8"/>
</g>
<defs>
<clipPath id="clip0_51_1988">
<rect width="404" height="285" fill="white"/>
</clipPath>
</defs>
</svg>
