<svg width="530" height="286" viewBox="0 0 530 286" fill="none" xmlns="http://www.w3.org/2000/svg">
<g clip-path="url(#clip0_87_135)">
<path d="M0 258.087C0 258.667 0.597042 259.13 1.34474 259.13H528.655C529.397 259.13 530 258.667 530 258.087C530 257.508 529.403 257.045 528.655 257.045H1.34474C0.602621 257.045 0 257.508 0 258.087Z" fill="#042549"/>
<path d="M440.355 259.561H90.7617V10.6778C90.7617 4.79298 95.0917 0 100.42 0H430.696C436.019 0 440.355 4.78682 440.355 10.6778V259.561Z" fill="#042549"/>
<path d="M469.453 286H60.7924C59.3807 286 58.2257 285.032 57.8407 283.527C57.4612 282.028 57.9913 280.529 59.1966 279.721L91.0518 258.235H440.472L440.572 258.303L471.105 279.751C472.282 280.578 472.796 282.071 472.405 283.557C472.015 285.038 470.86 286 469.465 286H469.453Z" fill="#ACBEC8"/>
<path d="M430.785 15.8657H99.9287V243.258H430.785V15.8657Z" fill="#F9FBFA"/>
<path d="M443.541 272.343H88.7695L106.307 256.613H426.801L443.541 272.343Z" fill="#042549"/>
<path d="M349.471 282.916H181.25L187.628 272.343H343.093L349.471 282.916Z" fill="#042549"/>
<path d="M364.519 105.785H346.992C345.469 105.785 344.23 104.416 344.23 102.732C344.23 101.048 345.469 99.6782 346.992 99.6782H364.519C366.042 99.6782 367.281 101.048 367.281 102.732C367.281 104.416 366.042 105.785 364.519 105.785Z" fill="#ACBEC8"/>
<path d="M384.674 105.785H376.493C374.97 105.785 373.731 104.416 373.731 102.732C373.731 101.048 374.97 99.6782 376.493 99.6782H384.674C386.197 99.6782 387.436 101.048 387.436 102.732C387.436 104.416 386.197 105.785 384.674 105.785Z" fill="#ACBEC8"/>
<path d="M189.045 108.117H135.702C132.979 108.117 130.764 105.668 130.764 102.657C130.764 99.6472 132.979 97.1982 135.702 97.1982H189.045C191.768 97.1982 193.983 99.6472 193.983 102.657C193.983 105.668 191.768 108.117 189.045 108.117Z" fill="#0F85DA"/>
<path d="M160.125 122.681H134.418C132.761 122.681 131.405 121.188 131.405 119.35C131.405 117.511 132.756 116.019 134.418 116.019H160.125C161.782 116.019 163.138 117.511 163.138 119.35C163.138 121.188 161.787 122.681 160.125 122.681Z" fill="#ACBEC8"/>
<path d="M301.841 135.826H133.771C132.114 135.826 130.758 134.333 130.758 132.495C130.758 130.657 132.108 129.164 133.771 129.164H301.841C303.498 129.164 304.854 130.657 304.854 132.495C304.854 134.333 303.504 135.826 301.841 135.826Z" fill="#ACBEC8"/>
<path d="M287.384 144.708H133.771C132.114 144.708 130.758 143.216 130.758 141.377C130.758 139.539 132.108 138.046 133.771 138.046H287.378C289.035 138.046 290.391 139.539 290.391 141.377C290.391 143.216 289.041 144.708 287.378 144.708H287.384Z" fill="#ACBEC8"/>
<path d="M468.003 93.8735L459.789 96.8591V83.7817H467.244L468.003 93.8735Z" fill="#F2A7AA"/>
<path d="M460.805 87.4028C465.326 87.4028 468.99 83.3513 468.99 78.3535C468.99 73.3557 465.326 69.3042 460.805 69.3042C456.284 69.3042 452.619 73.3557 452.619 78.3535C452.619 83.3513 456.284 87.4028 460.805 87.4028Z" fill="#F2A7AA"/>
<path d="M463.053 77.459C461.681 77.4159 460.782 75.8799 460.252 74.4858C459.722 73.0855 459.17 71.4817 457.903 70.9019C456.865 70.4269 455.03 73.616 454.209 72.7709C453.356 71.8888 454.187 67.3364 455.097 66.5222C456.006 65.7079 457.245 65.5475 458.417 65.4858C461.268 65.3378 464.141 65.5969 466.937 66.2384C468.667 66.6394 470.447 67.2377 471.697 68.6195C473.276 70.3713 473.683 73.0177 473.795 75.4913C473.912 78.0204 473.778 80.6729 472.667 82.8812C471.557 85.0957 469.225 86.7304 466.993 86.1629C466.77 84.8182 466.993 83.4426 467.082 82.0793C467.166 80.7161 467.082 79.2479 466.329 78.1623C465.575 77.0766 463.969 76.651 463.092 77.6133" fill="#042549"/>
<path d="M473.125 80.5925C473.945 79.9262 474.922 79.3772 475.932 79.5129C477.02 79.661 477.941 80.6541 478.22 81.8262C478.499 82.9982 478.186 84.2936 477.511 85.2497C476.836 86.2059 475.837 86.8412 474.777 87.162C474.163 87.3471 473.493 87.4211 472.908 87.1435C472.048 86.7364 471.585 85.515 471.92 84.5527" fill="#042549"/>
<path d="M465.29 239.341H457.596V251.407H465.29V239.341Z" fill="#F2A7AA"/>
<path d="M450.102 258.716C449.293 258.716 448.573 258.692 448.032 258.636C445.99 258.427 444.037 256.761 443.055 255.786C442.614 255.348 442.475 254.651 442.703 254.047C442.865 253.615 443.194 253.294 443.602 253.165L449.003 251.456L457.747 244.93L457.841 245.121C457.881 245.195 458.734 246.904 459.024 248.057C459.136 248.495 459.103 248.865 458.941 249.149C458.824 249.346 458.667 249.457 458.533 249.525C458.69 249.71 459.186 250.08 460.715 250.352C462.941 250.747 463.416 248.187 463.432 248.082L463.449 247.995L463.516 247.946C464.576 247.187 465.229 246.848 465.458 246.922C465.597 246.971 465.832 247.046 466.468 254.01C466.529 254.226 466.976 255.83 466.674 257.359C466.345 259.025 459.761 258.451 458.444 258.322C458.405 258.322 453.478 258.716 450.097 258.716H450.102Z" fill="#042549"/>
<path d="M487.198 229.852L480.669 234.354L486.444 244.591L492.973 240.09L487.198 229.852Z" fill="#F2A7AA"/>
<path d="M478.532 257.063C477.628 257.063 476.797 256.946 476.205 256.829C475.625 256.718 475.167 256.206 475.073 255.558C475.006 255.096 475.128 254.633 475.413 254.281L479.179 249.673L483.476 239.02L483.649 239.125C483.716 239.162 485.261 240.112 486.059 240.926C486.361 241.235 486.511 241.562 486.506 241.901C486.506 242.135 486.422 242.327 486.344 242.456C486.567 242.518 487.164 242.542 488.593 241.876C490.674 240.908 489.848 238.459 489.814 238.354L489.787 238.274L489.82 238.194C490.361 236.929 490.746 236.257 490.975 236.189C491.115 236.146 491.355 236.078 495.221 241.611C495.378 241.759 496.521 242.857 497.001 244.338C497.52 245.941 491.656 249.309 490.478 249.969C490.439 250 484.307 254.929 481.791 256.329C480.792 256.884 479.609 257.057 478.532 257.057V257.063Z" fill="#042549"/>
<path d="M470.96 138.411H449.416L447.463 160.568L456.017 242.431H467.015L462.618 195.149L480.456 237.836L490.232 230.273L476.299 190.424C476.299 190.424 481.277 155.707 477.365 147.059C473.454 138.411 470.96 138.411 470.96 138.411Z" fill="#042549"/>
<path d="M481.674 139.762H447.458L457.725 90.8633H472.629L481.674 139.762Z" fill="#0F85DA"/>
<path d="M438.959 89.8947C438.412 86.9214 439.411 84.2011 441.191 83.8248C442.971 83.4485 444.851 85.552 445.398 88.5314C445.633 89.7158 445.594 90.9433 445.292 92.1154L447.457 104.755L441.866 105.729L440.326 93.1702C439.634 92.2141 439.166 91.0914 438.959 89.8947Z" fill="#F2A7AA"/>
<path d="M472.265 90.8633H459.119L450.259 110.461L446.916 95.7796L439.573 96.6432C439.573 96.6432 441.309 125.333 448.908 124.365C456.502 123.396 474.218 97.5438 472.271 90.8694L472.265 90.8633Z" fill="#0F85DA"/>
<path d="M486.951 165.386C487.498 168.359 486.499 171.079 484.719 171.455C482.939 171.832 481.059 169.728 480.512 166.749C480.278 165.564 480.317 164.337 480.618 163.165L478.453 150.525L484.044 149.551L485.584 162.11C486.276 163.066 486.745 164.189 486.951 165.386Z" fill="#F2A7AA"/>
<path d="M464.772 90.8633C464.772 90.8633 472.244 90.5117 472.629 90.8633C474.665 92.7077 486.628 159.125 486.628 159.125H479.051L464.767 90.8633H464.772Z" fill="#0F85DA"/>
</g>
<defs>
<clipPath id="clip0_87_135">
<rect width="530" height="286" fill="white"/>
</clipPath>
</defs>
</svg>
