<svg width="27" height="26" viewBox="0 0 27 26" fill="none" xmlns="http://www.w3.org/2000/svg">
<path d="M19.7561 23.4V2.6C20.4805 2.6 21.1008 2.8548 21.6171 3.3644C22.1334 3.874 22.3911 4.48587 22.3902 5.2V20.8C22.3902 21.515 22.1325 22.1273 21.6171 22.6369C21.1017 23.1465 20.4814 23.4009 19.7561 23.4ZM2.63415 26C1.90976 26 1.28985 25.7456 0.774439 25.2369C0.259024 24.7282 0.000878049 24.1159 0 23.4V2.6C0 1.885 0.258146 1.27313 0.774439 0.7644C1.29073 0.255667 1.91063 0.000866667 2.63415 0H14.4878C15.2122 0 15.8325 0.2548 16.3488 0.7644C16.8651 1.274 17.1228 1.88587 17.1219 2.6V23.4C17.1219 24.115 16.8642 24.7273 16.3488 25.2369C15.8334 25.7465 15.2131 26.0009 14.4878 26H2.63415ZM25.0244 20.8V5.2C25.5732 5.2 26.0399 5.3898 26.4244 5.7694C26.809 6.149 27.0009 6.6092 27 7.15V18.85C27 19.3917 26.8081 19.8523 26.4244 20.2319C26.0407 20.6115 25.574 20.8009 25.0244 20.8Z" fill="#0F85DA"/>
</svg>
