<svg width="56" height="56" viewBox="0 0 56 56" fill="none" xmlns="http://www.w3.org/2000/svg">
<path d="M28.0005 36.021C25.8732 36.021 23.8331 35.1759 22.3289 33.6718C20.8247 32.1676 19.9797 30.1274 19.9797 28.0002C19.9797 25.8729 20.8247 23.8328 22.3289 22.3286C23.8331 20.8244 25.8732 19.9793 28.0005 19.9793C30.1277 19.9793 32.1679 20.8244 33.6721 22.3286C35.1763 23.8328 36.0213 25.8729 36.0213 28.0002C36.0213 30.1274 35.1763 32.1676 33.6721 33.6718C32.1679 35.1759 30.1277 36.021 28.0005 36.021ZM45.0276 30.2231C45.1192 29.4897 45.188 28.7564 45.188 28.0002C45.188 27.2439 45.1192 26.4877 45.0276 25.7085L49.863 21.9731C50.2984 21.6293 50.413 21.0106 50.138 20.5064L45.5547 12.5773C45.2797 12.0731 44.6609 11.8668 44.1567 12.0731L38.4505 14.3647C37.2588 13.471 36.0213 12.6918 34.5776 12.1189L33.7297 6.046C33.6831 5.77608 33.5425 5.53135 33.3328 5.35518C33.123 5.17901 32.8577 5.08276 32.5838 5.0835H23.4172C22.8442 5.0835 22.363 5.496 22.2713 6.046L21.4234 12.1189C19.9797 12.6918 18.7422 13.471 17.5505 14.3647L11.8442 12.0731C11.3401 11.8668 10.7213 12.0731 10.4463 12.5773L5.86299 20.5064C5.56507 21.0106 5.70257 21.6293 6.13799 21.9731L10.9734 25.7085C10.8817 26.4877 10.813 27.2439 10.813 28.0002C10.813 28.7564 10.8817 29.4897 10.9734 30.2231L6.13799 34.0272C5.70257 34.371 5.56507 34.9897 5.86299 35.4939L10.4463 43.4231C10.7213 43.9272 11.3401 44.1106 11.8442 43.9272L17.5505 41.6127C18.7422 42.5293 19.9797 43.3085 21.4234 43.8814L22.2713 49.9543C22.363 50.5043 22.8442 50.9168 23.4172 50.9168H32.5838C33.1567 50.9168 33.638 50.5043 33.7297 49.9543L34.5776 43.8814C36.0213 43.2856 37.2588 42.5293 38.4505 41.6127L44.1567 43.9272C44.6609 44.1106 45.2797 43.9272 45.5547 43.4231L50.138 35.4939C50.413 34.9897 50.2984 34.371 49.863 34.0272L45.0276 30.2231Z" fill="white"/>
</svg>
