<svg width="129" height="64" viewBox="0 0 129 64" fill="none" xmlns="http://www.w3.org/2000/svg">
<path d="M67 23.5L67.346 23.139L67 23.5ZM129 61L123.982 63.8554L124.018 58.0821L129 61ZM0 0.5C0.344951 0.5 0.688004 0.500778 1.02918 0.502323L1.02464 1.50232C0.684991 1.50077 0.343449 1.5 0 1.5V0.5ZM3.05372 0.520813C3.73912 0.530273 4.4167 0.542934 5.08659 0.558743L5.063 1.55846C4.39642 1.54274 3.7221 1.53013 3.03992 1.52072L3.05372 0.520813ZM7.10247 0.616539C7.7906 0.63982 8.47037 0.666523 9.14193 0.696579L9.09722 1.69558C8.42934 1.66569 7.75321 1.63913 7.06866 1.61597L7.10247 0.616539ZM11.1557 0.798092C11.8427 0.836678 12.5208 0.878883 13.1903 0.924648L13.1221 1.92232C12.4567 1.87683 11.7826 1.83488 11.0996 1.79652L11.1557 0.798092ZM15.2139 1.07586C15.8934 1.13105 16.5637 1.19003 17.2249 1.2527L17.1306 2.24824C16.4739 2.18599 15.8081 2.12741 15.1329 2.07258L15.2139 1.07586ZM19.2567 1.45993C19.938 1.53444 20.6093 1.61302 21.2709 1.69556L21.1471 2.68787C20.4906 2.60596 19.8243 2.52797 19.148 2.45401L19.2567 1.45993ZM23.2741 1.96169C23.9581 2.0582 24.6313 2.15911 25.294 2.2643L25.1372 3.25194C24.4802 3.14766 23.8127 3.0476 23.1344 2.95188L23.2741 1.96169ZM27.2991 2.60115C27.9744 2.721 28.6385 2.84546 29.2915 2.9744L29.0978 3.95546C28.4512 3.82778 27.7935 3.70451 27.1244 3.58577L27.2991 2.60115ZM31.2773 3.38747C31.9523 3.53518 32.615 3.68784 33.266 3.84531L33.0308 4.81728C32.3871 4.66155 31.7314 4.51052 31.0635 4.36436L31.2773 3.38747ZM35.2402 4.34697C35.9062 4.52451 36.5593 4.70728 37.2 4.89507L36.9188 5.8547C36.286 5.66924 35.6407 5.48868 34.9826 5.31321L35.2402 4.34697ZM39.1449 5.49229C39.801 5.70322 40.4437 5.91962 41.0735 6.14125L40.7415 7.08455C40.1204 6.86597 39.4864 6.65248 38.8388 6.44431L39.1449 5.49229ZM42.9841 6.84441C43.6281 7.09203 44.258 7.3453 44.8745 7.60393L44.4877 8.52608C43.8804 8.27135 43.2598 8.02182 42.6252 7.77777L42.9841 6.84441ZM46.7419 8.42157C47.3697 8.7083 47.9833 9.00074 48.5833 9.29853L48.1388 10.1943C47.5483 9.90127 46.9445 9.61345 46.3265 9.33119L46.7419 8.42157ZM50.3956 10.2354C51.0028 10.5621 51.5959 10.8944 52.1758 11.2318L51.6728 12.0962C51.1024 11.7643 50.5191 11.4374 49.9217 11.116L50.3956 10.2354ZM53.9213 12.2869C54.504 12.6524 55.0732 13.0231 55.6301 13.3985L55.0713 14.2277C54.5232 13.8583 53.9631 13.4936 53.3899 13.134L53.9213 12.2869ZM57.3011 14.5638C57.8574 14.9648 58.4015 15.3704 58.9348 15.7797L58.326 16.573C57.8002 16.1694 57.2641 15.7699 56.7163 15.3749L57.3011 14.5638ZM60.5343 17.0436C61.0651 17.4749 61.5857 17.9097 62.0978 18.3474L61.448 19.1075C60.9419 18.6749 60.4276 18.2454 59.9037 17.8197L60.5343 17.0436ZM63.6285 19.6851C64.1365 20.1384 64.6369 20.594 65.1315 21.0512L64.4527 21.7855C63.9619 21.3318 63.4658 20.8802 62.9627 20.4312L63.6285 19.6851ZM66.6128 22.4397C66.8582 22.6726 67.1025 22.9057 67.346 23.139L66.654 23.861C66.4117 23.6287 66.1685 23.3967 65.9244 23.165L66.6128 22.4397ZM67.346 23.139C67.5839 23.3671 67.8216 23.5995 68.059 23.8359L67.3534 24.5445C67.1202 24.3123 66.8871 24.0844 66.654 23.861L67.346 23.139ZM69.4558 25.273C69.9067 25.7508 70.3583 26.2417 70.8115 26.7439L70.0692 27.4139C69.6201 26.9163 69.1736 26.4309 68.7286 25.9594L69.4558 25.273ZM72.1372 28.2368C72.5693 28.7303 73.0039 29.2327 73.442 29.7423L72.6837 30.3942C72.247 29.8861 71.8143 29.3862 71.3848 28.8956L72.1372 28.2368ZM74.7348 31.2533C75.1604 31.7524 75.5894 32.2562 76.0239 32.7651L75.2634 33.4144C74.8288 32.9054 74.3988 32.4004 73.9739 31.9022L74.7348 31.2533ZM77.3158 34.2725C77.7437 34.7693 78.1769 35.269 78.616 35.7706L77.8636 36.4293C77.4224 35.9253 76.9874 35.4235 76.5581 34.9251L77.3158 34.2725ZM79.9293 37.2548C80.3663 37.7429 80.8095 38.2317 81.2595 38.7204L80.524 39.3979C80.0704 38.9054 79.624 38.413 79.1842 37.9218L79.9293 37.2548ZM82.6114 40.1644C83.063 40.6386 83.5218 41.1118 83.9882 41.5829L83.2775 42.2865C82.8062 41.8104 82.343 41.3326 81.8872 40.8541L82.6114 40.1644ZM85.393 42.9722C85.8635 43.4273 86.3418 43.8797 86.8285 44.3286L86.1505 45.0637C85.6577 44.6092 85.1736 44.1513 84.6977 43.691L85.393 42.9722ZM88.2967 45.6483C88.7889 46.0792 89.2896 46.5059 89.7994 46.9278L89.1619 47.6982C88.6447 47.2702 88.1369 46.8375 87.638 46.4007L88.2967 45.6483ZM91.338 48.1635C91.8539 48.5653 92.3789 48.9617 92.9135 49.352L92.3238 50.1597C91.7806 49.7631 91.2473 49.3604 90.7235 48.9524L91.338 48.1635ZM94.5229 50.4879C95.0614 50.855 95.6095 51.2157 96.1675 51.5692L95.6322 52.4139C95.0646 52.0542 94.5072 51.6874 93.9596 51.3142L94.5229 50.4879ZM97.8482 52.5942C98.4103 52.9238 98.9823 53.2462 99.5645 53.5606L99.0893 54.4405C98.4966 54.1204 97.9144 53.7923 97.3423 53.4568L97.8482 52.5942ZM101.316 54.4665C101.9 54.7553 102.493 55.0362 103.097 55.3085L102.686 56.2202C102.071 55.9428 101.467 55.6569 100.872 55.3628L101.316 54.4665ZM104.902 56.084C105.504 56.3297 106.115 56.567 106.737 56.7955L106.392 57.7341C105.759 57.5015 105.137 57.2599 104.524 57.0097L104.902 56.084ZM108.6 57.443C109.218 57.6457 109.846 57.8396 110.484 58.0245L110.206 58.985C109.557 58.7969 108.918 58.5995 108.289 58.3933L108.6 57.443ZM112.379 58.539C113.009 58.6986 113.649 58.8495 114.298 58.9913L114.085 59.9683C113.425 59.8241 112.774 59.6707 112.134 59.5083L112.379 58.539ZM116.239 59.3823C116.874 59.4997 117.518 59.6085 118.172 59.7084L118.021 60.6969C117.357 60.5954 116.702 60.4849 116.057 60.3656L116.239 59.3823ZM120.127 59.977C120.774 60.0561 121.43 60.1266 122.095 60.1884L122.003 61.1841C121.328 61.1215 120.662 61.0499 120.006 60.9696L120.127 59.977ZM124.051 60.3424C124.703 60.3847 125.363 60.4187 126.031 60.4442L125.993 61.4434C125.316 61.4177 124.647 61.3832 123.987 61.3403L124.051 60.3424Z" fill="#042549"/>
</svg>
