<svg width="56" height="54" viewBox="0 0 56 54" fill="none" xmlns="http://www.w3.org/2000/svg">
<g clip-path="url(#clip0_51_1814)">
<path d="M24.5625 4.9165C28.2199 4.91627 31.8035 5.90828 34.9032 7.77901C38.0028 9.64975 40.4933 12.3236 42.0896 15.4946C43.686 18.6656 44.3236 22.2057 43.9296 25.7096C43.5355 29.2135 42.1258 32.5397 39.8616 35.3076L48.2308 43.3724C48.6482 43.7889 48.8792 44.3467 48.874 44.9258C48.8688 45.5048 48.6278 46.0587 48.2029 46.4681C47.778 46.8775 47.2032 47.1098 46.6023 47.1148C46.0015 47.1199 45.4226 46.8973 44.9904 46.495L36.6212 38.4302C34.1816 40.2829 31.3176 41.5465 28.2681 42.1157C25.2187 42.6848 22.0722 42.543 19.0911 41.702C16.1101 40.8611 13.381 39.3453 11.1316 37.2812C8.88208 35.2172 7.17745 32.6646 6.15988 29.8366C5.14231 27.0086 4.84132 23.9871 5.28201 21.0242C5.7227 18.0613 6.8923 15.2429 8.69322 12.8041C10.4941 10.3654 12.8742 8.37701 15.6347 7.00491C18.3953 5.63281 21.4563 4.91676 24.5625 4.9165ZM24.5625 9.33317C20.6118 9.33317 16.823 10.8455 14.0295 13.5374C11.236 16.2293 9.66664 19.8804 9.66664 23.6873C9.66664 27.4943 11.236 31.1453 14.0295 33.8373C16.823 36.5292 20.6118 38.0415 24.5625 38.0415C28.5131 38.0415 32.3019 36.5292 35.0954 33.8373C37.8889 31.1453 39.4583 27.4943 39.4583 23.6873C39.4583 19.8804 37.8889 16.2293 35.0954 13.5374C32.3019 10.8455 28.5131 9.33317 24.5625 9.33317ZM24.5625 11.5415C27.9053 11.5415 31.1112 12.8212 33.475 15.0989C35.8387 17.3767 37.1666 20.4661 37.1666 23.6873C37.1666 26.9086 35.8387 29.998 33.475 32.2757C31.1112 34.5535 27.9053 35.8332 24.5625 35.8332C21.2196 35.8332 18.0137 34.5535 15.65 32.2757C13.2862 29.998 11.9583 26.9086 11.9583 23.6873C11.9583 20.4661 13.2862 17.3767 15.65 15.0989C18.0137 12.8212 21.2196 11.5415 24.5625 11.5415Z" fill="white"/>
</g>
<defs>
<clipPath id="clip0_51_1814">
<rect width="55" height="53" fill="white" transform="translate(0.5 0.5)"/>
</clipPath>
</defs>
</svg>
