<svg width="56" height="56" viewBox="0 0 56 56" fill="none" xmlns="http://www.w3.org/2000/svg">
<g clip-path="url(#clip0_51_1828)">
<g clip-path="url(#clip1_51_1828)">
<path d="M38.9583 12.4585C37.6927 12.4585 36.6667 13.4845 36.6667 14.7502C36.6667 16.0158 37.6927 17.0418 38.9583 17.0418H47.1758L30.9375 33.2801L21.0996 23.4422C20.2047 22.5473 18.7537 22.5473 17.8587 23.4422L0.671214 40.6297C-0.223738 41.5247 -0.223738 42.9757 0.671214 43.8706C1.56617 44.7656 3.01717 44.7656 3.91212 43.8706L19.4792 28.3036L29.317 38.1414C30.212 39.0364 31.663 39.0364 32.558 38.1414L50.4167 20.2827V28.5002C50.4167 29.7658 51.4427 30.7918 52.7083 30.7918C53.974 30.7918 55 29.7658 55 28.5002V14.7502C55 13.4845 53.974 12.4585 52.7083 12.4585H38.9583Z" fill="white"/>
</g>
</g>
<defs>
<clipPath id="clip0_51_1828">
<rect width="55" height="55" fill="white" transform="translate(0.5 0.5)"/>
</clipPath>
<clipPath id="clip1_51_1828">
<rect width="55" height="55" fill="white" transform="translate(0 1)"/>
</clipPath>
</defs>
</svg>
