<svg width="129" height="68" viewBox="0 0 129 68" fill="none" xmlns="http://www.w3.org/2000/svg">
<path d="M67 43L67.3574 43.3497L67 43ZM129 3L123.98 0.147351L124.02 5.92072L129 3ZM0 67.5C0.348426 67.5 0.694917 67.4992 1.03949 67.4975L1.0346 66.4975C0.69167 66.4992 0.346808 66.5 0 66.5V67.5ZM3.084 67.4774C3.77658 67.4671 4.46118 67.4533 5.13793 67.4361L5.1125 66.4364C4.43932 66.4535 3.75824 66.4672 3.06913 66.4775L3.084 67.4774ZM7.17267 67.3732C7.86811 67.3478 8.55502 67.3187 9.23354 67.286L9.18532 66.2871C8.51078 66.3197 7.8278 66.3486 7.13622 66.3738L7.17267 67.3732ZM11.2693 67.1752C11.9621 67.1333 12.6458 67.0873 13.3208 67.0376L13.2472 66.0403C12.5767 66.0897 11.8973 66.1354 11.2088 66.1771L11.2693 67.1752ZM15.3661 66.8726C16.0509 66.8126 16.7263 66.7484 17.3924 66.6802L17.2907 65.6854C16.6294 65.7531 15.9588 65.8168 15.2788 65.8764L15.3661 66.8726ZM19.4449 66.4542C20.1334 66.3729 20.8117 66.2871 21.48 66.197L21.3464 65.206C20.6836 65.2953 20.0107 65.3804 19.3276 65.4611L19.4449 66.4542ZM23.5002 65.907C24.1889 65.8019 24.8666 65.6921 25.5337 65.5777L25.3646 64.5921C24.7037 64.7055 24.0321 64.8143 23.3494 64.9184L23.5002 65.907ZM27.5572 65.2101C28.2385 65.0794 28.9083 64.9436 29.5669 64.8029L29.358 63.825C28.7063 63.9642 28.0433 64.0986 27.3687 64.2281L27.5572 65.2101ZM31.5639 64.3535C32.2415 64.193 32.9068 64.0272 33.5602 63.8562L33.307 62.8888C32.6613 63.0578 32.0036 63.2217 31.3335 63.3804L31.5639 64.3535ZM35.5461 63.3102C36.2154 63.117 36.8717 62.9183 37.5154 62.7141L37.2131 61.7609C36.5778 61.9624 35.9299 62.1586 35.2689 62.3493L35.5461 63.3102ZM39.4671 62.0653C40.1248 61.8364 40.7688 61.6017 41.3997 61.3613L41.0437 60.4269C40.4219 60.6637 39.787 60.8952 39.1385 61.1208L39.4671 62.0653ZM43.311 60.5999C43.9541 60.3323 44.583 60.0586 45.1986 59.7792L44.7853 58.8686C44.1794 59.1436 43.5601 59.4131 42.9268 59.6767L43.311 60.5999ZM47.0595 58.8977C47.6839 58.5893 48.294 58.2749 48.8908 57.9548L48.418 57.0736C47.8311 57.3884 47.2309 57.6977 46.6167 58.0012L47.0595 58.8977ZM50.6892 56.9503C51.2905 56.6008 51.8778 56.2456 52.4522 55.885L51.9204 55.0381C51.3556 55.3927 50.778 55.742 50.1868 56.0857L50.6892 56.9503ZM54.1773 54.7606C54.7519 54.372 55.3134 53.9782 55.8629 53.5795L55.2757 52.7701C54.7349 53.1624 54.1824 53.55 53.6172 53.9321L54.1773 54.7606ZM57.5084 52.3452C58.0559 51.9209 58.5916 51.4921 59.117 51.0593L58.4811 50.2875C57.9631 50.7143 57.4351 51.1369 56.8959 51.5548L57.5084 52.3452ZM60.6866 49.7289C61.2068 49.276 61.7173 48.8194 62.2195 48.36L61.5445 47.6222C61.0479 48.0765 60.5435 48.5276 60.0299 48.9748L60.6866 49.7289ZM63.7191 46.9584C64.2163 46.4841 64.7064 46.0075 65.1909 45.5294L64.4885 44.8176C64.0075 45.2923 63.5215 45.7649 63.0289 46.2348L63.7191 46.9584ZM66.6402 44.0794C66.8803 43.8364 67.1193 43.5931 67.3574 43.3497L66.6426 42.6504C66.4054 42.8928 66.1675 43.135 65.9287 43.3768L66.6402 44.0794ZM67.3574 43.3497C67.5924 43.1094 67.8271 42.8647 68.0616 42.6157L67.3336 41.9301C67.1032 42.1748 66.8729 42.4149 66.6426 42.6504L67.3574 43.3497ZM69.4398 41.1044C69.8841 40.6027 70.329 40.0875 70.7755 39.5604L70.0125 38.914C69.57 39.4364 69.1299 39.946 68.6912 40.4413L69.4398 41.1044ZM72.0803 37.9951C72.5054 37.4778 72.9331 36.9512 73.364 36.417L72.5857 35.7891C72.1561 36.3217 71.7304 36.8458 71.3077 37.3602L72.0803 37.9951ZM74.6354 34.8328C75.0544 34.309 75.4747 33.7824 75.9021 33.2482L75.1212 32.6235C74.695 33.1562 74.2714 33.6869 73.8545 34.2082L74.6354 34.8328ZM77.1706 31.6679C77.5908 31.1468 78.016 30.6225 78.4469 30.0962L77.6731 29.4628C77.2403 29.9914 76.8136 30.5176 76.3922 31.0401L77.1706 31.6679ZM79.736 28.5372C80.1654 28.0236 80.6008 27.5091 81.0427 26.9946L80.2841 26.343C79.839 26.8612 79.4008 27.3791 78.9688 27.8957L79.736 28.5372ZM82.371 25.4721C82.8152 24.9714 83.2662 24.4716 83.7246 23.9736L82.9889 23.2963C82.526 23.7991 82.0709 24.3035 81.6229 24.8085L82.371 25.4721ZM85.1068 22.5028C85.5703 22.0201 86.0413 21.54 86.5205 21.0634L85.8153 20.3544C85.3304 20.8367 84.8539 21.3223 84.3854 21.8103L85.1068 22.5028ZM87.9681 19.6592C88.4541 19.1997 88.9485 18.7444 89.4518 18.2941L88.7849 17.5489C88.2746 18.0055 87.7735 18.467 87.2811 18.9326L87.9681 19.6592ZM90.9729 16.972C91.4829 16.5419 92.0019 16.1172 92.5302 15.6989L91.9095 14.9149C91.3728 15.3398 90.8458 15.771 90.3282 16.2076L90.9729 16.972ZM94.1269 14.4762C94.6628 14.0796 95.2081 13.6898 95.7633 13.3074L95.1961 12.4838C94.6313 12.8728 94.0768 13.2692 93.532 13.6723L94.1269 14.4762ZM97.4395 12.1959C98.0015 11.8374 98.5733 11.4867 99.1554 11.1444L98.6485 10.2824C98.0558 10.6309 97.4737 10.988 96.9017 11.3528L97.4395 12.1959ZM100.908 10.1569C101.492 9.8419 102.087 9.53538 102.692 9.23797L102.25 8.3406C101.634 8.64359 101.029 8.95584 100.434 9.27672L100.908 10.1569ZM104.51 8.38616C105.117 8.11568 105.734 7.85432 106.361 7.60261L105.989 6.67445C105.35 6.9309 104.721 7.19719 104.103 7.47277L104.51 8.38616ZM108.246 6.88792C108.869 6.66502 109.502 6.4515 110.145 6.24788L109.844 5.29448C109.189 5.50185 108.544 5.71932 107.909 5.94638L108.246 6.88792ZM112.07 5.67754C112.71 5.50041 113.36 5.33291 114.02 5.17548L113.789 4.20274C113.117 4.36294 112.455 4.53342 111.803 4.71375L112.07 5.67754ZM115.987 4.74302C116.634 4.61242 117.291 4.49132 117.958 4.38009L117.793 3.39373C117.116 3.50679 116.448 3.62993 115.789 3.76277L115.987 4.74302ZM119.951 4.08123C120.61 3.99352 121.277 3.91524 121.954 3.84674L121.853 2.85182C121.166 2.92138 120.488 3.00088 119.819 3.08999L119.951 4.08123ZM123.951 3.67517C124.616 3.62812 125.289 3.59031 125.972 3.56202L125.93 2.56288C125.238 2.59156 124.555 2.62992 123.88 2.67767L123.951 3.67517Z" fill="#042549"/>
</svg>
