<svg width="277" height="387" viewBox="0 0 277 387" fill="none" xmlns="http://www.w3.org/2000/svg">
<path d="M133.684 37.3291C127.482 48.0338 139.159 66.0706 127.391 69.816L128.36 68.8445C135.464 60.0889 120.616 41.5573 127.72 32.8016C128.824 31.5173 129.771 30.1061 130.542 28.5977" fill="#042549"/>
<path d="M191.76 194.375C191.964 193.304 191.93 192.201 191.662 191.144C191.394 190.087 190.898 189.102 190.209 188.258C189.52 187.414 188.654 186.732 187.674 186.26C186.693 185.787 185.621 185.536 184.533 185.523L169.204 140.898L160.719 151.735L176.926 193.432C177.026 195.265 177.794 196.998 179.084 198.301C180.374 199.605 182.097 200.389 183.925 200.506C185.754 200.622 187.561 200.062 189.005 198.932C190.449 197.802 191.429 196.181 191.76 194.375Z" fill="#FFB8B8"/>
<path d="M124.379 86.6336C124.379 86.6336 123.902 70.48 138.318 79.7338C152.734 88.9875 184.122 175.672 184.122 175.672L168.502 184.14L133.043 104.814L124.379 86.6336Z" fill="#ACBEC8"/>
<path d="M166.91 363.495L159.711 366.577L144.42 340.222L155.045 335.673L166.91 363.495Z" fill="#FFB6B6"/>
<path d="M176.039 374.365L170.876 376.576L167.872 372.087L167.595 377.981L153.903 383.843C153.246 384.124 152.518 384.188 151.823 384.025C151.128 383.861 150.503 383.48 150.04 382.935C149.577 382.391 149.3 381.713 149.249 381C149.198 380.286 149.376 379.575 149.756 378.97L157.463 366.722L155.358 361.785L167.152 357.548L176.039 374.365Z" fill="#042549"/>
<path d="M54.0633 372.434L46.2446 372.051L43.9971 341.65L55.5378 342.215L54.0633 372.434Z" fill="#FFB6B6"/>
<path d="M57.5282 386.211L51.9209 385.936L51.1787 380.583L48.3566 385.762L33.4847 385.034C32.7718 384.999 32.0887 384.736 31.5351 384.285C30.9816 383.834 30.5865 383.217 30.4076 382.524C30.2287 381.832 30.2754 381.101 30.5408 380.437C30.8062 379.773 31.2764 379.211 31.8828 378.834L44.16 371.197L44.4216 365.834L56.8769 367.193L57.5282 386.211Z" fill="#042549"/>
<path d="M216.51 366.284C217.028 366.303 217.539 366.162 217.974 365.88C218.41 365.598 218.748 365.189 218.943 364.708C219.139 364.227 219.182 363.697 219.067 363.191C218.952 362.684 218.684 362.226 218.3 361.877C218.234 361.624 218.186 361.442 218.12 361.189C218.604 359.923 219.454 358.83 220.561 358.052C221.668 357.273 222.982 356.843 224.334 356.817C225.686 356.792 227.016 357.171 228.151 357.907C229.287 358.644 230.177 359.703 230.708 360.949C233.771 367.946 237.717 375.183 235.862 382.939C248.34 355.772 243.69 322.172 224.649 299.223C219.419 296.401 215.154 291.34 214 285.426C216.583 286.276 219.773 284.147 217.812 281.448C216.963 280.417 216.105 279.395 215.257 278.364C224.938 267.834 236.747 284.126 226.115 298.315C229.679 302.706 232.775 307.458 235.353 312.493C234.717 307.126 235.363 301.684 237.236 296.616C239.138 291.891 242.75 287.892 245.925 283.793C249.786 278.798 257.85 281.008 258.435 287.295C254.84 288.517 254.422 293.741 258.553 294.416C257.584 306.13 250.056 316.958 239.594 322.192C243.579 333.067 245.205 344.668 244.364 356.222C246.091 342.711 260.514 339.299 270.566 333.84C271.205 333.421 271.952 333.197 272.716 333.196C273.48 333.195 274.228 333.416 274.868 333.834C275.509 334.251 276.014 334.846 276.322 335.546C276.631 336.247 276.73 337.022 276.606 337.777C275.217 338.358 273.889 339.077 272.642 339.921C272.057 340.323 271.611 340.896 271.365 341.562C271.118 342.228 271.083 342.954 271.264 343.64C271.446 344.327 271.835 344.94 272.378 345.397C272.921 345.853 273.591 346.13 274.297 346.19C269.325 358.868 256.239 367.474 242.716 367.555C241.47 373.226 239.64 378.752 237.254 384.043L217.184 384.235C217.11 384.012 217.043 383.782 216.976 383.559C218.835 383.658 220.699 383.529 222.526 383.175C217.556 377.391 213.727 374.452 216.51 366.284Z" fill="white"/>
<path d="M73.8153 174.812C73.8153 174.812 57.9149 218.232 57.658 223.091C57.4011 227.95 52.8664 289.394 49.0633 292.964C45.2602 296.534 33.6332 351.883 42.6802 356.213C51.7272 360.542 80.2699 353.37 80.2699 353.37L90.1992 287.989L93.5723 237.899C93.5723 237.899 103.841 355.852 122.466 355.505C141.091 355.158 163.787 348.052 163.787 348.052L137.718 276.618C137.718 276.618 138.087 192.051 132.044 174.994C126.002 157.937 73.8153 174.812 73.8153 174.812Z" fill="#042549"/>
<path d="M120.997 62.9468L99.7024 64.9012L96.2719 75.4529C96.2719 75.4529 78.4513 85.2594 82.3973 89.7145C86.3434 94.1696 81.515 124.193 81.515 124.193L82.6055 148.564C82.6055 148.564 81.4341 165.448 77.9283 169.339C74.4226 173.229 65.2508 182.768 71.7314 178.204C94.4544 162.202 134.172 175.705 134.172 175.705L128.498 140.882C128.498 140.882 141.386 83.8695 136.3 79.0546C131.214 74.2396 126.415 73.631 126.415 73.631L120.997 62.9468Z" fill="#ACBEC8"/>
<path d="M9.1039 173.404C10.1737 173.204 11.1869 172.772 12.072 172.137C12.9571 171.503 13.6926 170.682 14.2267 169.732C14.7609 168.782 15.0806 167.726 15.1634 166.639C15.2463 165.551 15.0902 164.459 14.7062 163.439L50.6217 132.907L37.462 128.927L4.58796 159.214C2.92016 159.974 1.58853 161.32 0.845401 162.999C0.102272 164.677 -0.000717053 166.57 0.555931 168.319C1.11258 170.068 2.2902 171.551 3.86564 172.489C5.44109 173.426 7.3049 173.751 9.1039 173.404Z" fill="#FFB8B8"/>
<path d="M100.317 93.5409C100.317 93.5409 107.393 79.0188 90.4524 81.4995C73.5117 83.9801 9.26953 150.009 9.26953 150.009L20.0205 164.173L84.9472 106.53L100.317 93.5409Z" fill="#0F85DA"/>
<path d="M72.729 68.9086L5.56235 155.13C4.40042 156.627 3.87793 158.524 4.10937 160.406C4.34082 162.287 5.30732 164 6.79709 165.169C22.395 203.118 69.0594 231.258 123.954 256.801C125.447 257.966 127.34 258.49 129.219 258.259C131.097 258.027 132.807 257.057 133.973 255.564L201.139 169.342C202.303 167.846 202.826 165.948 202.594 164.066C202.363 162.184 201.395 160.471 199.905 159.303C153.838 133.238 114.244 103.041 82.7481 67.6713C81.2546 66.5071 79.3614 65.9835 77.4834 66.2154C75.6054 66.4474 73.8957 67.4158 72.729 68.9086Z" fill="#E6E6E6"/>
<path d="M196.425 167.38L175.981 193.625C163.492 209.56 145.217 219.896 125.148 222.374C105.078 224.853 84.8456 219.272 68.8693 206.852L11.5735 162.039C10.7247 161.375 10.1735 160.401 10.0408 159.33C9.90805 158.259 10.2046 157.179 10.8655 156.327L75.7688 73.011C76.4332 72.1618 77.4066 71.6113 78.4755 71.4803C79.5445 71.3494 80.6216 71.6486 81.4706 72.3124C110.454 109.813 149.25 138.997 195.724 161.673C196.571 162.337 197.121 163.311 197.252 164.381C197.384 165.451 197.087 166.529 196.425 167.38Z" fill="white"/>
<path d="M71.3894 115.977L58.0746 133.069C57.7213 133.522 57.203 133.816 56.6337 133.886C56.0644 133.956 55.4906 133.796 55.0385 133.443C54.5864 133.089 54.2928 132.57 54.2224 132C54.152 131.429 54.3105 130.854 54.663 130.401L67.9778 113.309C68.1526 113.084 68.3698 112.896 68.6171 112.755C68.8644 112.615 69.137 112.525 69.4192 112.49C69.7013 112.455 69.9876 112.476 70.2617 112.552C70.5357 112.628 70.7922 112.757 71.0163 112.932C71.2404 113.107 71.4279 113.325 71.568 113.573C71.708 113.821 71.798 114.094 71.8326 114.377C71.8673 114.66 71.846 114.947 71.7699 115.221C71.6939 115.496 71.5646 115.753 71.3894 115.977Z" fill="#CCCCCC"/>
<path d="M96.3641 103.299L67.1236 140.835C66.9488 141.059 66.7315 141.247 66.4843 141.387C66.237 141.527 65.9646 141.618 65.6825 141.652C65.4005 141.687 65.1144 141.666 64.8405 141.59C64.5666 141.514 64.3104 141.385 64.0864 141.21C63.8623 141.034 63.675 140.817 63.5349 140.569C63.3949 140.321 63.3049 140.048 63.2702 139.766C63.2354 139.483 63.2565 139.196 63.3324 138.922C63.4082 138.648 63.5372 138.391 63.712 138.166L92.9525 100.63C93.1271 100.405 93.3443 100.217 93.5917 100.076C93.8391 99.9356 94.1117 99.8451 94.394 99.81C94.6763 99.7749 94.9628 99.7959 95.237 99.8718C95.5112 99.9478 95.7677 100.077 95.992 100.253C96.2162 100.428 96.4038 100.646 96.5439 100.894C96.684 101.142 96.7738 101.415 96.8084 101.698C96.843 101.981 96.8215 102.268 96.7453 102.543C96.669 102.817 96.5395 103.074 96.3641 103.299Z" fill="#CCCCCC"/>
<path d="M46.4931 165.908C54.3647 165.908 60.7459 159.514 60.7459 151.627C60.7459 143.739 54.3647 137.345 46.4931 137.345C38.6214 137.345 32.2402 143.739 32.2402 151.627C32.2402 159.514 38.6214 165.908 46.4931 165.908Z" fill="#0F85DA"/>
<path d="M97.9165 132.965L62.0034 179.066C61.6286 179.449 61.1265 179.679 60.5928 179.715C60.059 179.75 59.531 179.587 59.1093 179.257C58.6877 178.928 58.4019 178.454 58.3064 177.927C58.211 177.399 58.3126 176.855 58.5918 176.398L94.5049 130.296C94.8797 129.914 95.3818 129.683 95.9156 129.648C96.4493 129.613 96.9773 129.775 97.399 130.105C97.8206 130.435 98.1064 130.909 98.2019 131.436C98.2973 131.963 98.1958 132.507 97.9165 132.965Z" fill="#CCCCCC"/>
<path d="M121.213 122.439L71.0874 186.785C70.7126 187.168 70.2105 187.399 69.6768 187.434C69.143 187.469 68.615 187.306 68.1933 186.977C67.7717 186.647 67.4859 186.173 67.3904 185.646C67.295 185.118 67.3966 184.574 67.6758 184.117L117.802 119.77C118.177 119.388 118.679 119.157 119.212 119.122C119.746 119.087 120.274 119.249 120.696 119.579C121.117 119.909 121.403 120.383 121.499 120.91C121.594 121.438 121.493 121.982 121.213 122.439Z" fill="#CCCCCC"/>
<path d="M121.04 151.05L85.1265 197.152C84.7517 197.534 84.2496 197.765 83.7158 197.8C83.1821 197.835 82.654 197.673 82.2324 197.343C81.8107 197.013 81.5249 196.539 81.4295 196.012C81.334 195.485 81.4356 194.94 81.7149 194.483L117.628 148.382C118.003 147.999 118.505 147.769 119.039 147.733C119.572 147.698 120.1 147.861 120.522 148.191C120.944 148.52 121.229 148.994 121.325 149.521C121.42 150.049 121.319 150.593 121.04 151.05Z" fill="#CCCCCC"/>
<path d="M168.559 156.736L132.646 202.837C132.271 203.22 131.769 203.45 131.235 203.486C130.702 203.521 130.174 203.358 129.752 203.028C129.33 202.699 129.044 202.225 128.949 201.698C128.854 201.17 128.955 200.626 129.234 200.169L165.147 154.067C165.522 153.685 166.024 153.454 166.558 153.419C167.092 153.384 167.62 153.546 168.042 153.876C168.463 154.206 168.749 154.68 168.844 155.207C168.94 155.734 168.838 156.278 168.559 156.736Z" fill="#0F85DA"/>
<path d="M144.337 140.524L94.2114 204.871C93.8366 205.253 93.3345 205.484 92.8008 205.519C92.267 205.555 91.739 205.392 91.3173 205.062C90.8957 204.732 90.6099 204.258 90.5144 203.731C90.419 203.204 90.5206 202.66 90.7998 202.202L140.926 137.856C141.301 137.473 141.803 137.243 142.336 137.207C142.87 137.172 143.398 137.335 143.82 137.665C144.241 137.994 144.527 138.468 144.623 138.996C144.718 139.523 144.617 140.067 144.337 140.524Z" fill="#CCCCCC"/>
<path d="M85.2959 35.7062C85.2946 39.1754 86.1433 42.5919 87.7673 45.6557C89.3914 48.7196 91.7413 51.3371 94.6106 53.2785C97.4799 55.22 100.781 56.426 104.224 56.7906C107.667 57.1553 111.147 56.6675 114.358 55.37C117.569 54.0726 120.413 52.0051 122.641 49.3492C124.868 46.6933 126.411 43.5301 127.133 40.1372C127.856 36.7444 127.736 33.2258 126.785 29.8901C125.833 26.5545 124.079 23.5038 121.677 21.006L121.575 20.9044C121.406 20.7263 121.237 20.5483 121.059 20.3787C121.058 20.3787 121.057 20.3785 121.056 20.3781C121.055 20.3776 121.054 20.377 121.053 20.3762C121.052 20.3754 121.051 20.3745 121.051 20.3734C121.051 20.3724 121.05 20.3713 121.05 20.3702C120.831 20.1667 120.611 19.9633 120.382 19.7683C117.326 17.0833 113.562 15.3379 109.541 14.741C105.52 14.1441 101.413 14.721 97.7108 16.4027C94.0088 18.0843 90.8689 20.7994 88.6671 24.223C86.4653 27.6465 85.2948 31.6334 85.2959 35.7062Z" fill="#042549"/>
<path d="M111.658 58.382C121.454 58.382 129.395 50.4252 129.395 40.6099C129.395 30.7947 121.454 22.8379 111.658 22.8379C101.863 22.8379 93.9219 30.7947 93.9219 40.6099C93.9219 50.4252 101.863 58.382 111.658 58.382Z" fill="#FFB8B8"/>
<path d="M92.7502 45.3463C91.0166 37.5179 93.5225 28.7474 98.9858 23.5212C101.734 20.9445 105.151 19.197 108.846 18.4795C112.54 17.7619 116.362 18.1034 119.872 19.4647C120.318 19.6452 120.764 19.8426 121.202 20.0487L121.405 20.1448V20.1747C121.445 20.2021 121.484 20.2309 121.524 20.26C121.606 20.3377 121.707 20.3934 121.817 20.4221C123.357 20.3817 124.888 20.6679 126.31 21.2618C127.732 21.8557 129.012 22.744 130.068 23.8685C132.817 26.8572 134.111 31.6872 133.714 37.4686L133.702 37.6494L133.548 37.7455C131.467 39.067 129.307 40.2601 127.081 41.3182C119.295 44.9868 112.186 45.6665 105.354 43.3937L105.229 43.352L102.362 38.5367C101.773 41.8578 102.087 52.874 98.7095 53.4709L92.8236 45.6783L92.7502 45.3463Z" fill="#042549"/>
<path d="M55.4143 60.8201C61.45 57.6985 53.6874 46.3692 55.2472 39.7452C56.8071 33.1213 68.0398 30.9908 68.7554 24.2228C69.4709 17.4548 71.1543 10.4743 75.6114 5.33873C78.4595 2.05708 82.6562 -0.365544 86.9769 0.0455027C88.4389 0.184575 89.8537 0.637725 91.1251 1.37409C92.3965 2.11045 93.4946 3.11274 94.3446 4.31267C95.1945 5.5126 95.7764 6.88198 96.0506 8.32756C96.3248 9.77314 96.2848 11.261 95.9334 12.6897C97.1636 10.943 100.347 11.3216 101.135 13.3083C101.836 15.0745 100.288 17.2139 98.4668 17.3701C96.0834 20.3194 93.3542 23.4493 89.6203 24.0443C89.0254 24.1812 88.4072 24.1808 87.8124 24.0433C87.2177 23.9057 86.6619 23.6345 86.187 23.2502C85.3086 22.4049 85.2403 20.715 86.2823 20.0833C81.5899 21.9511 78.8387 27.0347 78.1425 32.0456C77.4463 37.0565 78.4095 42.1265 79.0443 47.1456C79.679 52.1647 79.9525 57.4445 77.9885 62.1054C75.668 67.6122 70.3255 71.559 64.4951 72.8247C58.6647 74.0905 52.4554 72.8534 47.1779 70.0663C41.9004 67.279 37.4994 63.0241 33.9043 58.2538C40.0972 62.66 48.665 64.3107 55.4143 60.8201Z" fill="#042549"/>
<path d="M103.186 39.461C96.9851 50.1657 108.662 68.2024 96.8936 71.9479L97.8631 70.9764C104.967 62.2208 90.1189 43.6891 97.2229 34.9335C98.3266 33.6491 99.2741 32.2379 100.045 30.7295" fill="#042549"/>
<path d="M93.5791 45.1844C93.5791 45.1844 98.8332 25.5334 121.355 20.9978C121.381 20.9894 121.465 20.9554 121.575 20.9046C121.643 20.8622 121.728 20.8198 121.812 20.7774C121.558 20.6333 121.313 20.5062 121.059 20.3789L121.056 20.3783L121.053 20.3764L121.051 20.3737L121.051 20.3704C120.831 20.167 120.611 19.9635 120.382 19.7685L119.739 19.794C119.739 19.794 97.141 16.208 93.5791 45.1844Z" fill="#406CDC"/>
</svg>
