<svg width="100" height="101" viewBox="0 0 100 101" fill="none" xmlns="http://www.w3.org/2000/svg">
<path d="M91.667 71.0001V83.5001C91.6717 84.6605 91.434 85.8091 90.9691 86.8724C90.5042 87.9356 89.8224 88.89 88.9673 89.6745C88.1122 90.459 87.1027 91.0563 86.0034 91.428C84.9041 91.7998 83.7393 91.9379 82.5836 91.8334C69.7621 90.4402 57.4461 86.059 46.6253 79.0417C36.5579 72.6445 28.0225 64.1091 21.6253 54.0417C14.5835 43.1718 10.2013 30.7959 8.83362 17.9167C8.7295 16.7645 8.86644 15.6032 9.23571 14.5068C9.60498 13.4104 10.1985 12.403 10.9785 11.5485C11.7585 10.694 12.7078 10.0114 13.7661 9.54392C14.8244 9.07647 15.9684 8.8345 17.1253 8.83341H29.6253C31.6474 8.81351 33.6078 9.52957 35.141 10.8481C36.6742 12.1667 37.6756 13.9978 37.9586 16.0001C38.4862 20.0004 39.4647 23.9281 40.8753 27.7084C41.4359 29.1998 41.5572 30.8206 41.2249 32.3787C40.8926 33.9369 40.1206 35.3672 39.0003 36.5001L33.7086 41.7917C39.6401 52.2232 48.2772 60.8603 58.7086 66.7917L64.0003 61.5001C65.1332 60.3798 66.5634 59.6078 68.1216 59.2755C69.6798 58.9432 71.3006 59.0645 72.792 59.6251C76.5723 61.0357 80.5 62.0141 84.5003 62.5417C86.5243 62.8273 88.3728 63.8468 89.6942 65.4063C91.0156 66.9658 91.7177 68.9566 91.667 71.0001Z" stroke="#0F85DA" stroke-width="8" stroke-linecap="round" stroke-linejoin="round"/>
</svg>
