<svg width="100" height="101" viewBox="0 0 100 101" fill="none" xmlns="http://www.w3.org/2000/svg">
<path fill-rule="evenodd" clip-rule="evenodd" d="M30.3871 39.2206C32.0142 37.5934 34.6524 37.5934 36.2796 39.2206L44.6108 47.5517C46.2426 46.7708 48.0702 46.3335 50 46.3335C56.9036 46.3335 62.5 51.9299 62.5 58.8335C62.5 65.7371 56.9036 71.3335 50 71.3335C43.0964 71.3335 37.5 65.7371 37.5 58.8335C37.5 56.9037 37.9373 55.0761 38.7182 53.4443L30.3871 45.1131C28.7599 43.4859 28.7599 40.8477 30.3871 39.2206ZM50 54.6668C47.6988 54.6668 45.8333 56.5323 45.8333 58.8335C45.8333 61.1347 47.6988 63.0002 50 63.0002C52.3012 63.0002 54.1667 61.1347 54.1667 58.8335C54.1667 56.5323 52.3012 54.6668 50 54.6668Z" fill="#0F85DA"/>
<path fill-rule="evenodd" clip-rule="evenodd" d="M0 58.8335C0 31.2198 22.3863 8.8335 50 8.8335C77.6137 8.8335 100 31.2198 100 58.8335C100 70.9167 95.7063 82.0098 88.5667 90.6536L87.3168 92.1668H12.6832L11.4333 90.6536C4.29374 82.0098 0 70.9167 0 58.8335ZM45.8333 17.3726V21.3335C45.8333 23.6347 47.6988 25.5002 50 25.5002C52.3012 25.5002 54.1667 23.6347 54.1667 21.3335V17.3726C62.5484 18.2048 70.1996 21.5211 76.3736 26.5748C76.3216 26.6218 76.2705 26.6704 76.2204 26.7206L72.0537 30.8872C70.4265 32.5144 70.4265 35.1526 72.0537 36.7798C73.6809 38.407 76.3191 38.407 77.9463 36.7798L82.1129 32.6131C82.1631 32.563 82.2117 32.5119 82.2587 32.4599C87.3124 38.6339 90.6287 46.285 91.4609 54.6668H87.5C85.1988 54.6668 83.3333 56.5323 83.3333 58.8335C83.3333 61.1347 85.1988 63.0002 87.5 63.0002H91.4611C90.6897 70.7722 87.7833 77.9123 83.3341 83.8335H16.6659C12.2167 77.9123 9.31027 70.7722 8.53895 63.0002H12.5C14.8012 63.0002 16.6667 61.1347 16.6667 58.8335C16.6667 56.5323 14.8012 54.6668 12.5 54.6668H8.53908C10.4936 34.9822 26.1487 19.3271 45.8333 17.3726Z" fill="#0F85DA"/>
</svg>
