<svg width="100" height="101" viewBox="0 0 100 101" fill="none" xmlns="http://www.w3.org/2000/svg">
<path d="M36.2799 39.2206C34.6528 37.5934 32.0146 37.5934 30.3874 39.2206C28.7602 40.8477 28.7602 43.4859 30.3874 45.1131L47.0541 61.7798C48.6812 63.407 51.3194 63.407 52.9466 61.7798L69.6133 45.1131C71.2405 43.4859 71.2405 40.8477 69.6133 39.2206C67.9861 37.5934 65.3479 37.5934 63.7207 39.2206L50.0003 52.9409L36.2799 39.2206Z" fill="#0F85DA"/>
<path fill-rule="evenodd" clip-rule="evenodd" d="M83.3337 8.8335H16.667C13.3518 8.8335 10.1724 10.1505 7.82816 12.4947C5.48395 14.8389 4.16699 18.0183 4.16699 21.3335V46.3335C4.16699 58.4892 8.99585 70.1471 17.5913 78.7426C21.8473 82.9986 26.8999 86.3746 32.4607 88.678C38.0214 90.9813 43.9814 92.1668 50.0003 92.1668C62.1561 92.1668 73.814 87.338 82.4094 78.7426C91.0048 70.1471 95.8337 58.4892 95.8337 46.3335V21.3335C95.8337 18.0183 94.5167 14.8389 92.1725 12.4947C89.8283 10.1505 86.6489 8.8335 83.3337 8.8335ZM13.7207 18.3872C14.5021 17.6058 15.5619 17.1668 16.667 17.1668H83.3337C84.4387 17.1668 85.4985 17.6058 86.2799 18.3872C87.0613 19.1686 87.5003 20.2284 87.5003 21.3335V46.3335C87.5003 56.2791 83.5494 65.8174 76.5168 72.85C69.4842 79.8826 59.9459 83.8335 50.0003 83.8335C45.0758 83.8335 40.1994 82.8635 35.6497 80.979C31.1 79.0944 26.966 76.3322 23.4838 72.85C16.4512 65.8174 12.5003 56.2791 12.5003 46.3335V21.3335C12.5003 20.2284 12.9393 19.1686 13.7207 18.3872Z" fill="#0F85DA"/>
</svg>
