<svg width="100" height="101" viewBox="0 0 100 101" fill="none" xmlns="http://www.w3.org/2000/svg">
<g clip-path="url(#clip0_91_1498)">
<path fill-rule="evenodd" clip-rule="evenodd" d="M49.9997 25.5C40.7949 25.5 33.333 32.9619 33.333 42.1667C33.333 51.3714 40.7949 58.8333 49.9997 58.8333C59.2044 58.8333 66.6663 51.3714 66.6663 42.1667C66.6663 32.9619 59.2044 25.5 49.9997 25.5ZM41.6663 42.1667C41.6663 37.5643 45.3973 33.8333 49.9997 33.8333C54.602 33.8333 58.333 37.5643 58.333 42.1667C58.333 46.769 54.602 50.5 49.9997 50.5C45.3973 50.5 41.6663 46.769 41.6663 42.1667Z" fill="#0F85DA"/>
<path fill-rule="evenodd" clip-rule="evenodd" d="M47.6862 99.7987C47.6874 99.7995 47.6884 99.8002 49.9997 96.3333L47.6862 99.7987C49.0857 100.732 50.9113 100.733 52.3109 99.8002L49.9997 96.3333C52.3109 99.8002 52.3097 99.801 52.3109 99.8002L52.3251 99.7907L52.3529 99.7721L52.4483 99.7075C52.5295 99.6524 52.6452 99.5733 52.7932 99.4708C53.0891 99.2658 53.5144 98.9672 54.0505 98.58C55.1224 97.8059 56.6398 96.6759 58.4546 95.2309C62.0775 92.346 66.9189 88.1784 71.7745 83.0531C81.3152 72.9823 91.6663 58.4248 91.6663 42.1667C91.6663 31.116 87.2765 20.5179 79.4625 12.7039C71.6484 4.88987 61.0504 0.5 49.9997 0.5C38.949 0.5 28.3509 4.88987 20.5369 12.7039C12.7229 20.5179 8.33301 31.116 8.33301 42.1667C8.33301 58.4248 18.6841 72.9823 28.2249 83.0531C33.0805 88.1784 37.9219 92.346 41.5448 95.2309C43.3595 96.6759 44.8769 97.8059 45.9488 98.58C46.4849 98.9672 46.9102 99.2658 47.2062 99.4708C47.3542 99.5733 47.4699 99.6524 47.551 99.7075L47.6465 99.7721L47.6743 99.7907L47.6862 99.7987ZM26.4294 18.5964C32.6807 12.3452 41.1591 8.83333 49.9997 8.83333C58.8402 8.83333 67.3187 12.3452 73.5699 18.5964C79.8211 24.8477 83.333 33.3261 83.333 42.1667C83.333 55.0752 74.9341 67.601 65.7249 77.3219C61.2055 82.0924 56.6719 85.9978 53.2635 88.7119C51.995 89.7219 50.8871 90.5633 49.9997 91.2191C49.1123 90.5633 48.0043 89.7219 46.7358 88.7119C43.3275 85.9978 38.7939 82.0924 34.2745 77.3219C25.0652 67.601 16.6663 55.0752 16.6663 42.1667C16.6663 33.3261 20.1782 24.8477 26.4294 18.5964Z" fill="#0F85DA"/>
</g>
<defs>
<clipPath id="clip0_91_1498">
<rect width="100" height="100" fill="white" transform="translate(0 0.5)"/>
</clipPath>
</defs>
</svg>
