<svg width="100" height="101" viewBox="0 0 100 101" fill="none" xmlns="http://www.w3.org/2000/svg">
<path fill-rule="evenodd" clip-rule="evenodd" d="M4.16699 50.4998C4.16699 25.1868 24.6873 4.6665 50.0003 4.6665C75.3134 4.6665 95.8337 25.1868 95.8337 50.4998C95.8337 75.8129 75.3134 96.3332 50.0003 96.3332C24.6873 96.3332 4.16699 75.8129 4.16699 50.4998ZM54.167 87.771V75.4998C54.167 73.1987 52.3015 71.3332 50.0003 71.3332C47.6991 71.3332 45.8337 73.1987 45.8337 75.4998V87.771C28.4519 85.8495 14.6506 72.0482 12.7292 54.6665H25.0003C27.3015 54.6665 29.167 52.801 29.167 50.4998C29.167 48.1987 27.3015 46.3332 25.0003 46.3332H12.7292C14.6506 28.9514 28.4519 15.1502 45.8337 13.2287V25.4998C45.8337 27.801 47.6991 29.6665 50.0003 29.6665C52.3015 29.6665 54.167 27.801 54.167 25.4998V13.2287C71.5487 15.1502 85.35 28.9514 87.2715 46.3332H75.0003C72.6991 46.3332 70.8337 48.1987 70.8337 50.4998C70.8337 52.801 72.6991 54.6665 75.0003 54.6665H87.2715C85.35 72.0482 71.5487 85.8495 54.167 87.771Z" fill="#0F85DA"/>
</svg>
